{
DisplayStrings = (
/uni0986,
/uni0985
);
copyright = "Copyright (c) 2015, Brand New Type, New Delhi, INDIA";
customParameters = (
{
name = vendorID;
value = BNT;
},
{
name = glyphOrder;
value = (
    ".notdef",
    NULL,
    uni000D,
    space,
    uni0981,
    uni0982,
    uni0983,
    uni0985,
    uni0986,
    uni0987,
    uni0988,
    uni0989,
    uni098A,
    uni098B,
    uni098C,
    uni098F,
    uni0990,
    uni0993,
    uni0994,
    uni0995,
    uni0996,
    uni0997,
    uni0998,
    uni0999,
    uni099A,
    uni099B,
    uni099C,
    uni099D,
    uni099E,
    uni099F,
    uni09A0,
    uni09A1,
    uni09A2,
    uni09A3,
    uni09A4,
    uni09A5,
    uni09A6,
    uni09A7,
    uni09A8,
    uni09AA,
    uni09AB,
    uni09AC,
    uni09AD,
    uni09AE,
    uni09AF,
    uni09B0,
    uni09B2,
    uni09B6,
    uni09B7,
    uni09B8,
    uni09B9,
    g51,
    uni09BD,
    uni09BE,
    uni09BF,
    uni09C0,
    uni09C1,
    uni09C2,
    uni09C3,
    uni09C4,
    uni09C7,
    uni09C8,
    uni09CB,
    uni09CC,
    uni09CD,
    uni09D7,
    uni09DC,
    uni09DD,
    uni09DF,
    uni09E0,
    uni09E1,
    uni09E2,
    uni09E3,
    uni09E6,
    uni09E7,
    uni09E8,
    uni09E9,
    uni09EA,
    uni09EB,
    uni09EC,
    uni09ED,
    uni09EE,
    uni09EF,
    uni09F0,
    uni09F1,
    uni09F2,
    uni09F3,
    uni09F4,
    uni09F5,
    uni09F6,
    "uni099C_uni09BC_uni09F0_uni09CD",
    uni09F7,
    uni09F8,
    uni09FA,
    uni0964,
    uni0965,
    uni09F9,
    uni20B9,
    uni09FB,
    "uni09DC_uni09C1",
    "uni09DC_uni09C2",
    "uni09DD_uni09C1",
    "uni09DD_uni09C2",
    g103,
    "uni09F1_uni09F0_uni09CD_uni09C1",
    "uni09F1_uni09F0_uni09CD_uni09C2",
    "uni09BF.pres",
    "uni099C_uni09BC",
    g108,
    g109,
    g110,
    g111,
    g112,
    uni09CE,
    g114,
    g115,
    g116,
    g117,
    g118,
    g119,
    g120,
    "uni0995_uni09F0_uni09CD",
    g122,
    "uni0995_uni09AC_uni09CD",
    g124,
    g125,
    g126,
    g127,
    g128,
    g129,

glyphs = (
{
glyphname = .notdef;
lastChange = "2015-10-20 12:37:05 +0000";
layers = (
{
layerId = "4AE238AB-6A4C-459B-8E99-4D2856E6BBFA";
name = Light;
paths = (
{
closed = 1;
nodes = (
"100 700 LINE",
"700 700 LINE",
"700 0 LINE",
"100 0 LINE"
);
},
{
closed = 1;
nodes = (
"650 50 LINE",
"650 650 LINE",
"150 650 LINE",
"150 50 LINE"
);
}
);
width = 800;
},
{
layerId = "73A23EC2-8D63-4625-BFCF-17D5F08E21CD";
name = Bold;
paths = (
{
closed = 1;
nodes = (
"100 700 LINE",
"700 700 LINE",
"700 0 LINE",
"100 0 LINE"
);
},
{
closed = 1;
nodes = (
"650 50 LINE",
"650 650 LINE",
"150 650 LINE",
"150 50 LINE"
);
}
);
width = 800;
}
);
note = .notdef;
},
{
color = 3;
glyphname = uni0981;
lastChange = "2015-10-20 12:37:05 +0000";
layers = (
{
layerId = "4AE238AB-6A4C-459B-8E99-4D2856E6BBFA";
name = Light;
paths = (
{
closed = 1;
nodes = (
"-73 646 OFFCURVE",
"-43 668 OFFCURVE",
"-24 700 CURVE SMOOTH",
"-16 714 OFFCURVE",
"-12 725 OFFCURVE",
"-12 732 CURVE SMOOTH",
"-12 741 OFFCURVE",
"-17 745 OFFCURVE",
"-23 745 CURVE SMOOTH",
"-34 745 OFFCURVE",
"-46 720 OFFCURVE",
"-52 713 CURVE SMOOTH",
"-70 689 OFFCURVE",
"-93 676 OFFCURVE",
"-118 676 CURVE SMOOTH",
"-146 676 OFFCURVE",
"-175 692 OFFCURVE",
"-199 724 CURVE SMOOTH",
"-208 736 OFFCURVE",
"-219 754 OFFCURVE",
"-230 748 CURVE SMOOTH",
"-234 746 OFFCURVE",
"-236 742 OFFCURVE",
"-236 737 CURVE SMOOTH",
"-236 730 OFFCURVE",
"-232 721 OFFCURVE",
"-225 709 CURVE SMOOTH",
"-202 671 OFFCURVE",
"-164 646 OFFCURVE",
"-117 646 CURVE SMOOTH"
);
},
{
closed = 1;
nodes = (
"-97 724 OFFCURVE",
"-74 737 OFFCURVE",
"-74 766 CURVE SMOOTH",
"-74 794 OFFCURVE",
"-96 815 OFFCURVE",
"-123 815 CURVE SMOOTH",
"-148 815 OFFCURVE",
"-168 797 OFFCURVE",
"-168 773 CURVE SMOOTH",
"-168 748 OFFCURVE",
"-148 724 OFFCURVE",
"-119 724 CURVE SMOOTH"
);
},
{
closed = 1;
nodes = (
"-134 747 OFFCURVE",
"-143 760 OFFCURVE",
"-143 771 CURVE SMOOTH",
"-143 782 OFFCURVE",
"-135 793 OFFCURVE",
"-121 793 CURVE SMOOTH",
"-106 793 OFFCURVE",
"-99 780 OFFCURVE",
"-99 769 CURVE SMOOTH",
"-99 756 OFFCURVE",
"-107 747 OFFCURVE",
"-119 747 CURVE SMOOTH"
);
}
);
width = 0;
},
{
layerId = "73A23EC2-8D63-4625-BFCF-17D5F08E21CD";
name = Bold;
paths = (
{
closed = 1;
nodes = (
"-65 620 OFFCURVE",
"-21 656 OFFCURVE",
"-2 692 CURVE SMOOTH",
"14 722 OFFCURVE",
"5 745 OFFCURVE",
"-11 745 CURVE SMOOTH",
"-38 745 OFFCURVE",
"-50 675 OFFCURVE",
"-119 675 CURVE SMOOTH",
"-190 675 OFFCURVE",
"-210 749 OFFCURVE",
"-236 749 CURVE SMOOTH",
"-250 749 OFFCURVE",
"-261 727 OFFCURVE",
"-242 694 CURVE SMOOTH",
"-217 651 OFFCURVE",
"-166 620 OFFCURVE",
"-117 620 CURVE SMOOTH"
);
},
{
closed = 1;
nodes = (
"-92 711 OFFCURVE",
"-60 728 OFFCURVE",
"-60 766 CURVE SMOOTH",
"-60 801 OFFCURVE",
"-89 828 OFFCURVE",
"-123 828 CURVE SMOOTH",
"-155 828 OFFCURVE",
"-182 805 OFFCURVE",
"-182 773 CURVE SMOOTH",
"-182 742 OFFCURVE",
"-155 711 OFFCURVE",
"-119 711 CURVE SMOOTH"
);
},
{
closed = 1;
nodes = (
"-134 748 OFFCURVE",
"-142 761 OFFCURVE",
"-142 772 CURVE SMOOTH",
"-142 782 OFFCURVE",
"-135 792 OFFCURVE",
"-121 792 CURVE SMOOTH",
"-106 792 OFFCURVE",
"-100 779 OFFCURVE",
"-100 768 CURVE SMOOTH",
"-100 756 OFFCURVE",
"-107 748 OFFCURVE",
"-119 748 CURVE SMOOTH"
);
}
);
width = 0;
}
);
note = uni0981;
unicode = 0981;
},
{
color = 3;
glyphname = uni0982;
lastChange = "2015-10-20 12:37:05 +0000";
layers = (
{
background = {
paths = (
{
closed = 1;
nodes = (
"40 455 OFFCURVE",
"85 500 OFFCURVE",
"141 500 CURVE SMOOTH",
"197 500 OFFCURVE",
"242 455 OFFCURVE",
"242 399 CURVE SMOOTH",
"242 343 OFFCURVE",
"197 298 OFFCURVE",
"141 298 CURVE SMOOTH",
"85 298 OFFCURVE",
"40 343 OFFCURVE",
"40 399 CURVE SMOOTH"
);
},
{
closed = 1;
nodes = (
"84 353 OFFCURVE",
"96 341 OFFCURVE",
"111 341 CURVE SMOOTH",
"150 341 OFFCURVE",
"199 384 OFFCURVE",
"199 419 CURVE SMOOTH",
"199 434 OFFCURVE",
"187 446 OFFCURVE",
"171 446 CURVE SMOOTH",
"132 446 OFFCURVE",
"84 402 OFFCURVE",
"84 369 CURVE SMOOTH"
);
},
{
closed = 1;
nodes = (
"56 263 LINE",
"133 218 OFFCURVE",
"200 128 OFFCURVE",
"243 11 CURVE",
"220 -1 LINE",
"189 83 OFFCURVE",
"119 155 OFFCURVE",
"24 199 CURVE"
);
}
);
};
layerId = "4AE238AB-6A4C-459B-8E99-4D2856E6BBFA";
name = Light;
paths = (
{
closed = 1;
nodes = (
"344 -14 OFFCURVE",
"364 -13 OFFCURVE",
"364 3 CURVE SMOOTH",
"364 8 OFFCURVE",
"361 15 OFFCURVE",
"355 22 CURVE SMOOTH",
"324 55 OFFCURVE",
"301 135 OFFCURVE",
"257 204 CURVE SMOOTH",
"221 261 OFFCURVE",
"166 310 OFFCURVE",
"85 310 CURVE SMOOTH",
"68 310 OFFCURVE",
"60 300 OFFCURVE",
"60 290 CURVE SMOOTH",
"60 280 OFFCURVE",
"68 270 OFFCURVE",
"84 270 CURVE SMOOTH",
"156 270 OFFCURVE",
"196 229 OFFCURVE",
"229 176 CURVE SMOOTH",
"271 109 OFFCURVE",
"297 34 OFFCURVE",
"330 0 CURVE SMOOTH"
);
},
{
closed = 1;
nodes = (
"220 360 OFFCURVE",
"267 393 OFFCURVE",
"267 454 CURVE SMOOTH",
"267 515 OFFCURVE",
"222 555 OFFCURVE",
"160 555 CURVE SMOOTH",
"93 555 OFFCURVE",
"62 505 OFFCURVE",
"62 463 CURVE SMOOTH",
"62 408 OFFCURVE",
"110 360 OFFCURVE",
"170 360 CURVE SMOOTH"
);
},
{
closed = 1;
nodes = (
"139 395 OFFCURVE",
"100 416 OFFCURVE",
"100 458 CURVE SMOOTH",
"100 487 OFFCURVE",
"119 520 OFFCURVE",
"161 520 CURVE SMOOTH",
"200 520 OFFCURVE",
"231 497 OFFCURVE",
"231 459 CURVE SMOOTH",
"231 425 OFFCURVE",
"202 395 OFFCURVE",
"168 395 CURVE SMOOTH"
);
}
);
width = 342;
},
{
layerId = "73A23EC2-8D63-4625-BFCF-17D5F08E21CD";
name = Bold;
paths = (
{
closed = 1;
nodes = (
"347 -13 OFFCURVE",
"364 0 OFFCURVE",
"364 21 CURVE SMOOTH",
"364 60 OFFCURVE",
"328 38 OFFCURVE",
"257 211 CURVE SMOOTH",
"238 258 OFFCURVE",
"201 318 OFFCURVE",
"101 318 CURVE SMOOTH",
"44 318 OFFCURVE",
"37 298 OFFCURVE",
"37 280 CURVE SMOOTH",
"37 251 OFFCURVE",
"54 242 OFFCURVE",
"83 239 CURVE SMOOTH",
"136 233 OFFCURVE",
"171 227 OFFCURVE",
"208 135 CURVE SMOOTH",
"245 42 OFFCURVE",
"284 -13 OFFCURVE",
"325 -13 CURVE SMOOTH"
);
},
{
closed = 1;
nodes = (
"219 356 OFFCURVE",
"273 394 OFFCURVE",
"273 464 CURVE SMOOTH",
"273 535 OFFCURVE",
"221 581 OFFCURVE",
"149 581 CURVE SMOOTH",
"72 581 OFFCURVE",
"36 523 OFFCURVE",
"36 475 CURVE SMOOTH",
"36 411 OFFCURVE",
"91 356 OFFCURVE",
"161 356 CURVE SMOOTH"
);
},
{
closed = 1;
nodes = (
"135 420 OFFCURVE",
"104 436 OFFCURVE",
"104 469 CURVE SMOOTH",
"104 492 OFFCURVE",
"119 517 OFFCURVE",
"152 517 CURVE SMOOTH",
"182 517 OFFCURVE",
"207 500 OFFCURVE",
"207 470 CURVE SMOOTH",
"207 443 OFFCURVE",
"184 420 OFFCURVE",
"158 420 CURVE SMOOTH"
);
}
);
width = 342;
}
);
note = uni0982;
unicode = 0982;
},
{
color = 3;
glyphname = uni0983;
lastChange = "2015-10-20 12:37:05 +0000";
layers = (
{
background = {
paths = (
{
closed = 1;
nodes = (
"70 157 OFFCURVE",
"115 202 OFFCURVE",
"171 202 CURVE SMOOTH",
"227 202 OFFCURVE",
"272 157 OFFCURVE",
"272 101 CURVE SMOOTH",
"272 45 OFFCURVE",
"227 0 OFFCURVE",
"171 0 CURVE SMOOTH",
"115 0 OFFCURVE",
"70 45 OFFCURVE",
"70 101 CURVE SMOOTH"
);
},
{
closed = 1;
nodes = (
"114 56 OFFCURVE",
"126 44 OFFCURVE",
"141 44 CURVE SMOOTH",
"180 44 OFFCURVE",
"229 88 OFFCURVE",
"229 121 CURVE SMOOTH",
"229 137 OFFCURVE",
"212 149 OFFCURVE",
"191 149 CURVE SMOOTH",
"158 149 OFFCURVE",
"114 106 OFFCURVE",
"114 71 CURVE SMOOTH"
);
},
{
closed = 1;
nodes = (
"70 455 OFFCURVE",
"115 500 OFFCURVE",
"171 500 CURVE SMOOTH",
"227 500 OFFCURVE",
"272 455 OFFCURVE",
"272 399 CURVE SMOOTH",
"272 343 OFFCURVE",
"227 298 OFFCURVE",
"171 298 CURVE SMOOTH",
"115 298 OFFCURVE",
"70 343 OFFCURVE",
"70 399 CURVE SMOOTH"
);
},
{
closed = 1;
nodes = (
"114 353 OFFCURVE",
"126 341 OFFCURVE",
"141 341 CURVE SMOOTH",
"180 341 OFFCURVE",
"229 384 OFFCURVE",
"229 419 CURVE SMOOTH",
"229 434 OFFCURVE",
"212 446 OFFCURVE",
"191 446 CURVE SMOOTH",
"158 446 OFFCURVE",
"114 402 OFFCURVE",
"114 369 CURVE SMOOTH"
);
}
);
};
layerId = "4AE238AB-6A4C-459B-8E99-4D2856E6BBFA";
name = Light;
paths = (
{
closed = 1;
nodes = (
"264 62 OFFCURVE",
"315 99 OFFCURVE",
"315 166 CURVE SMOOTH",
"315 233 OFFCURVE",
"266 277 OFFCURVE",
"198 277 CURVE SMOOTH",
"124 277 OFFCURVE",
"90 222 OFFCURVE",
"90 176 CURVE SMOOTH",
"90 115 OFFCURVE",
"143 62 OFFCURVE",
"209 62 CURVE SMOOTH"
);
},
{
closed = 1;
nodes = (
"174 101 OFFCURVE",
"132 124 OFFCURVE",
"132 170 CURVE SMOOTH",
"132 202 OFFCURVE",
"152 238 OFFCURVE",
"199 238 CURVE SMOOTH",
"242 238 OFFCURVE",
"276 213 OFFCURVE",
"276 171 CURVE SMOOTH",
"276 134 OFFCURVE",
"244 101 OFFCURVE",
"206 101 CURVE SMOOTH"
);
},
{
closed = 1;
nodes = (
"264 372 OFFCURVE",
"315 409 OFFCURVE",
"315 476 CURVE SMOOTH",
"315 550 OFFCURVE",
"256 587 OFFCURVE",
"199 587 CURVE SMOOTH",
"144 587 OFFCURVE",
"90 553 OFFCURVE",
"90 486 CURVE SMOOTH",
"90 425 OFFCURVE",
"143 372 OFFCURVE",
"209 372 CURVE SMOOTH"
);
},
{
closed = 1;
nodes = (
"158 411 OFFCURVE",
"132 448 OFFCURVE",
"132 484 CURVE SMOOTH",
"132 516 OFFCURVE",
"154 548 OFFCURVE",
"199 548 CURVE SMOOTH",
"250 548 OFFCURVE",
"276 512 OFFCURVE",
"276 477 CURVE SMOOTH",
"276 444 OFFCURVE",
"252 411 OFFCURVE",
"206 411 CURVE SMOOTH"
);
}
);
width = 407;
},
{
layerId = "73A23EC2-8D63-4625-BFCF-17D5F08E21CD";
name = Bold;
paths = (
{
closed = 1;
nodes = (
"269 362 OFFCURVE",
"323 400 OFFCURVE",
"323 470 CURVE SMOOTH",
"323 541 OFFCURVE",
"271 587 OFFCURVE",
"199 587 CURVE SMOOTH",
"122 587 OFFCURVE",
"86 529 OFFCURVE",
"86 481 CURVE SMOOTH",
"86 417 OFFCURVE",
"141 362 OFFCURVE",
"211 362 CURVE SMOOTH"
);
},
{
closed = 1;
nodes = (
"185 426 OFFCURVE",
"154 442 OFFCURVE",
"154 475 CURVE SMOOTH",
"154 498 OFFCURVE",
"169 523 OFFCURVE",
"202 523 CURVE SMOOTH",
"232 523 OFFCURVE",
"257 506 OFFCURVE",
"257 476 CURVE SMOOTH",
"257 449 OFFCURVE",
"234 426 OFFCURVE",
"208 426 CURVE SMOOTH"
);
},
{
closed = 1;
nodes = (
"269 62 OFFCURVE",
"323 100 OFFCURVE",
"323 170 CURVE SMOOTH",
"323 241 OFFCURVE",
"271 287 OFFCURVE",
"199 287 CURVE SMOOTH",
"122 287 OFFCURVE",
"86 229 OFFCURVE",
"86 181 CURVE SMOOTH",
"86 117 OFFCURVE",
"141 62 OFFCURVE",
"211 62 CURVE SMOOTH"
);
},
{
closed = 1;
nodes = (
"185 126 OFFCURVE",
"154 142 OFFCURVE",
"154 175 CURVE SMOOTH",
"154 198 OFFCURVE",
"169 223 OFFCURVE",
"202 223 CURVE SMOOTH",
"232 223 OFFCURVE",
"257 206 OFFCURVE",
"257 176 CURVE SMOOTH",
"257 149 OFFCURVE",
"234 126 OFFCURVE",
"208 126 CURVE SMOOTH"
);
}
);
width = 407;
}
);
note = uni0983;
unicode = 0983;
},
{
color = 3;
glyphname = uni0985;
lastChange = "2015-10-20 12:37:05 +0000";
layers = (
{
background = {
paths = (
{
closed = 1;
nodes = (
"396 165 OFFCURVE",
"338 97 OFFCURVE",
"254 97 CURVE SMOOTH",
"152 97 OFFCURVE",
"73 200 OFFCURVE",
"7 402 CURVE",
"30 411 LINE",
"92 231 OFFCURVE",
"153 155 OFFCURVE",
"240 155 CURVE SMOOTH",
"310 155 OFFCURVE",
"362 204 OFFCURVE",
"362 273 CURVE SMOOTH",
"362 333 OFFCURVE",
"322 375 OFFCURVE",
"274 375 CURVE SMOOTH",
"266 375 OFFCURVE",
"258 374 OFFCURVE",
"250 372 CURVE",
"268 391 LINE",
"279 380 OFFCURVE",
"286 365 OFFCURVE",
"286 346 CURVE SMOOTH",
"286 307 OFFCURVE",
"256 280 OFFCURVE",
"220 280 CURVE SMOOTH",
"183 280 OFFCURVE",
"154 309 OFFCURVE",
"154 347 CURVE SMOOTH",
"154 389 OFFCURVE",
"191 418 OFFCURVE",
"242 418 CURVE SMOOTH",
"323 418 OFFCURVE",
"396 347 OFFCURVE",
"396 252 CURVE"
);
},
{
closed = 1;
nodes = (
"220 423 OFFCURVE",
"197 446 OFFCURVE",
"163 462 CURVE",
"209 462 LINE",
"231 447 OFFCURVE",
"245 432 OFFCURVE",
"261 410 CURVE",
"232 402 LINE"
);
},
{
closed = 1;
nodes = (
"-10 456 LINE",
"-10 491 LINE",
"586 491 LINE",
"586 456 LINE"
);
},
{
closed = 1;
nodes = (
"506 466 LINE",
"506 0 LINE",
"481 0 LINE",
"470 98 OFFCURVE",
"424 174 OFFCURVE",
"370 207 CURVE",
"381 259 LINE",
"413 229 OFFCURVE",
"454 173 OFFCURVE",
"475 110 CURVE",
"466 107 LINE",
"466 466 LINE"
);
}
);
};
layerId = "4AE238AB-6A4C-459B-8E99-4D2856E6BBFA";
name = Light;
paths = (
{
closed = 1;
nodes = (
"498 182 OFFCURVE",
"498 284 CURVE SMOOTH",
"498 384 OFFCURVE",
"424 472 OFFCURVE",
"326 472 CURVE SMOOTH",
"266 472 OFFCURVE",
"223 440 OFFCURVE",
"223 392 CURVE SMOOTH",
"223 352 OFFCURVE",
"253 317 OFFCURVE",
"297 317 CURVE SMOOTH",
"339 317 OFFCURVE",
"367 349 OFFCURVE",
"367 387 CURVE SMOOTH",
"367 415 OFFCURVE",
"353 436 OFFCURVE",
"329 447 CURVE",
"329 442 LINE",
"392 441 OFFCURVE",
"462 390 OFFCURVE",
"462 296 CURVE SMOOTH",
"462 205 OFFCURVE",
"398 149 OFFCURVE",
"315 149 CURVE SMOOTH",
"170 149 OFFCURVE",
"113 319 OFFCURVE",
"73 440 CURVE SMOOTH",
"70 450 OFFCURVE",
"62 455 OFFCURVE",
"55 455 CURVE SMOOTH",
"48 455 OFFCURVE",
"42 448 OFFCURVE",
"42 439 CURVE SMOOTH",
"42 416 OFFCURVE",
"113 107 OFFCURVE",
"323 107 CURVE SMOOTH",
"427 107 OFFCURVE"
);
},
{
closed = 1;
nodes = (
"273 353 OFFCURVE",
"256 369 OFFCURVE",
"256 392 CURVE SMOOTH",
"256 412 OFFCURVE",
"270 433 OFFCURVE",
"299 433 CURVE SMOOTH",
"322 433 OFFCURVE",
"337 416 OFFCURVE",
"337 393 CURVE SMOOTH",
"337 368 OFFCURVE",
"317 353 OFFCURVE",
"295 353 CURVE SMOOTH"
);
},
{
closed = 1;
nodes = (
"469 207 LINE",
"525 160 OFFCURVE",
"593 97 OFFCURVE",
"593 56 CURVE SMOOTH",
"595 7 OFFCURVE",
"597 -12 OFFCURVE",
"614 -12 CURVE SMOOTH",
"630 -12 OFFCURVE",
"632 5 OFFCURVE",
"632 32 CURVE SMOOTH",
"632 265 OFFCURVE",
"633 483 OFFCURVE",
"641 573 CURVE",
"634 574 LINE",
"647 552 OFFCURVE",
"668 554 OFFCURVE",
"732 554 CURVE SMOOTH",
"741 554 OFFCURVE",
"752 559 OFFCURVE",
"752 570 CURVE SMOOTH",
"752 582 OFFCURVE",
"741 587 OFFCURVE",
"732 587 CURVE SMOOTH",
"713 587 OFFCURVE",
"696 587 OFFCURVE",
"661 587 CURVE SMOOTH",
"635 587 OFFCURVE",
"644 609 OFFCURVE",
"628 609 CURVE SMOOTH",
"614 609 OFFCURVE",
"606 574 OFFCURVE",
"601 515 CURVE",
"608 527 LINE",
"592 565 OFFCURVE",
"561 587 OFFCURVE",
"504 587 CURVE SMOOTH",
"-11 587 LINE SMOOTH",
"-18 587 OFFCURVE",
"-26 582 OFFCURVE",
"-26 571 CURVE SMOOTH",
"-26 562 OFFCURVE",
"-20 554 OFFCURVE",
"-11 554 CURVE SMOOTH",
"521 554 LINE SMOOTH",
"568 554 OFFCURVE",
"598 520 OFFCURVE",
"598 465 CURVE SMOOTH",
"598 402 OFFCURVE",
"593 253 OFFCURVE",
"593 113 CURVE",
"599 119 LINE",
"573 161 OFFCURVE",
"532 204 OFFCURVE",
"485 251 CURVE"
);
}
);
width = 732;
},
{
layerId = "73A23EC2-8D63-4625-BFCF-17D5F08E21CD";
name = Bold;
paths = (
{
closed = 1;
nodes = (
"639 -12 OFFCURVE",
"645 17 OFFCURVE",
"645 64 CURVE SMOOTH",
"645 414 OFFCURVE",
"647 492 OFFCURVE",
"655 583 CURVE SMOOTH",
"656 597 OFFCURVE",
"651 609 OFFCURVE",
"635 609 CURVE SMOOTH",
"569 609 OFFCURVE",
"567 414 OFFCURVE",
"567 64 CURVE SMOOTH",
"567 12 OFFCURVE",
"586 -12 OFFCURVE",
"611 -12 CURVE SMOOTH"
);
},
{
closed = 1;
nodes = (
"602 504 LINE",
"590 550 OFFCURVE",
"559 587 OFFCURVE",
"487 587 CURVE SMOOTH",
"0 587 LINE SMOOTH",
"-18 587 OFFCURVE",
"-35 582 OFFCURVE",
"-35 554 CURVE SMOOTH",
"-35 532 OFFCURVE",
"-18 522 OFFCURVE",
"0 522 CURVE SMOOTH",
"493 522 LINE SMOOTH",
"557 522 OFFCURVE",
"578 479 OFFCURVE",
"574 438 CURVE"
);
},
{
closed = 1;
nodes = (
"629 -12 OFFCURVE",
"641 4 OFFCURVE",
"641 46 CURVE SMOOTH",
"641 112 OFFCURVE",
"549 222 OFFCURVE",
"478 291 CURVE",
"456 204 LINE",
"508 152 OFFCURVE",
"567 104 OFFCURVE",
"567 64 CURVE SMOOTH",
"567 8 OFFCURVE",
"599 -12 OFFCURVE",
"613 -12 CURVE SMOOTH"
);
},
{
closed = 1;
nodes = (
"771 577 OFFCURVE",
"762 587 OFFCURVE",
"732 587 CURVE SMOOTH",
"706 587 LINE SMOOTH",
"670 587 OFFCURVE",
"657 585 OFFCURVE",
"654 595 CURVE",
"645 592 LINE",
"645 576 OFFCURVE",
"649 522 OFFCURVE",
"706 522 CURVE SMOOTH",
"732 522 LINE SMOOTH",
"762 522 OFFCURVE",
"771 539 OFFCURVE",
"771 554 CURVE SMOOTH"
);
},
{
closed = 1;
nodes = (
"239 480 OFFCURVE",
"184 433 OFFCURVE",
"184 368 CURVE SMOOTH",
"184 305 OFFCURVE",
"239 265 OFFCURVE",
"291 265 CURVE SMOOTH",
"351 265 OFFCURVE",
"392 310 OFFCURVE",
"392 361 CURVE SMOOTH",
"392 383 OFFCURVE",
"382 405 OFFCURVE",
"362 421 CURVE",
"362 407 LINE",
"401 392 OFFCURVE",
"433 356 OFFCURVE",
"433 281 CURVE SMOOTH",
"433 197 OFFCURVE",
"388 145 OFFCURVE",
"304 145 CURVE SMOOTH",
"182 145 OFFCURVE",
"106 311 OFFCURVE",
"82 415 CURVE SMOOTH",
"76 441 OFFCURVE",
"57 449 OFFCURVE",
"41 449 CURVE SMOOTH",
"12 449 OFFCURVE",
"10 415 OFFCURVE",
"12 404 CURVE SMOOTH",
"30 288 OFFCURVE",
"119 69 OFFCURVE",
"313 69 CURVE SMOOTH",
"426 69 OFFCURVE",
"509 154 OFFCURVE",
"509 268 CURVE SMOOTH",
"509 396 OFFCURVE",
"431 480 OFFCURVE",
"318 480 CURVE SMOOTH"
);
},
{
closed = 1;
nodes = (
"262 328 OFFCURVE",
"246 348 OFFCURVE",
"246 370 CURVE SMOOTH",
"246 392 OFFCURVE",
"264 411 OFFCURVE",
"286 411 CURVE SMOOTH",
"308 411 OFFCURVE",
"329 393 OFFCURVE",
"329 369 CURVE SMOOTH",
"329 349 OFFCURVE",
"316 328 OFFCURVE",
"289 328 CURVE SMOOTH"
);
}
);
width = 732;
}
);
note = uni0985;
unicode = 0985;
},
{
color = 3;
glyphname = uni0986;
lastChange = "2015-10-20 12:37:05 +0000";
layers = (
{
background = {
paths = (
{
closed = 1;
nodes = (
"555 500 LINE SMOOTH",
"564 500 OFFCURVE",
"576 492 OFFCURVE",
"589 476 CURVE SMOOTH",
"602 460 OFFCURVE",
"615 438 OFFCURVE",
"628 411 CURVE",
"628 581 LINE",
"657 561 LINE",
"657 518 OFFCURVE",
"662 500 OFFCURVE",
"689 500 CURVE SMOOTH",
"705 500 LINE",
"754 456 LINE",
"673 456 LINE",
"673 -3 LINE",
"628 41 LINE",
"628 366 LINE",
"612 394 OFFCURVE",
"596 416 OFFCURVE",
"581 432 CURVE SMOOTH",
"565 448 OFFCURVE",
"552 456 OFFCURVE",
"541 456 CURVE SMOOTH",
"513 456 LINE",
"513 -23 LINE",
"488 1 LINE",
"488 73 OFFCURVE",
"452 145 OFFCURVE",
"391 197 CURVE",
"372 144 OFFCURVE",
"322 109 OFFCURVE",
"267 109 CURVE SMOOTH",
"167 109 OFFCURVE",
"64 236 OFFCURVE",
"15 419 CURVE",
"46 400 LINE",
"81 269 OFFCURVE",
"172 178 OFFCURVE",
"267 178 CURVE SMOOTH",
"323 178 OFFCURVE",
"369 226 OFFCURVE",
"369 285 CURVE SMOOTH",
"369 326 OFFCURVE",
"335 363 OFFCURVE",
"290 371 CURVE",
"293 365 OFFCURVE",
"294 358 OFFCURVE",
"294 349 CURVE SMOOTH",
"294 316 OFFCURVE",
"264 288 OFFCURVE",
"227 288 CURVE SMOOTH",
"191 288 OFFCURVE",
"161 318 OFFCURVE",
"161 354 CURVE SMOOTH",
"161 390 OFFCURVE",
"189 420 OFFCURVE",
"224 420 CURVE",
"220 433 OFFCURVE",
"201 445 OFFCURVE",
"173 456 CURVE",
"-8 456 LINE",
"-56 500 LINE"
);
},
{
closed = 1;
nodes = (
"244 444 OFFCURVE",
"251 432 OFFCURVE",
"263 421 CURVE",
"344 406 OFFCURVE",
"403 337 OFFCURVE",
"403 256 CURVE",
"426 240 OFFCURVE",
"448 203 OFFCURVE",
"468 147 CURVE",
"468 456 LINE",
"244 456 LINE"
);
}
);
};
layerId = "4AE238AB-6A4C-459B-8E99-4D2856E6BBFA";
name = Light;
paths = (
{
closed = 1;
nodes = (
"482 207 LINE",
"537 160 OFFCURVE",
"606 97 OFFCURVE",
"606 56 CURVE SMOOTH",
"606 8 OFFCURVE",
"609 -12 OFFCURVE",
"627 -12 CURVE SMOOTH",
"651 -12 OFFCURVE",
"646 20 OFFCURVE",
"646 71 CURVE SMOOTH",
"646 362 OFFCURVE",
"646 488 OFFCURVE",
"654 573 CURVE",
"647 574 LINE",
"653 564 OFFCURVE",
"669 554 OFFCURVE",
"690 554 CURVE SMOOTH",
"743 554 LINE SMOOTH",
"752 554 OFFCURVE",
"761 558 OFFCURVE",
"761 571 CURVE SMOOTH",
"761 581 OFFCURVE",
"752 587 OFFCURVE",
"743 587 CURVE SMOOTH",
"677 587 LINE SMOOTH",
"645 587 OFFCURVE",
"659 609 OFFCURVE",
"641 609 CURVE SMOOTH",
"627 609 OFFCURVE",
"619 574 OFFCURVE",
"614 515 CURVE",
"621 527 LINE",
"605 565 OFFCURVE",
"574 587 OFFCURVE",
"517 587 CURVE SMOOTH",
"-8 587 LINE SMOOTH",
"-15 587 OFFCURVE",
"-23 582 OFFCURVE",
"-23 571 CURVE SMOOTH",
"-23 562 OFFCURVE",
"-17 554 OFFCURVE",
"-8 554 CURVE SMOOTH",
"534 554 LINE SMOOTH",
"580 554 OFFCURVE",
"610 525 OFFCURVE",
"610 462 CURVE SMOOTH",
"610 374 OFFCURVE",
"606 252 OFFCURVE",
"606 114 CURVE",
"612 120 LINE",
"585 162 OFFCURVE",
"545 203 OFFCURVE",
"498 251 CURVE"
);
},
{
closed = 1;
nodes = (
"286 353 OFFCURVE",
"269 369 OFFCURVE",
"269 392 CURVE SMOOTH",
"269 412 OFFCURVE",
"283 433 OFFCURVE",
"312 433 CURVE SMOOTH",
"335 433 OFFCURVE",
"350 416 OFFCURVE",
"350 393 CURVE SMOOTH",
"350 368 OFFCURVE",
"330 353 OFFCURVE",
"308 353 CURVE SMOOTH"
);
},
{
closed = 1;
nodes = (
"511 184 OFFCURVE",
"511 284 CURVE SMOOTH",
"511 384 OFFCURVE",
"437 472 OFFCURVE",
"339 472 CURVE SMOOTH",
"279 472 OFFCURVE",
"236 440 OFFCURVE",
"236 392 CURVE SMOOTH",
"236 352 OFFCURVE",
"266 317 OFFCURVE",
"310 317 CURVE SMOOTH",
"352 317 OFFCURVE",
"380 349 OFFCURVE",
"380 387 CURVE SMOOTH",
"380 415 OFFCURVE",
"366 436 OFFCURVE",
"342 447 CURVE",
"342 442 LINE",
"405 441 OFFCURVE",
"475 390 OFFCURVE",
"475 296 CURVE SMOOTH",
"475 205 OFFCURVE",
"411 149 OFFCURVE",
"328 149 CURVE SMOOTH",
"183 149 OFFCURVE",
"126 319 OFFCURVE",
"86 440 CURVE SMOOTH",
"83 450 OFFCURVE",
"75 455 OFFCURVE",
"68 455 CURVE SMOOTH",
"61 455 OFFCURVE",
"55 448 OFFCURVE",
"55 439 CURVE SMOOTH",
"55 403 OFFCURVE",
"136 107 OFFCURVE",
"336 107 CURVE SMOOTH",
"440 107 OFFCURVE"
);
},
{
closed = 1;
nodes = (
"864 -12 OFFCURVE",
"865 17 OFFCURVE",
"865 58 CURVE SMOOTH",
"865 359 OFFCURVE",
"866 487 OFFCURVE",
"874 573 CURVE",
"867 574 LINE",
"873 564 OFFCURVE",
"889 554 OFFCURVE",
"910 554 CURVE SMOOTH",
"965 554 LINE SMOOTH",
"974 554 OFFCURVE",
"985 559 OFFCURVE",
"985 570 CURVE SMOOTH",
"985 582 OFFCURVE",
"974 587 OFFCURVE",
"965 587 CURVE SMOOTH",
"894 587 LINE SMOOTH",
"868 587 OFFCURVE",
"877 609 OFFCURVE",
"861 609 CURVE SMOOTH",
"847 609 OFFCURVE",
"838 575 OFFCURVE",
"834 517 CURVE",
"841 527 LINE",
"828 566 OFFCURVE",
"800 587 OFFCURVE",
"760 587 CURVE SMOOTH",
"725 587 LINE SMOOTH",
"713 587 OFFCURVE",
"707 579 OFFCURVE",
"707 570 CURVE SMOOTH",
"707 561 OFFCURVE",
"713 554 OFFCURVE",
"725 554 CURVE SMOOTH",
"766 554 LINE SMOOTH",
"810 554 OFFCURVE",
"831 529 OFFCURVE",
"831 467 CURVE SMOOTH",
"831 371 OFFCURVE",
"826 229 OFFCURVE",
"826 71 CURVE SMOOTH",
"826 23 OFFCURVE",
"826 -12 OFFCURVE",
"846 -12 CURVE SMOOTH"
);
}
);
width = 965;
},
{
layerId = "73A23EC2-8D63-4625-BFCF-17D5F08E21CD";
name = Bold;
paths = (
{
closed = 1;
nodes = (
"639 -12 OFFCURVE",
"645 17 OFFCURVE",
"645 64 CURVE SMOOTH",
"645 414 OFFCURVE",
"647 492 OFFCURVE",
"655 583 CURVE SMOOTH",
"656 597 OFFCURVE",
"651 609 OFFCURVE",
"635 609 CURVE SMOOTH",
"569 609 OFFCURVE",
"567 414 OFFCURVE",
"567 64 CURVE SMOOTH",
"567 12 OFFCURVE",
"586 -12 OFFCURVE",
"611 -12 CURVE SMOOTH"
);
},
{
closed = 1;
nodes = (
"602 504 LINE",
"590 550 OFFCURVE",
"559 587 OFFCURVE",
"487 587 CURVE SMOOTH",
"0 587 LINE SMOOTH",
"-18 587 OFFCURVE",
"-35 582 OFFCURVE",
"-35 554 CURVE SMOOTH",
"-35 532 OFFCURVE",
"-18 522 OFFCURVE",
"0 522 CURVE SMOOTH",
"493 522 LINE SMOOTH",
"557 522 OFFCURVE",
"578 479 OFFCURVE",
"574 438 CURVE"
);
},
{
closed = 1;
nodes = (
"629 -12 OFFCURVE",
"641 4 OFFCURVE",
"641 46 CURVE SMOOTH",
"641 112 OFFCURVE",
"549 222 OFFCURVE",
"478 291 CURVE",
"456 204 LINE",
"508 152 OFFCURVE",
"567 104 OFFCURVE",
"567 64 CURVE SMOOTH",
"567 8 OFFCURVE",
"599 -12 OFFCURVE",
"613 -12 CURVE SMOOTH"
);
},
{
closed = 1;
nodes = (
"771 577 OFFCURVE",
"762 587 OFFCURVE",
"732 587 CURVE SMOOTH",
"706 587 LINE SMOOTH",
"670 587 OFFCURVE",
"657 585 OFFCURVE",
"654 595 CURVE",
"645 592 LINE",
"645 576 OFFCURVE",
"649 522 OFFCURVE",
"706 522 CURVE SMOOTH",
"732 522 LINE SMOOTH",
"762 522 OFFCURVE",
"771 539 OFFCURVE",
"771 554 CURVE SMOOTH"
);
},
{
closed = 1;
nodes = (
"239 480 OFFCURVE",
"184 433 OFFCURVE",
"184 368 CURVE SMOOTH",
"184 305 OFFCURVE",
"239 265 OFFCURVE",
"291 265 CURVE SMOOTH",
"351 265 OFFCURVE",
"392 310 OFFCURVE",
"392 361 CURVE SMOOTH",
"392 383 OFFCURVE",
"382 405 OFFCURVE",
"362 421 CURVE",
"362 407 LINE",
"401 392 OFFCURVE",
"433 356 OFFCURVE",
"433 281 CURVE SMOOTH",
"433 197 OFFCURVE",
"388 145 OFFCURVE",
"304 145 CURVE SMOOTH",
"182 145 OFFCURVE",
"106 311 OFFCURVE",
"82 415 CURVE SMOOTH",
"76 441 OFFCURVE",
"57 449 OFFCURVE",
"41 449 CURVE SMOOTH",
"12 449 OFFCURVE",
"10 415 OFFCURVE",
"12 404 CURVE SMOOTH",
"30 288 OFFCURVE",
"119 69 OFFCURVE",
"313 69 CURVE SMOOTH",
"426 69 OFFCURVE",
"509 154 OFFCURVE",
"509 268 CURVE SMOOTH",
"509 396 OFFCURVE",
"431 480 OFFCURVE",
"318 480 CURVE SMOOTH"
);
},
{
closed = 1;
nodes = (
"262 328 OFFCURVE",
"246 348 OFFCURVE",
"246 370 CURVE SMOOTH",
"246 392 OFFCURVE",
"264 411 OFFCURVE",
"286 411 CURVE SMOOTH",
"308 411 OFFCURVE",
"329 393 OFFCURVE",
"329 369 CURVE SMOOTH",
"329 349 OFFCURVE",
"316 328 OFFCURVE",
"289 328 CURVE SMOOTH"
);
},
{
closed = 1;
nodes = (
"871 -12 OFFCURVE",
"877 17 OFFCURVE",
"877 64 CURVE SMOOTH",
"877 414 OFFCURVE",
"879 492 OFFCURVE",
"887 583 CURVE SMOOTH",
"888 597 OFFCURVE",
"883 609 OFFCURVE",
"867 609 CURVE SMOOTH",
"801 609 OFFCURVE",
"799 414 OFFCURVE",
"799 64 CURVE SMOOTH",
"799 12 OFFCURVE",
"818 -12 OFFCURVE",
"843 -12 CURVE SMOOTH"
);
},
{
closed = 1;
nodes = (
"834 504 LINE",
"822 550 OFFCURVE",
"813 587 OFFCURVE",
"741 587 CURVE SMOOTH",
"724 587 LINE SMOOTH",
"706 587 OFFCURVE",
"689 582 OFFCURVE",
"689 554 CURVE SMOOTH",
"689 532 OFFCURVE",
"706 522 OFFCURVE",
"724 522 CURVE SMOOTH",
"747 522 LINE SMOOTH",
"811 522 OFFCURVE",
"810 479 OFFCURVE",
"806 438 CURVE"
);
},
{
closed = 1;
nodes = (
"1004 577 OFFCURVE",
"995 587 OFFCURVE",
"965 587 CURVE SMOOTH",
"930 587 LINE SMOOTH",
"902 587 OFFCURVE",
"889 585 OFFCURVE",
"886 595 CURVE",
"877 592 LINE",
"877 576 OFFCURVE",
"881 522 OFFCURVE",
"930 522 CURVE SMOOTH",
"965 522 LINE SMOOTH",
"995 522 OFFCURVE",
"1004 539 OFFCURVE",
"1004 554 CURVE SMOOTH"
);
}
);
width = 965;
}
);
note = uni0986;
unicode = 0986;
},
{
color = 3;
glyphname = uni0987;
lastChange = "2015-10-20 12:37:05 +0000";
layers = (
{
background = {
paths = (
{
closed = 1;
nodes = (
"416 491 LINE",
"416 456 LINE",
"-10 456 LINE",
"-10 491 LINE"
);
},
{
closed = 1;
nodes = (
"167 410 LINE",
"166 433 OFFCURVE",
"144 456 OFFCURVE",
"106 459 CURVE",
"161 473 LINE",
"191 446 OFFCURVE",
"196 426 OFFCURVE",
"200 411 CURVE"
);
},
{
closed = 1;
nodes = (
"294 420 OFFCURVE",
"362 356 OFFCURVE",
"362 281 CURVE SMOOTH",
"362 195 OFFCURVE",
"273 126 OFFCURVE",
"171 124 CURVE",
"167 151 LINE",
"248 106 OFFCURVE",
"313 68 OFFCURVE",
"445 -50 CURVE",
"429 -69 LINE",
"279 50 OFFCURVE",
"208 84 OFFCURVE",
"74 116 CURVE",
"26 216 LINE",
"62 195 OFFCURVE",
"107 182 OFFCURVE",
"154 182 CURVE SMOOTH",
"253 182 OFFCURVE",
"323 238 OFFCURVE",
"323 299 CURVE SMOOTH",
"323 344 OFFCURVE",
"284 375 OFFCURVE",
"230 375 CURVE SMOOTH",
"204 375 OFFCURVE",
"190 368 OFFCURVE",
"176 359 CURVE",
"205 390 LINE",
"210 377 OFFCURVE",
"211 364 OFFCURVE",
"211 356 CURVE SMOOTH",
"211 306 OFFCURVE",
"175 269 OFFCURVE",
"129 269 CURVE SMOOTH",
"90 269 OFFCURVE",
"65 296 OFFCURVE",
"65 331 CURVE SMOOTH",
"65 385 OFFCURVE",
"123 420 OFFCURVE",
"196 420 CURVE SMOOTH"
);
},
{
closed = 1;
nodes = (
"302 486 LINE",
"309 497 OFFCURVE",
"312 508 OFFCURVE",
"312 520 CURVE SMOOTH",
"312 548 OFFCURVE",
"296 564 OFFCURVE",
"253 564 CURVE SMOOTH",
"215 564 OFFCURVE",
"125 551 OFFCURVE",
"87 551 CURVE SMOOTH",
"22 551 OFFCURVE",
"-21 588 OFFCURVE",
"-21 637 CURVE SMOOTH",
"-21 667 OFFCURVE",
"-5 694 OFFCURVE",
"16 714 CURVE",
"34 698 LINE",
"19 683 OFFCURVE",
"9 664 OFFCURVE",
"9 645 CURVE SMOOTH",
"9 619 OFFCURVE",
"27 602 OFFCURVE",
"69 602 CURVE SMOOTH",
"109 602 OFFCURVE",
"180 617 OFFCURVE",
"222 617 CURVE SMOOTH",
"303 617 OFFCURVE",
"340 562 OFFCURVE",
"346 485 CURVE"
);
}
);
};
layerId = "4AE238AB-6A4C-459B-8E99-4D2856E6BBFA";
name = Light;
paths = (
{
closed = 1;
nodes = (
"447 -29 OFFCURVE",
"452 -19 OFFCURVE",
"452 -10 CURVE SMOOTH",
"452 4 OFFCURVE",
"441 9 OFFCURVE",
"424 9 CURVE SMOOTH",
"302 9 OFFCURVE",
"247 227 OFFCURVE",
"147 227 CURVE SMOOTH",
"118 227 OFFCURVE",
"97 212 OFFCURVE",
"97 186 CURVE SMOOTH",
"97 154 OFFCURVE",
"129 135 OFFCURVE",
"179 135 CURVE SMOOTH",
"292 135 OFFCURVE",
"408 228 OFFCURVE",
"408 343 CURVE SMOOTH",
"408 440 OFFCURVE",
"329 499 OFFCURVE",
"235 499 CURVE SMOOTH",
"169 499 OFFCURVE",
"88 469 OFFCURVE",
"88 407 CURVE SMOOTH",
"88 373 OFFCURVE",
"112 338 OFFCURVE",
"155 338 CURVE SMOOTH",
"195 338 OFFCURVE",
"224 367 OFFCURVE",
"224 401 CURVE SMOOTH",
"224 433 OFFCURVE",
"198 461 OFFCURVE",
"165 457 CURVE",
"165 451 LINE",
"189 464 OFFCURVE",
"219 468 OFFCURVE",
"238 468 CURVE SMOOTH",
"298 468 OFFCURVE",
"366 422 OFFCURVE",
"366 340 CURVE SMOOTH",
"366 239 OFFCURVE",
"265 170 OFFCURVE",
"164 170 CURVE SMOOTH",
"146 170 OFFCURVE",
"134 178 OFFCURVE",
"134 185 CURVE SMOOTH",
"134 189 OFFCURVE",
"139 192 OFFCURVE",
"149 192 CURVE SMOOTH",
"217 192 OFFCURVE",
"283 -29 OFFCURVE",
"420 -29 CURVE SMOOTH"
);
},
{
closed = 1;
nodes = (
"146 374 OFFCURVE",
"125 383 OFFCURVE",
"125 406 CURVE SMOOTH",
"125 427 OFFCURVE",
"141 438 OFFCURVE",
"159 438 CURVE SMOOTH",
"179 438 OFFCURVE",
"191 423 OFFCURVE",
"191 406 CURVE SMOOTH",
"191 384 OFFCURVE",
"172 374 OFFCURVE",
"159 374 CURVE SMOOTH"
);
},
{
closed = 1;
nodes = (
"488 554 LINE SMOOTH",
"497 554 OFFCURVE",
"503 561 OFFCURVE",
"503 570 CURVE SMOOTH",
"503 581 OFFCURVE",
"495 587 OFFCURVE",
"488 587 CURVE SMOOTH",
"0 587 LINE SMOOTH",
"-7 587 OFFCURVE",
"-16 581 OFFCURVE",
"-16 570 CURVE SMOOTH",
"-16 561 OFFCURVE",
"-9 554 OFFCURVE",
"0 554 CURVE SMOOTH"
);
},
{
closed = 1;
nodes = (
"411 564 LINE",
"411 702 OFFCURVE",
"356 726 OFFCURVE",
"262 726 CURVE SMOOTH",
"179 726 OFFCURVE",
"17 675 OFFCURVE",
"17 799 CURVE SMOOTH",
"17 814 OFFCURVE",
"10 821 OFFCURVE",
"2 821 CURVE SMOOTH",
"-5 821 OFFCURVE",
"-13 813 OFFCURVE",
"-13 799 CURVE SMOOTH",
"-13 639 OFFCURVE",
"180 697 OFFCURVE",
"272 697 CURVE SMOOTH",
"380 697 OFFCURVE",
"372 631 OFFCURVE",
"372 564 CURVE"
);
}
);
width = 488;
},
{
layerId = "73A23EC2-8D63-4625-BFCF-17D5F08E21CD";
name = Bold;
paths = (
{
closed = 1;
nodes = (
"447 -30 OFFCURVE",
"463 -13 OFFCURVE",
"463 4 CURVE SMOOTH",
"463 18 OFFCURVE",
"451 41 OFFCURVE",
"424 41 CURVE SMOOTH",
"315 41 OFFCURVE",
"281 244 OFFCURVE",
"151 244 CURVE SMOOTH",
"112 244 OFFCURVE",
"76 215 OFFCURVE",
"76 179 CURVE SMOOTH",
"76 143 OFFCURVE",
"113 100 OFFCURVE",
"181 100 CURVE SMOOTH",
"306 100 OFFCURVE",
"416 199 OFFCURVE",
"416 316 CURVE SMOOTH",
"416 418 OFFCURVE",
"346 500 OFFCURVE",
"232 500 CURVE SMOOTH",
"150 500 OFFCURVE",
"72 458 OFFCURVE",
"72 386 CURVE SMOOTH",
"72 336 OFFCURVE",
"110 295 OFFCURVE",
"165 295 CURVE SMOOTH",
"216 295 OFFCURVE",
"247 330 OFFCURVE",
"247 376 CURVE SMOOTH",
"247 417 OFFCURVE",
"217 449 OFFCURVE",
"177 449 CURVE",
"215 434 LINE",
"274 434 OFFCURVE",
"341 403 OFFCURVE",
"341 316 CURVE SMOOTH",
"341 226 OFFCURVE",
"260 164 OFFCURVE",
"168 164 CURVE SMOOTH",
"150 164 OFFCURVE",
"134 169 OFFCURVE",
"134 179 CURVE SMOOTH",
"134 185 OFFCURVE",
"140 189 OFFCURVE",
"150 189 CURVE SMOOTH",
"207 189 OFFCURVE",
"276 -30 OFFCURVE",
"417 -30 CURVE SMOOTH"
);
},
{
closed = 1;
nodes = (
"143 347 OFFCURVE",
"127 362 OFFCURVE",
"127 381 CURVE SMOOTH",
"128 402 OFFCURVE",
"146 411 OFFCURVE",
"161 411 CURVE SMOOTH",
"181 411 OFFCURVE",
"193 396 OFFCURVE",
"193 379 CURVE SMOOTH",
"193 357 OFFCURVE",
"174 347 OFFCURVE",
"161 347 CURVE SMOOTH"
);
},
{
closed = 1;
nodes = (
"488 522 LINE SMOOTH",
"499 522 OFFCURVE",
"519 529 OFFCURVE",
"519 554 CURVE SMOOTH",
"519 578 OFFCURVE",
"501 587 OFFCURVE",
"488 587 CURVE SMOOTH",
"0 587 LINE SMOOTH",
"-18 587 OFFCURVE",
"-35 578 OFFCURVE",
"-35 554 CURVE SMOOTH",
"-35 529 OFFCURVE",
"-18 522 OFFCURVE",
"0 522 CURVE SMOOTH"
);
},
{
closed = 1;
nodes = (
"412 544 LINE",
"412 693 OFFCURVE",
"362 739 OFFCURVE",
"271 739 CURVE SMOOTH",
"215 739 OFFCURVE",
"169 715 OFFCURVE",
"123 715 CURVE SMOOTH",
"56 715 OFFCURVE",
"46 757 OFFCURVE",
"43 784 CURVE SMOOTH",
"41 807 OFFCURVE",
"37 826 OFFCURVE",
"13 826 CURVE SMOOTH",
"-2 826 OFFCURVE",
"-17 818 OFFCURVE",
"-17 782 CURVE SMOOTH",
"-17 705 OFFCURVE",
"43 649 OFFCURVE",
"128 649 CURVE SMOOTH",
"196 649 OFFCURVE",
"233 673 OFFCURVE",
"278 673 CURVE SMOOTH",
"336 673 OFFCURVE",
"336 626 OFFCURVE",
"336 544 CURVE"
);
}
);
width = 488;
}
);
note = uni0987;
unicode = 0987;
},
{
color = 3;
glyphname = uni0988;
lastChange = "2015-10-20 12:37:05 +0000";
layers = (
{
background = {
paths = (
{
closed = 1;
nodes = (
"-40 500 LINE",
"307 500 LINE SMOOTH",
"320 500 OFFCURVE",
"330 512 OFFCURVE",
"330 528 CURVE SMOOTH",
"330 544 OFFCURVE",
"309 556 OFFCURVE",
"282 556 CURVE SMOOTH",
"263 556 OFFCURVE",
"234 553 OFFCURVE",
"195 548 CURVE SMOOTH",
"156 543 OFFCURVE",
"127 541 OFFCURVE",
"108 541 CURVE SMOOTH",
"52 541 OFFCURVE",
"7 584 OFFCURVE",
"7 637 CURVE SMOOTH",
"7 666 OFFCURVE",
"20 694 OFFCURVE",
"44 714 CURVE",
"62 696 LINE",
"49 685 OFFCURVE",
"41 669 OFFCURVE",
"41 652 CURVE SMOOTH",
"41 625 OFFCURVE",
"64 604 OFFCURVE",
"93 604 CURVE SMOOTH",
"112 604 OFFCURVE",
"139 607 OFFCURVE",
"175 612 CURVE SMOOTH",
"211 617 OFFCURVE",
"238 619 OFFCURVE",
"257 619 CURVE SMOOTH",
"313 619 OFFCURVE",
"358 579 OFFCURVE",
"358 528 CURVE SMOOTH",
"358 512 OFFCURVE",
"367 500 OFFCURVE",
"376 500 CURVE SMOOTH",
"425 500 LINE",
"455 456 LINE",
"113 456 LINE",
"124 447 OFFCURVE",
"130 434 OFFCURVE",
"130 421 CURVE",
"198 421 OFFCURVE",
"253 373 OFFCURVE",
"253 313 CURVE",
"290 358 OFFCURVE",
"335 390 OFFCURVE",
"386 411 CURVE",
"434 364 LINE",
"379 325 OFFCURVE",
"348 252 OFFCURVE",
"348 171 CURVE SMOOTH",
"348 94 OFFCURVE",
"360 30 OFFCURVE",
"385 -23 CURVE",
"344 1 LINE",
"318 72 OFFCURVE",
"305 129 OFFCURVE",
"305 171 CURVE SMOOTH",
"305 217 OFFCURVE",
"314 261 OFFCURVE",
"331 304 CURVE",
"286 239 OFFCURVE",
"248 192 OFFCURVE",
"217 161 CURVE SMOOTH",
"183 126 OFFCURVE",
"155 109 OFFCURVE",
"133 109 CURVE SMOOTH",
"85 109 OFFCURVE",
"47 162 OFFCURVE",
"47 227 CURVE",
"70 232 LINE",
"74 207 OFFCURVE",
"91 188 OFFCURVE",
"108 188 CURVE SMOOTH",
"156 188 OFFCURVE",
"216 251 OFFCURVE",
"216 300 CURVE SMOOTH",
"216 331 OFFCURVE",
"189 356 OFFCURVE",
"156 356 CURVE",
"158 351 OFFCURVE",
"159 345 OFFCURVE",
"159 340 CURVE SMOOTH",
"159 305 OFFCURVE",
"129 278 OFFCURVE",
"93 278 CURVE SMOOTH",
"57 278 OFFCURVE",
"27 308 OFFCURVE",
"27 344 CURVE SMOOTH",
"27 381 OFFCURVE",
"56 413 OFFCURVE",
"95 420 CURVE",
"95 426 OFFCURVE",
"82 437 OFFCURVE",
"55 452 CURVE SMOOTH",
"48 456 LINE",
"-10 456 LINE"
);
}
);
};
layerId = "4AE238AB-6A4C-459B-8E99-4D2856E6BBFA";
name = Light;
paths = (
{
closed = 1;
nodes = (
"485 27 OFFCURVE",
"487 32 OFFCURVE",
"487 37 CURVE SMOOTH",
"487 70 OFFCURVE",
"415 151 OFFCURVE",
"415 270 CURVE SMOOTH",
"415 404 OFFCURVE",
"505 403 OFFCURVE",
"505 434 CURVE SMOOTH",
"505 442 OFFCURVE",
"498 451 OFFCURVE",
"487 451 CURVE SMOOTH",
"406 451 OFFCURVE",
"290 168 OFFCURVE",
"176 168 CURVE SMOOTH",
"126 168 OFFCURVE",
"116 206 OFFCURVE",
"98 206 CURVE SMOOTH",
"89 206 OFFCURVE",
"81 199 OFFCURVE",
"81 190 CURVE SMOOTH",
"81 167 OFFCURVE",
"131 134 OFFCURVE",
"176 134 CURVE SMOOTH",
"280 134 OFFCURVE",
"358 271 OFFCURVE",
"392 323 CURVE",
"373 322 LINE",
"373 232 OFFCURVE",
"390 142 OFFCURVE",
"441 55 CURVE SMOOTH",
"452 35 OFFCURVE",
"466 18 OFFCURVE",
"480 25 CURVE SMOOTH"
);
},
{
closed = 1;
nodes = (
"113 349 OFFCURVE",
"92 358 OFFCURVE",
"92 381 CURVE SMOOTH",
"92 401 OFFCURVE",
"107 413 OFFCURVE",
"125 413 CURVE SMOOTH",
"146 413 OFFCURVE",
"158 398 OFFCURVE",
"158 381 CURVE SMOOTH",
"158 359 OFFCURVE",
"139 349 OFFCURVE",
"126 349 CURVE SMOOTH"
);
},
{
closed = 1;
nodes = (
"329 249 OFFCURVE",
"340 287 OFFCURVE",
"340 326 CURVE SMOOTH",
"340 406 OFFCURVE",
"290 491 OFFCURVE",
"193 491 CURVE SMOOTH",
"120 491 OFFCURVE",
"55 443 OFFCURVE",
"55 384 CURVE SMOOTH",
"55 347 OFFCURVE",
"80 313 OFFCURVE",
"123 313 CURVE SMOOTH",
"163 313 OFFCURVE",
"191 342 OFFCURVE",
"191 376 CURVE SMOOTH",
"191 409 OFFCURVE",
"164 437 OFFCURVE",
"135 437 CURVE SMOOTH",
"125 437 OFFCURVE",
"116 434 OFFCURVE",
"107 427 CURVE",
"111 423 LINE",
"129 445 OFFCURVE",
"162 457 OFFCURVE",
"194 457 CURVE SMOOTH",
"277 457 OFFCURVE",
"311 378 OFFCURVE",
"311 314 CURVE SMOOTH",
"311 285 OFFCURVE",
"304 259 OFFCURVE",
"292 244 CURVE",
"305 222 LINE"
);
},
{
closed = 1;
nodes = (
"538 554 LINE SMOOTH",
"547 554 OFFCURVE",
"553 562 OFFCURVE",
"553 571 CURVE SMOOTH",
"553 582 OFFCURVE",
"545 587 OFFCURVE",
"538 587 CURVE SMOOTH",
"0 587 LINE SMOOTH",
"-7 587 OFFCURVE",
"-15 582 OFFCURVE",
"-15 571 CURVE SMOOTH",
"-15 562 OFFCURVE",
"-9 554 OFFCURVE",
"0 554 CURVE SMOOTH"
);
},
{
closed = 1;
nodes = (
"463 564 LINE",
"463 702 OFFCURVE",
"408 726 OFFCURVE",
"320 726 CURVE SMOOTH",
"237 726 OFFCURVE",
"69 671 OFFCURVE",
"69 799 CURVE SMOOTH",
"69 814 OFFCURVE",
"62 821 OFFCURVE",
"54 821 CURVE SMOOTH",
"47 821 OFFCURVE",
"39 813 OFFCURVE",
"39 799 CURVE SMOOTH",
"39 636 OFFCURVE",
"257 697 OFFCURVE",
"324 697 CURVE SMOOTH",
"432 697 OFFCURVE",
"424 631 OFFCURVE",
"424 564 CURVE"
);
}
);
width = 538;
},
{
layerId = "73A23EC2-8D63-4625-BFCF-17D5F08E21CD";
name = Bold;
paths = (
{
closed = 1;
nodes = (
"100 348 OFFCURVE",
"85 363 OFFCURVE",
"85 382 CURVE SMOOTH",
"86 403 OFFCURVE",
"102 412 OFFCURVE",
"117 412 CURVE SMOOTH",
"137 412 OFFCURVE",
"149 397 OFFCURVE",
"149 380 CURVE SMOOTH",
"149 358 OFFCURVE",
"130 348 OFFCURVE",
"117 348 CURVE SMOOTH"
);
},
{
closed = 1;
nodes = (
"317 235 LINE",
"324 244 OFFCURVE",
"357 283 OFFCURVE",
"357 339 CURVE SMOOTH",
"357 412 OFFCURVE",
"300 493 OFFCURVE",
"185 493 CURVE SMOOTH",
"104 493 OFFCURVE",
"32 453 OFFCURVE",
"32 385 CURVE SMOOTH",
"32 341 OFFCURVE",
"63 294 OFFCURVE",
"119 294 CURVE SMOOTH",
"166 294 OFFCURVE",
"202 327 OFFCURVE",
"202 372 CURVE SMOOTH",
"202 416 OFFCURVE",
"169 449 OFFCURVE",
"127 449 CURVE",
"116 422 LINE",
"139 429 OFFCURVE",
"160 435 OFFCURVE",
"185 435 CURVE SMOOTH",
"246 435 OFFCURVE",
"297 399 OFFCURVE",
"297 321 CURVE SMOOTH",
"297 294 OFFCURVE",
"291 269 OFFCURVE",
"269 242 CURVE"
);
},
{
closed = 0;
nodes = (
"322 216 LINE"
);
},
{
closed = 1;
nodes = (
"480 18 OFFCURVE",
"491 27 OFFCURVE",
"491 43 CURVE SMOOTH",
"491 82 OFFCURVE",
"421 144 OFFCURVE",
"421 259 CURVE SMOOTH",
"421 388 OFFCURVE",
"508 395 OFFCURVE",
"508 433 CURVE SMOOTH",
"508 444 OFFCURVE",
"501 461 OFFCURVE",
"477 461 CURVE SMOOTH",
"380 461 OFFCURVE",
"289 185 OFFCURVE",
"172 185 CURVE SMOOTH",
"127 185 OFFCURVE",
"108 225 OFFCURVE",
"79 225 CURVE SMOOTH",
"63 225 OFFCURVE",
"54 212 OFFCURVE",
"54 196 CURVE SMOOTH",
"54 154 OFFCURVE",
"115 121 OFFCURVE",
"173 121 CURVE SMOOTH",
"287 121 OFFCURVE",
"349 246 OFFCURVE",
"396 318 CURVE",
"351 299 LINE",
"351 266 OFFCURVE",
"363 119 OFFCURVE",
"416 48 CURVE SMOOTH",
"430 29 OFFCURVE",
"447 18 OFFCURVE",
"464 18 CURVE SMOOTH"
);
},
{
closed = 1;
nodes = (
"462 544 LINE",
"462 693 OFFCURVE",
"412 739 OFFCURVE",
"321 739 CURVE SMOOTH",
"265 739 OFFCURVE",
"209 715 OFFCURVE",
"163 715 CURVE SMOOTH",
"96 715 OFFCURVE",
"86 757 OFFCURVE",
"83 784 CURVE SMOOTH",
"81 807 OFFCURVE",
"77 826 OFFCURVE",
"53 826 CURVE SMOOTH",
"38 826 OFFCURVE",
"23 818 OFFCURVE",
"23 782 CURVE SMOOTH",
"23 705 OFFCURVE",
"83 649 OFFCURVE",
"168 649 CURVE SMOOTH",
"236 649 OFFCURVE",
"283 673 OFFCURVE",
"328 673 CURVE SMOOTH",
"386 673 OFFCURVE",
"386 626 OFFCURVE",
"386 544 CURVE"
);
},
{
closed = 1;
nodes = (
"538 522 LINE SMOOTH",
"549 522 OFFCURVE",
"569 529 OFFCURVE",
"569 554 CURVE SMOOTH",
"569 578 OFFCURVE",
"551 587 OFFCURVE",
"538 587 CURVE SMOOTH",
"0 587 LINE SMOOTH",
"-18 587 OFFCURVE",
"-35 578 OFFCURVE",
"-35 554 CURVE SMOOTH",
"-35 529 OFFCURVE",
"-18 522 OFFCURVE",
"0 522 CURVE SMOOTH"
);
}
);
width = 538;
}
);
note = uni0988;
unicode = 0988;
},
{
color = 3;
glyphname = uni0989;
lastChange = "2015-10-20 12:37:05 +0000";
layers = (
{
background = {
paths = (
{
closed = 1;
nodes = (
"-40 500 LINE",
"347 500 LINE SMOOTH",
"360 500 OFFCURVE",
"370 510 OFFCURVE",
"370 523 CURVE SMOOTH",
"370 542 OFFCURVE",
"343 556 OFFCURVE",
"308 556 CURVE SMOOTH",
"288 556 OFFCURVE",
"258 554 OFFCURVE",
"219 551 CURVE SMOOTH",
"179 548 OFFCURVE",
"149 546 OFFCURVE",
"129 546 CURVE SMOOTH",
"73 546 OFFCURVE",
"28 591 OFFCURVE",
"28 647 CURVE SMOOTH",
"28 670 OFFCURVE",
"37 694 OFFCURVE",
"54 714 CURVE",
"78 701 LINE",
"67 689 OFFCURVE",
"62 673 OFFCURVE",
"62 657 CURVE SMOOTH",
"62 630 OFFCURVE",
"87 609 OFFCURVE",
"119 609 CURVE SMOOTH",
"138 609 OFFCURVE",
"166 611 OFFCURVE",
"204 614 CURVE SMOOTH",
"241 617 OFFCURVE",
"269 619 OFFCURVE",
"288 619 CURVE SMOOTH",
"349 619 OFFCURVE",
"399 579 OFFCURVE",
"399 528 CURVE SMOOTH",
"399 512 OFFCURVE",
"411 500 OFFCURVE",
"427 500 CURVE SMOOTH",
"465 500 LINE",
"495 456 LINE",
"242 456 LINE",
"242 290 LINE SMOOTH",
"242 281 OFFCURVE",
"246 272 OFFCURVE",
"253 272 CURVE SMOOTH",
"288 272 OFFCURVE",
"331 311 OFFCURVE",
"367 372 CURVE",
"418 343 OFFCURVE",
"449 280 OFFCURVE",
"449 205 CURVE SMOOTH",
"449 94 OFFCURVE",
"377 5 OFFCURVE",
"286 5 CURVE SMOOTH",
"158 5 OFFCURVE",
"45 182 OFFCURVE",
"25 411 CURVE",
"52 385 LINE",
"73 210 OFFCURVE",
"174 78 OFFCURVE",
"286 78 CURVE SMOOTH",
"361 78 OFFCURVE",
"420 141 OFFCURVE",
"420 220 CURVE SMOOTH",
"420 257 OFFCURVE",
"409 286 OFFCURVE",
"392 297 CURVE",
"359 238 OFFCURVE",
"311 203 OFFCURVE",
"268 203 CURVE SMOOTH",
"240 203 OFFCURVE",
"197 269 OFFCURVE",
"197 310 CURVE SMOOTH",
"197 456 LINE",
"-10 456 LINE"
);
}
);
};
layerId = "4AE238AB-6A4C-459B-8E99-4D2856E6BBFA";
name = Light;
paths = (
{
closed = 1;
nodes = (
"523 564 LINE",
"523 702 OFFCURVE",
"468 733 OFFCURVE",
"347 733 CURVE SMOOTH",
"216 733 OFFCURVE",
"23 655 OFFCURVE",
"23 795 CURVE SMOOTH",
"23 810 OFFCURVE",
"16 817 OFFCURVE",
"8 817 CURVE SMOOTH",
"1 817 OFFCURVE",
"-7 809 OFFCURVE",
"-7 795 CURVE SMOOTH",
"-7 619 OFFCURVE",
"226 704 OFFCURVE",
"357 704 CURVE SMOOTH",
"492 704 OFFCURVE",
"484 631 OFFCURVE",
"484 564 CURVE"
);
},
{
closed = 1;
nodes = (
"485 30 OFFCURVE",
"559 113 OFFCURVE",
"559 233 CURVE SMOOTH",
"559 311 OFFCURVE",
"523 393 OFFCURVE",
"474 393 CURVE SMOOTH",
"441 393 OFFCURVE",
"468 263 OFFCURVE",
"369 263 CURVE SMOOTH",
"322 263 OFFCURVE",
"292 317 OFFCURVE",
"292 387 CURVE SMOOTH",
"292 498 OFFCURVE",
"310 554 OFFCURVE",
"378 554 CURVE SMOOTH",
"593 554 LINE SMOOTH",
"602 554 OFFCURVE",
"611 560 OFFCURVE",
"611 571 CURVE SMOOTH",
"611 580 OFFCURVE",
"601 587 OFFCURVE",
"593 587 CURVE SMOOTH",
"367 587 LINE SMOOTH",
"335 587 OFFCURVE",
"291 571 OFFCURVE",
"286 541 CURVE",
"295 543 LINE",
"283 573 OFFCURVE",
"241 587 OFFCURVE",
"193 587 CURVE SMOOTH",
"0 587 LINE SMOOTH",
"-7 587 OFFCURVE",
"-17 582 OFFCURVE",
"-17 571 CURVE SMOOTH",
"-17 562 OFFCURVE",
"-9 554 OFFCURVE",
"0 554 CURVE SMOOTH",
"206 554 LINE SMOOTH",
"228 554 OFFCURVE",
"271 547 OFFCURVE",
"271 520 CURVE SMOOTH",
"271 503 OFFCURVE",
"256 467 OFFCURVE",
"256 397 CURVE SMOOTH",
"256 296 OFFCURVE",
"296 229 OFFCURVE",
"375 229 CURVE SMOOTH",
"469 229 OFFCURVE",
"485 334 OFFCURVE",
"490 354 CURVE",
"484 354 LINE",
"502 339 OFFCURVE",
"523 285 OFFCURVE",
"523 232 CURVE SMOOTH",
"523 145 OFFCURVE",
"458 72 OFFCURVE",
"363 72 CURVE SMOOTH",
"218 72 OFFCURVE",
"95 263 OFFCURVE",
"80 427 CURVE SMOOTH",
"78 448 OFFCURVE",
"68 459 OFFCURVE",
"60 459 CURVE SMOOTH",
"51 459 OFFCURVE",
"43 448 OFFCURVE",
"45 426 CURVE SMOOTH",
"62 241 OFFCURVE",
"196 30 OFFCURVE",
"363 30 CURVE SMOOTH"
);
}
);
width = 593;
},
{
layerId = "73A23EC2-8D63-4625-BFCF-17D5F08E21CD";
name = Bold;
paths = (
{
closed = 1;
nodes = (
"533 564 LINE",
"533 704 OFFCURVE",
"472 762 OFFCURVE",
"367 762 CURVE SMOOTH",
"267 762 OFFCURVE",
"214 710 OFFCURVE",
"133 710 CURVE SMOOTH",
"85 710 OFFCURVE",
"46 728 OFFCURVE",
"45 781 CURVE SMOOTH",
"45 801 OFFCURVE",
"43 827 OFFCURVE",
"15 827 CURVE SMOOTH",
"-5 827 OFFCURVE",
"-15 813 OFFCURVE",
"-15 779 CURVE SMOOTH",
"-15 682 OFFCURVE",
"67 647 OFFCURVE",
"141 647 CURVE SMOOTH",
"243 647 OFFCURVE",
"302 695 OFFCURVE",
"372 695 CURVE SMOOTH",
"453 695 OFFCURVE",
"463 629 OFFCURVE",
"463 564 CURVE"
);
},
{
closed = 1;
nodes = (
"473 22 OFFCURVE",
"562 102 OFFCURVE",
"562 224 CURVE SMOOTH",
"562 320 OFFCURVE",
"507 405 OFFCURVE",
"466 405 CURVE SMOOTH",
"415 405 OFFCURVE",
"443 277 OFFCURVE",
"366 277 CURVE SMOOTH",
"316 277 OFFCURVE",
"300 332 OFFCURVE",
"300 392 CURVE SMOOTH",
"300 479 OFFCURVE",
"324 522 OFFCURVE",
"373 522 CURVE SMOOTH",
"593 522 LINE SMOOTH",
"603 522 OFFCURVE",
"620 528 OFFCURVE",
"620 555 CURVE SMOOTH",
"620 581 OFFCURVE",
"600 587 OFFCURVE",
"593 587 CURVE SMOOTH",
"367 587 LINE SMOOTH",
"336 587 OFFCURVE",
"299 584 OFFCURVE",
"274 557 CURVE SMOOTH",
"243 523 OFFCURVE",
"221 450 OFFCURVE",
"221 386 CURVE SMOOTH",
"221 295 OFFCURVE",
"276 205 OFFCURVE",
"366 205 CURVE SMOOTH",
"461 205 OFFCURVE",
"491 307 OFFCURVE",
"491 326 CURVE",
"466 326 LINE",
"476 310 OFFCURVE",
"497 266 OFFCURVE",
"497 231 CURVE SMOOTH",
"497 156 OFFCURVE",
"448 98 OFFCURVE",
"353 98 CURVE SMOOTH",
"227 98 OFFCURVE",
"118 242 OFFCURVE",
"94 422 CURVE SMOOTH",
"91 444 OFFCURVE",
"83 468 OFFCURVE",
"56 468 CURVE SMOOTH",
"29 468 OFFCURVE",
"25 447 OFFCURVE",
"25 424 CURVE SMOOTH",
"25 289 OFFCURVE",
"140 22 OFFCURVE",
"357 22 CURVE SMOOTH"
);
},
{
closed = 1;
nodes = (
"278 525 LINE",
"278 567 OFFCURVE",
"230 587 OFFCURVE",
"173 587 CURVE SMOOTH",
"0 587 LINE SMOOTH",
"-7 587 OFFCURVE",
"-28 582 OFFCURVE",
"-28 555 CURVE SMOOTH",
"-28 531 OFFCURVE",
"-9 522 OFFCURVE",
"0 522 CURVE SMOOTH",
"195 522 LINE SMOOTH",
"223 522 OFFCURVE",
"236 514 OFFCURVE",
"236 492 CURVE SMOOTH",
"236 483 OFFCURVE",
"234 473 OFFCURVE",
"231 461 CURVE"
);
}
);
width = 593;
}
);
note = uni0989;
unicode = 0989;
},
{
color = 3;
glyphname = uni098A;
lastChange = "2015-10-20 12:37:05 +0000";
layers = (
{
background = {
paths = (
{
closed = 1;
nodes = (
"-40 500 LINE",
"383 500 LINE SMOOTH",
"399 500 OFFCURVE",
"411 512 OFFCURVE",
"411 528 CURVE SMOOTH",
"411 551 OFFCURVE",
"385 570 OFFCURVE",
"353 570 CURVE SMOOTH",
"326 570 OFFCURVE",
"284 568 OFFCURVE",
"229 563 CURVE SMOOTH",
"174 558 OFFCURVE",
"132 556 OFFCURVE",
"105 556 CURVE SMOOTH",
"54 556 OFFCURVE",
"14 599 OFFCURVE",
"14 652 CURVE SMOOTH",
"14 677 OFFCURVE",
"25 705 OFFCURVE",
"45 729 CURVE",
"74 712 LINE",
"61 699 OFFCURVE",
"53 683 OFFCURVE",
"53 667 CURVE SMOOTH",
"53 643 OFFCURVE",
"75 624 OFFCURVE",
"100 624 CURVE SMOOTH",
"125 624 OFFCURVE",
"163 627 OFFCURVE",
"214 632 CURVE SMOOTH",
"265 637 OFFCURVE",
"304 639 OFFCURVE",
"329 639 CURVE SMOOTH",
"393 639 OFFCURVE",
"445 589 OFFCURVE",
"445 528 CURVE SMOOTH",
"445 512 OFFCURVE",
"460 500 OFFCURVE",
"477 500 CURVE SMOOTH",
"513 500 LINE",
"543 456 LINE",
"302 456 LINE",
"302 290 LINE SMOOTH",
"302 277 OFFCURVE",
"307 267 OFFCURVE",
"314 267 CURVE SMOOTH",
"341 267 OFFCURVE",
"381 307 OFFCURVE",
"418 372 CURVE",
"469 336 OFFCURVE",
"499 272 OFFCURVE",
"499 200 CURVE SMOOTH",
"499 92 OFFCURVE",
"410 5 OFFCURVE",
"299 5 CURVE SMOOTH",
"150 5 OFFCURVE",
"28 181 OFFCURVE",
"28 400 CURVE",
"53 375 LINE",
"53 231 OFFCURVE",
"133 107 OFFCURVE",
"253 63 CURVE",
"161 132 OFFCURVE",
"107 256 OFFCURVE",
"107 399 CURVE",
"132 375 LINE",
"147 210 OFFCURVE",
"234 83 OFFCURVE",
"334 83 CURVE SMOOTH",
"407 83 OFFCURVE",
"466 144 OFFCURVE",
"466 220 CURVE SMOOTH",
"466 249 OFFCURVE",
"458 275 OFFCURVE",
"443 292 CURVE",
"399 233 OFFCURVE",
"356 198 OFFCURVE",
"329 198 CURVE SMOOTH",
"301 198 OFFCURVE",
"257 261 OFFCURVE",
"257 300 CURVE SMOOTH",
"257 456 LINE",
"-10 456 LINE"
);
}
);
};
layerId = "4AE238AB-6A4C-459B-8E99-4D2856E6BBFA";
name = Light;
paths = (
{
closed = 1;
nodes = (
"528 30 OFFCURVE",
"603 109 OFFCURVE",
"603 236 CURVE SMOOTH",
"603 318 OFFCURVE",
"568 394 OFFCURVE",
"520 394 CURVE SMOOTH",
"486 394 OFFCURVE",
"514 263 OFFCURVE",
"412 263 CURVE SMOOTH",
"366 263 OFFCURVE",
"332 317 OFFCURVE",
"332 397 CURVE SMOOTH",
"332 498 OFFCURVE",
"350 554 OFFCURVE",
"418 554 CURVE SMOOTH",
"645 554 LINE SMOOTH",
"654 554 OFFCURVE",
"662 561 OFFCURVE",
"662 572 CURVE SMOOTH",
"662 580 OFFCURVE",
"653 587 OFFCURVE",
"645 587 CURVE SMOOTH",
"398 587 LINE SMOOTH",
"366 587 OFFCURVE",
"332 563 OFFCURVE",
"326 544 CURVE",
"335 543 LINE",
"323 573 OFFCURVE",
"281 587 OFFCURVE",
"233 587 CURVE SMOOTH",
"-2 587 LINE SMOOTH",
"-9 587 OFFCURVE",
"-17 582 OFFCURVE",
"-17 571 CURVE SMOOTH",
"-17 562 OFFCURVE",
"-11 554 OFFCURVE",
"-2 554 CURVE SMOOTH",
"246 554 LINE SMOOTH",
"278 554 OFFCURVE",
"309 547 OFFCURVE",
"309 517 CURVE SMOOTH",
"309 499 OFFCURVE",
"296 472 OFFCURVE",
"296 397 CURVE SMOOTH",
"296 295 OFFCURVE",
"343 229 OFFCURVE",
"419 229 CURVE SMOOTH",
"514 229 OFFCURVE",
"532 335 OFFCURVE",
"536 355 CURVE",
"530 355 LINE",
"547 340 OFFCURVE",
"568 290 OFFCURVE",
"568 235 CURVE SMOOTH",
"568 133 OFFCURVE",
"493 75 OFFCURVE",
"413 75 CURVE SMOOTH",
"260 75 OFFCURVE",
"183 265 OFFCURVE",
"183 422 CURVE SMOOTH",
"183 454 OFFCURVE",
"191 485 OFFCURVE",
"167 485 CURVE SMOOTH",
"152 485 OFFCURVE",
"150 463 OFFCURVE",
"150 426 CURVE SMOOTH",
"150 315 OFFCURVE",
"190 196 OFFCURVE",
"255 121 CURVE",
"257 123 LINE",
"168 189 OFFCURVE",
"105 314 OFFCURVE",
"98 446 CURVE SMOOTH",
"97 458 OFFCURVE",
"90 466 OFFCURVE",
"80 466 CURVE SMOOTH",
"71 466 OFFCURVE",
"65 458 OFFCURVE",
"65 448 CURVE SMOOTH",
"65 258 OFFCURVE",
"216 30 OFFCURVE",
"401 30 CURVE SMOOTH"
);
},
{
closed = 1;
nodes = (
"563 564 LINE",
"563 702 OFFCURVE",
"508 733 OFFCURVE",
"387 733 CURVE SMOOTH",
"255 733 OFFCURVE",
"63 656 OFFCURVE",
"63 795 CURVE SMOOTH",
"63 810 OFFCURVE",
"56 817 OFFCURVE",
"48 817 CURVE SMOOTH",
"41 817 OFFCURVE",
"33 809 OFFCURVE",
"33 795 CURVE SMOOTH",
"33 615 OFFCURVE",
"262 704 OFFCURVE",
"397 704 CURVE SMOOTH",
"532 704 OFFCURVE",
"524 631 OFFCURVE",
"524 564 CURVE"
);
}
);
width = 643;
},
{
layerId = "73A23EC2-8D63-4625-BFCF-17D5F08E21CD";
name = Bold;
paths = (
{
closed = 1;
nodes = (
"523 22 OFFCURVE",
"612 102 OFFCURVE",
"612 224 CURVE SMOOTH",
"612 320 OFFCURVE",
"557 405 OFFCURVE",
"516 405 CURVE SMOOTH",
"465 405 OFFCURVE",
"488 277 OFFCURVE",
"411 277 CURVE SMOOTH",
"366 277 OFFCURVE",
"347 322 OFFCURVE",
"347 392 CURVE SMOOTH",
"347 479 OFFCURVE",
"374 522 OFFCURVE",
"423 522 CURVE SMOOTH",
"643 522 LINE SMOOTH",
"653 522 OFFCURVE",
"670 528 OFFCURVE",
"670 554 CURVE SMOOTH",
"670 581 OFFCURVE",
"650 587 OFFCURVE",
"643 587 CURVE SMOOTH",
"407 587 LINE SMOOTH",
"386 587 OFFCURVE",
"345 587 OFFCURVE",
"324 557 CURVE SMOOTH",
"293 513 OFFCURVE",
"271 450 OFFCURVE",
"271 386 CURVE SMOOTH",
"271 285 OFFCURVE",
"336 205 OFFCURVE",
"416 205 CURVE SMOOTH",
"511 205 OFFCURVE",
"544 313 OFFCURVE",
"544 339 CURVE",
"516 336 LINE",
"526 320 OFFCURVE",
"546 276 OFFCURVE",
"546 231 CURVE SMOOTH",
"546 156 OFFCURVE",
"488 88 OFFCURVE",
"403 88 CURVE SMOOTH",
"230 88 OFFCURVE",
"117 227 OFFCURVE",
"94 422 CURVE SMOOTH",
"91 444 OFFCURVE",
"86 468 OFFCURVE",
"58 468 CURVE SMOOTH",
"32 468 OFFCURVE",
"28 447 OFFCURVE",
"28 424 CURVE SMOOTH",
"28 300 OFFCURVE",
"143 22 OFFCURVE",
"407 22 CURVE SMOOTH"
);
},
{
closed = 1;
nodes = (
"328 515 LINE",
"328 557 OFFCURVE",
"300 587 OFFCURVE",
"239 587 CURVE SMOOTH",
"-2 587 LINE SMOOTH",
"-9 587 OFFCURVE",
"-30 582 OFFCURVE",
"-30 553 CURVE SMOOTH",
"-30 531 OFFCURVE",
"-11 522 OFFCURVE",
"-2 522 CURVE SMOOTH",
"245 522 LINE SMOOTH",
"273 522 OFFCURVE",
"286 514 OFFCURVE",
"286 492 CURVE SMOOTH",
"286 483 OFFCURVE",
"284 473 OFFCURVE",
"281 461 CURVE"
);
},
{
closed = 1;
nodes = (
"403 88 LINE",
"240 88 OFFCURVE",
"198 297 OFFCURVE",
"198 445 CURVE SMOOTH",
"198 464 OFFCURVE",
"192 485 OFFCURVE",
"167 485 CURVE SMOOTH",
"149 485 OFFCURVE",
"140 473 OFFCURVE",
"139 451 CURVE SMOOTH",
"136 318 OFFCURVE",
"163 130 OFFCURVE",
"326 52 CURVE"
);
},
{
closed = 1;
nodes = (
"583 564 LINE",
"583 704 OFFCURVE",
"522 762 OFFCURVE",
"417 762 CURVE SMOOTH",
"317 762 OFFCURVE",
"264 710 OFFCURVE",
"183 710 CURVE SMOOTH",
"125 710 OFFCURVE",
"86 728 OFFCURVE",
"85 781 CURVE SMOOTH",
"85 801 OFFCURVE",
"83 827 OFFCURVE",
"55 827 CURVE SMOOTH",
"35 827 OFFCURVE",
"25 813 OFFCURVE",
"25 779 CURVE SMOOTH",
"25 682 OFFCURVE",
"107 647 OFFCURVE",
"191 647 CURVE SMOOTH",
"293 647 OFFCURVE",
"352 695 OFFCURVE",
"422 695 CURVE SMOOTH",
"503 695 OFFCURVE",
"513 629 OFFCURVE",
"513 564 CURVE"
);
}
);
width = 643;
}
);
note = uni098A;
unicode = 098A;
},
{
color = 3;
glyphname = uni098B;
lastChange = "2015-10-20 12:37:05 +0000";
layers = (
{
background = {
paths = (
{
closed = 1;
nodes = (
"368 509 LINE",
"368 281 LINE",
"409 257 OFFCURVE",
"435 235 OFFCURVE",
"442 216 CURVE",
"442 582 LINE",
"466 559 LINE",
"466 527 OFFCURVE",
"483 500 OFFCURVE",
"506 500 CURVE SMOOTH",
"533 500 LINE",
"563 456 LINE",
"487 456 LINE",
"487 27 LINE",
"462 51 LINE",
"462 111 OFFCURVE",
"428 174 OFFCURVE",
"368 225 CURVE",
"368 -23 LINE",
"342 1 LINE",
"342 97 OFFCURVE",
"242 184 OFFCURVE",
"105 208 CURVE",
"64 276 LINE",
"271 409 LINE",
"206 437 LINE",
"166 381 OFFCURVE",
"118 347 OFFCURVE",
"77 347 CURVE SMOOTH",
"42 347 OFFCURVE",
"15 374 OFFCURVE",
"15 409 CURVE SMOOTH",
"15 442 OFFCURVE",
"42 470 OFFCURVE",
"77 470 CURVE SMOOTH",
"105 470 OFFCURVE",
"128 453 OFFCURVE",
"132 432 CURVE",
"156 439 OFFCURVE",
"180 477 OFFCURVE",
"195 533 CURVE",
"227 470 OFFCURVE",
"276 431 OFFCURVE",
"323 431 CURVE",
"323 553 LINE"
);
},
{
closed = 1;
nodes = (
"236 236 OFFCURVE",
"291 185 OFFCURVE",
"323 117 CURVE",
"323 355 LINE",
"171 260 LINE"
);
}
);
};
layerId = "4AE238AB-6A4C-459B-8E99-4D2856E6BBFA";
name = Light;
paths = (
{
closed = 1;
nodes = (
"415 -12 OFFCURVE",
"416 0 OFFCURVE",
"416 129 CURVE SMOOTH",
"416 154 OFFCURVE",
"416 184 OFFCURVE",
"416 220 CURVE",
"405 219 LINE",
"456 130 OFFCURVE",
"527 126 OFFCURVE",
"527 69 CURVE SMOOTH",
"527 50 OFFCURVE",
"534 33 OFFCURVE",
"547 33 CURVE SMOOTH",
"562 33 OFFCURVE",
"565 46 OFFCURVE",
"565 70 CURVE SMOOTH",
"565 305 OFFCURVE",
"562 447 OFFCURVE",
"574 574 CURVE",
"567 574 LINE",
"580 552 OFFCURVE",
"601 554 OFFCURVE",
"665 554 CURVE SMOOTH",
"674 554 OFFCURVE",
"685 559 OFFCURVE",
"685 570 CURVE SMOOTH",
"685 582 OFFCURVE",
"674 587 OFFCURVE",
"665 587 CURVE SMOOTH",
"646 587 OFFCURVE",
"613 587 OFFCURVE",
"601 587 CURVE SMOOTH",
"563 587 OFFCURVE",
"579 609 OFFCURVE",
"561 609 CURVE SMOOTH",
"526 609 OFFCURVE",
"526 419 OFFCURVE",
"526 115 CURVE",
"533 130 LINE",
"502 169 OFFCURVE",
"416 228 OFFCURVE",
"416 284 CURVE SMOOTH",
"416 434 OFFCURVE",
"420 519 OFFCURVE",
"426 583 CURVE SMOOTH",
"427 597 OFFCURVE",
"425 609 OFFCURVE",
"413 609 CURVE SMOOTH",
"398 609 OFFCURVE",
"390 570 OFFCURVE",
"385 505 CURVE",
"393 517 LINE",
"374 563 OFFCURVE",
"316 590 OFFCURVE",
"270 590 CURVE SMOOTH",
"215 590 OFFCURVE",
"238 473 OFFCURVE",
"137 473 CURVE SMOOTH",
"124 473 OFFCURVE",
"110 475 OFFCURVE",
"100 480 CURVE",
"98 474 LINE",
"111 474 OFFCURVE",
"150 488 OFFCURVE",
"150 529 CURVE SMOOTH",
"150 568 OFFCURVE",
"120 588 OFFCURVE",
"89 588 CURVE SMOOTH",
"58 588 OFFCURVE",
"26 567 OFFCURVE",
"26 522 CURVE SMOOTH",
"26 481 OFFCURVE",
"71 438 OFFCURVE",
"133 438 CURVE SMOOTH",
"265 438 OFFCURVE",
"243 560 OFFCURVE",
"283 560 CURVE SMOOTH",
"311 560 OFFCURVE",
"372 528 OFFCURVE",
"372 490 CURVE SMOOTH",
"372 451 OFFCURVE",
"291 407 OFFCURVE",
"63 324 CURVE SMOOTH",
"50 319 OFFCURVE",
"45 309 OFFCURVE",
"45 298 CURVE SMOOTH",
"45 281 OFFCURVE",
"58 262 OFFCURVE",
"80 260 CURVE SMOOTH",
"131 254 OFFCURVE",
"378 189 OFFCURVE",
"378 43 CURVE SMOOTH",
"378 16 OFFCURVE",
"381 -12 OFFCURVE",
"398 -12 CURVE SMOOTH"
);
},
{
closed = 1;
nodes = (
"332 216 OFFCURVE",
"222 270 OFFCURVE",
"77 298 CURVE",
"73 287 LINE",
"252 360 OFFCURVE",
"351 396 OFFCURVE",
"385 443 CURVE",
"381 448 LINE",
"378 365 OFFCURVE",
"378 254 OFFCURVE",
"378 129 CURVE",
"384 136 LINE"
);
},
{
closed = 1;
nodes = (
"68 495 OFFCURVE",
"59 510 OFFCURVE",
"59 526 CURVE SMOOTH",
"59 542 OFFCURVE",
"69 558 OFFCURVE",
"89 558 CURVE SMOOTH",
"110 558 OFFCURVE",
"121 543 OFFCURVE",
"121 527 CURVE SMOOTH",
"121 511 OFFCURVE",
"110 495 OFFCURVE",
"88 495 CURVE SMOOTH"
);
}
);
width = 665;
},
{
layerId = "73A23EC2-8D63-4625-BFCF-17D5F08E21CD";
name = Bold;
paths = (
{
closed = 1;
nodes = (
"416 234 LINE",
"416 196 OFFCURVE",
"520 159 OFFCURVE",
"520 109 CURVE",
"584 109 LINE",
"584 203 OFFCURVE",
"442 250 OFFCURVE",
"442 312 CURVE"
);
},
{
closed = 1;
nodes = (
"115 545 OFFCURVE",
"125 532 OFFCURVE",
"125 513 CURVE SMOOTH",
"125 496 OFFCURVE",
"110 486 OFFCURVE",
"96 486 CURVE SMOOTH",
"81 486 OFFCURVE",
"66 496 OFFCURVE",
"66 515 CURVE SMOOTH",
"66 533 OFFCURVE",
"81 545 OFFCURVE",
"96 545 CURVE SMOOTH"
);
},
{
closed = 1;
nodes = (
"435 -12 OFFCURVE",
"441 17 OFFCURVE",
"441 64 CURVE SMOOTH",
"441 414 OFFCURVE",
"443 492 OFFCURVE",
"451 583 CURVE SMOOTH",
"452 597 OFFCURVE",
"447 609 OFFCURVE",
"431 609 CURVE SMOOTH",
"365 609 OFFCURVE",
"363 414 OFFCURVE",
"363 64 CURVE SMOOTH",
"363 12 OFFCURVE",
"382 -12 OFFCURVE",
"407 -12 CURVE SMOOTH"
);
},
{
closed = 1;
nodes = (
"322 522 OFFCURVE",
"337 509 OFFCURVE",
"337 488 CURVE SMOOTH",
"337 444 OFFCURVE",
"292 410 OFFCURVE",
"89 324 CURVE SMOOTH",
"63 313 OFFCURVE",
"51 293 OFFCURVE",
"51 274 CURVE SMOOTH",
"51 238 OFFCURVE",
"77 216 OFFCURVE",
"116 205 CURVE SMOOTH",
"162 192 OFFCURVE",
"363 164 OFFCURVE",
"363 64 CURVE SMOOTH",
"363 22 OFFCURVE",
"376 -12 OFFCURVE",
"407 -12 CURVE SMOOTH",
"431 -12 OFFCURVE",
"439 24 OFFCURVE",
"439 46 CURVE SMOOTH",
"439 183 OFFCURVE",
"241 273 OFFCURVE",
"110 273 CURVE",
"118 256 LINE",
"322 338 OFFCURVE",
"399 397 OFFCURVE",
"399 486 CURVE SMOOTH",
"399 543 OFFCURVE",
"345 587 OFFCURVE",
"285 587 CURVE SMOOTH",
"204 587 OFFCURVE",
"235 462 OFFCURVE",
"136 462 CURVE SMOOTH",
"123 462 OFFCURVE",
"107 465 OFFCURVE",
"88 470 CURVE",
"128 449 LINE",
"143 453 OFFCURVE",
"177 476 OFFCURVE",
"177 522 CURVE SMOOTH",
"177 558 OFFCURVE",
"149 597 OFFCURVE",
"96 597 CURVE SMOOTH",
"42 597 OFFCURVE",
"14 555 OFFCURVE",
"14 511 CURVE SMOOTH",
"14 446 OFFCURVE",
"71 399 OFFCURVE",
"133 399 CURVE SMOOTH",
"271 399 OFFCURVE",
"265 522 OFFCURVE",
"307 522 CURVE SMOOTH"
);
},
{
closed = 1;
nodes = (
"592 33 OFFCURVE",
"598 62 OFFCURVE",
"598 109 CURVE SMOOTH",
"598 414 OFFCURVE",
"600 492 OFFCURVE",
"608 583 CURVE SMOOTH",
"609 597 OFFCURVE",
"604 609 OFFCURVE",
"588 609 CURVE SMOOTH",
"522 609 OFFCURVE",
"520 414 OFFCURVE",
"520 109 CURVE SMOOTH",
"520 57 OFFCURVE",
"539 33 OFFCURVE",
"564 33 CURVE SMOOTH"
);
},
{
closed = 1;
nodes = (
"704 577 OFFCURVE",
"695 587 OFFCURVE",
"665 587 CURVE SMOOTH",
"651 587 LINE SMOOTH",
"623 587 OFFCURVE",
"610 585 OFFCURVE",
"607 595 CURVE",
"598 592 LINE",
"598 576 OFFCURVE",
"602 522 OFFCURVE",
"651 522 CURVE SMOOTH",
"665 522 LINE SMOOTH",
"695 522 OFFCURVE",
"704 539 OFFCURVE",
"704 554 CURVE SMOOTH"
);
}
);
width = 665;
}
);
note = uni098B;
unicode = 098B;
},
{
color = 3;
glyphname = uni098C;
lastChange = "2015-10-20 12:37:05 +0000";
layers = (
{
background = {
paths = (
{
closed = 1;
nodes = (
"54 178 OFFCURVE",
"111 242 OFFCURVE",
"182 242 CURVE SMOOTH",
"267 242 OFFCURVE",
"336 170 OFFCURVE",
"336 79 CURVE",
"363 88 OFFCURVE",
"381 121 OFFCURVE",
"381 158 CURVE SMOOTH",
"381 213 OFFCURVE",
"312 273 OFFCURVE",
"211 306 CURVE SMOOTH",
"108 339 OFFCURVE",
"38 400 OFFCURVE",
"38 456 CURVE SMOOTH",
"38 488 OFFCURVE",
"66 514 OFFCURVE",
"99 514 CURVE SMOOTH",
"132 514 OFFCURVE",
"160 489 OFFCURVE",
"160 458 CURVE SMOOTH",
"160 437 OFFCURVE",
"152 419 OFFCURVE",
"140 415 CURVE",
"152 382 OFFCURVE",
"192 351 OFFCURVE",
"249 331 CURVE SMOOTH",
"350 296 OFFCURVE",
"418 227 OFFCURVE",
"418 158 CURVE SMOOTH",
"418 70 OFFCURVE",
"358 -2 OFFCURVE",
"283 -2 CURVE",
"283 113 OFFCURVE",
"233 205 OFFCURVE",
"170 205 CURVE SMOOTH",
"135 205 OFFCURVE",
"107 172 OFFCURVE",
"107 131 CURVE SMOOTH",
"107 114 OFFCURVE",
"112 96 OFFCURVE",
"122 79 CURVE",
"134 88 OFFCURVE",
"145 94 OFFCURVE",
"154 94 CURVE SMOOTH",
"183 94 OFFCURVE",
"206 70 OFFCURVE",
"206 39 CURVE SMOOTH",
"206 10 OFFCURVE",
"178 -13 OFFCURVE",
"142 -13 CURVE SMOOTH",
"94 -13 OFFCURVE",
"54 37 OFFCURVE",
"54 98 CURVE SMOOTH"
);
}
);
};
layerId = "4AE238AB-6A4C-459B-8E99-4D2856E6BBFA";
name = Light;
paths = (
{
closed = 1;
nodes = (
"434 -12 OFFCURVE",
"523 115 OFFCURVE",
"523 238 CURVE SMOOTH",
"523 540 OFFCURVE",
"94 493 OFFCURVE",
"94 662 CURVE SMOOTH",
"94 683 OFFCURVE",
"87 693 OFFCURVE",
"76 693 CURVE SMOOTH",
"67 693 OFFCURVE",
"59 687 OFFCURVE",
"59 671 CURVE SMOOTH",
"59 448 OFFCURVE",
"485 514 OFFCURVE",
"485 245 CURVE SMOOTH",
"485 143 OFFCURVE",
"421 28 OFFCURVE",
"327 20 CURVE",
"357 52 OFFCURVE",
"383 104 OFFCURVE",
"383 152 CURVE SMOOTH",
"383 252 OFFCURVE",
"311 318 OFFCURVE",
"218 318 CURVE SMOOTH",
"125 318 OFFCURVE",
"49 247 OFFCURVE",
"49 162 CURVE SMOOTH",
"49 79 OFFCURVE",
"111 9 OFFCURVE",
"183 9 CURVE SMOOTH",
"279 9 OFFCURVE",
"281 133 OFFCURVE",
"194 133 CURVE SMOOTH",
"147 133 OFFCURVE",
"122 86 OFFCURVE",
"146 50 CURVE",
"114 66 OFFCURVE",
"85 99 OFFCURVE",
"85 150 CURVE SMOOTH",
"85 226 OFFCURVE",
"149 276 OFFCURVE",
"224 276 CURVE SMOOTH",
"292 276 OFFCURVE",
"343 223 OFFCURVE",
"343 153 CURVE SMOOTH",
"343 64 OFFCURVE",
"285 35 OFFCURVE",
"285 15 CURVE SMOOTH",
"285 0 OFFCURVE",
"299 -12 OFFCURVE",
"327 -12 CURVE SMOOTH"
);
},
{
closed = 1;
nodes = (
"156 42 OFFCURVE",
"152 103 OFFCURVE",
"194 103 CURVE SMOOTH",
"231 103 OFFCURVE",
"240 39 OFFCURVE",
"190 39 CURVE"
);
}
);
width = 562;
},
{
layerId = "73A23EC2-8D63-4625-BFCF-17D5F08E21CD";
name = Bold;
paths = (
{
closed = 1;
nodes = (
"415 -12 OFFCURVE",
"531 83 OFFCURVE",
"531 250 CURVE SMOOTH",
"531 563 OFFCURVE",
"104 481 OFFCURVE",
"104 645 CURVE SMOOTH",
"104 669 OFFCURVE",
"99 693 OFFCURVE",
"69 693 CURVE SMOOTH",
"49 693 OFFCURVE",
"32 683 OFFCURVE",
"32 636 CURVE SMOOTH",
"32 399 OFFCURVE",
"455 501 OFFCURVE",
"455 243 CURVE SMOOTH",
"455 138 OFFCURVE",
"385 52 OFFCURVE",
"320 52 CURVE",
"319 21 LINE",
"343 21 OFFCURVE",
"395 86 OFFCURVE",
"395 169 CURVE SMOOTH",
"395 270 OFFCURVE",
"319 354 OFFCURVE",
"209 354 CURVE SMOOTH",
"90 354 OFFCURVE",
"24 257 OFFCURVE",
"24 165 CURVE SMOOTH",
"24 69 OFFCURVE",
"95 -3 OFFCURVE",
"172 -3 CURVE SMOOTH",
"230 -3 OFFCURVE",
"262 37 OFFCURVE",
"262 83 CURVE SMOOTH",
"262 129 OFFCURVE",
"231 168 OFFCURVE",
"178 168 CURVE SMOOTH",
"124 168 OFFCURVE",
"94 126 OFFCURVE",
"94 75 CURVE",
"148 50 LINE",
"102 79 OFFCURVE",
"95 116 OFFCURVE",
"95 146 CURVE SMOOTH",
"95 230 OFFCURVE",
"148 278 OFFCURVE",
"211 278 CURVE SMOOTH",
"266 278 OFFCURVE",
"320 242 OFFCURVE",
"320 155 CURVE SMOOTH",
"320 71 OFFCURVE",
"269 39 OFFCURVE",
"269 11 CURVE SMOOTH",
"269 -6 OFFCURVE",
"289 -12 OFFCURVE",
"314 -12 CURVE SMOOTH"
);
},
{
closed = 1;
nodes = (
"155 51 OFFCURVE",
"142 66 OFFCURVE",
"142 82 CURVE SMOOTH",
"142 97 OFFCURVE",
"153 114 OFFCURVE",
"173 114 CURVE SMOOTH",
"192 114 OFFCURVE",
"205 100 OFFCURVE",
"205 82 CURVE SMOOTH",
"205 67 OFFCURVE",
"195 51 OFFCURVE",
"173 51 CURVE"
);
}
);
width = 562;
}
);
note = uni098C;
unicode = 098C;
},
{
color = 3;
glyphname = uni098F;
lastChange = "2015-10-20 12:37:05 +0000";
layers = (
{
background = {
paths = (
{
closed = 1;
nodes = (
"30 293 OFFCURVE",
"42 332 OFFCURVE",
"67 367 CURVE",
"84 349 LINE",
"67 325 OFFCURVE",
"59 295 OFFCURVE",
"59 260 CURVE SMOOTH",
"59 196 OFFCURVE",
"112 143 OFFCURVE",
"176 143 CURVE SMOOTH",
"193 143 OFFCURVE",
"219 145 OFFCURVE",
"253 148 CURVE SMOOTH",
"287 151 OFFCURVE",
"313 153 OFFCURVE",
"330 153 CURVE SMOOTH",
"358 153 OFFCURVE",
"387 135 OFFCURVE",
"407 106 CURVE",
"407 419 LINE SMOOTH",
"407 434 OFFCURVE",
"398 446 OFFCURVE",
"389 446 CURVE SMOOTH",
"344 446 OFFCURVE",
"252 367 OFFCURVE",
"252 328 CURVE SMOOTH",
"252 320 OFFCURVE",
"253 316 OFFCURVE",
"254 313 CURVE",
"257 318 OFFCURVE",
"267 321 OFFCURVE",
"280 321 CURVE SMOOTH",
"312 321 OFFCURVE",
"338 294 OFFCURVE",
"338 262 CURVE SMOOTH",
"338 230 OFFCURVE",
"307 203 OFFCURVE",
"270 203 CURVE SMOOTH",
"219 203 OFFCURVE",
"179 247 OFFCURVE",
"179 300 CURVE SMOOTH",
"179 388 OFFCURVE",
"285 500 OFFCURVE",
"369 500 CURVE SMOOTH",
"401 500 OFFCURVE",
"452 457 OFFCURVE",
"452 429 CURVE SMOOTH",
"452 -23 LINE",
"427 1 LINE",
"427 46 OFFCURVE",
"396 84 OFFCURVE",
"359 84 CURVE SMOOTH",
"342 84 OFFCURVE",
"316 82 OFFCURVE",
"283 79 CURVE SMOOTH",
"249 76 OFFCURVE",
"223 74 OFFCURVE",
"206 74 CURVE SMOOTH",
"109 74 OFFCURVE",
"30 153 OFFCURVE",
"30 250 CURVE SMOOTH"
);
}
);
};
layerId = "4AE238AB-6A4C-459B-8E99-4D2856E6BBFA";
name = Light;
paths = (
{
closed = 1;
nodes = (
"523 -12 OFFCURVE",
"522 9 OFFCURVE",
"522 42 CURVE SMOOTH",
"525 468 LINE SMOOTH",
"526 546 OFFCURVE",
"516 595 OFFCURVE",
"457 595 CURVE SMOOTH",
"354 595 OFFCURVE",
"192 443 OFFCURVE",
"192 326 CURVE SMOOTH",
"192 274 OFFCURVE",
"223 240 OFFCURVE",
"269 240 CURVE SMOOTH",
"306 240 OFFCURVE",
"340 263 OFFCURVE",
"340 307 CURVE SMOOTH",
"340 346 OFFCURVE",
"312 377 OFFCURVE",
"272 377 CURVE SMOOTH",
"253 377 OFFCURVE",
"239 370 OFFCURVE",
"227 356 CURVE",
"233 353 LINE",
"257 454 OFFCURVE",
"390 566 OFFCURVE",
"452 566 CURVE SMOOTH",
"484 566 OFFCURVE",
"485 535 OFFCURVE",
"486 468 CURVE SMOOTH",
"486 456 OFFCURVE",
"487 103 OFFCURVE",
"487 86 CURVE",
"495 88 LINE",
"469 116 OFFCURVE",
"429 137 OFFCURVE",
"379 137 CURVE SMOOTH",
"320 137 OFFCURVE",
"278 107 OFFCURVE",
"216 107 CURVE SMOOTH",
"141 107 OFFCURVE",
"72 152 OFFCURVE",
"72 241 CURVE SMOOTH",
"72 305 OFFCURVE",
"107 341 OFFCURVE",
"107 364 CURVE SMOOTH",
"107 375 OFFCURVE",
"100 380 OFFCURVE",
"92 380 CURVE SMOOTH",
"62 380 OFFCURVE",
"37 300 OFFCURVE",
"37 243 CURVE SMOOTH",
"37 139 OFFCURVE",
"118 65 OFFCURVE",
"216 65 CURVE SMOOTH",
"282 65 OFFCURVE",
"322 99 OFFCURVE",
"384 99 CURVE SMOOTH",
"433 99 OFFCURVE",
"484 78 OFFCURVE",
"487 27 CURVE SMOOTH",
"488 9 OFFCURVE",
"490 -12 OFFCURVE",
"506 -12 CURVE SMOOTH"
);
},
{
closed = 1;
nodes = (
"250 272 OFFCURVE",
"231 285 OFFCURVE",
"231 309 CURVE SMOOTH",
"231 333 OFFCURVE",
"249 349 OFFCURVE",
"270 349 CURVE SMOOTH",
"294 349 OFFCURVE",
"306 328 OFFCURVE",
"306 308 CURVE SMOOTH",
"306 285 OFFCURVE",
"289 272 OFFCURVE",
"270 272 CURVE SMOOTH"
);
}
);
width = 598;
},
{
layerId = "73A23EC2-8D63-4625-BFCF-17D5F08E21CD";
name = Bold;
paths = (
{
closed = 1;
nodes = (
"513 -12 OFFCURVE",
"522 6 OFFCURVE",
"522 42 CURVE SMOOTH",
"527 468 LINE SMOOTH",
"528 546 OFFCURVE",
"513 595 OFFCURVE",
"430 595 CURVE SMOOTH",
"310 595 OFFCURVE",
"162 447 OFFCURVE",
"162 322 CURVE SMOOTH",
"162 262 OFFCURVE",
"198 213 OFFCURVE",
"262 213 CURVE SMOOTH",
"325 213 OFFCURVE",
"358 262 OFFCURVE",
"358 306 CURVE SMOOTH",
"358 345 OFFCURVE",
"334 396 OFFCURVE",
"265 396 CURVE SMOOTH",
"246 396 OFFCURVE",
"225 386 OFFCURVE",
"210 369 CURVE",
"241 365 LINE",
"270 455 OFFCURVE",
"362 521 OFFCURVE",
"414 521 CURVE SMOOTH",
"446 521 OFFCURVE",
"447 500 OFFCURVE",
"448 433 CURVE SMOOTH",
"448 421 OFFCURVE",
"447 114 OFFCURVE",
"447 97 CURVE",
"469 110 LINE",
"443 138 OFFCURVE",
"404 160 OFFCURVE",
"364 160 CURVE SMOOTH",
"300 160 OFFCURVE",
"268 122 OFFCURVE",
"206 122 CURVE SMOOTH",
"141 122 OFFCURVE",
"85 152 OFFCURVE",
"85 232 CURVE SMOOTH",
"85 293 OFFCURVE",
"110 312 OFFCURVE",
"110 345 CURVE SMOOTH",
"110 375 OFFCURVE",
"92 380 OFFCURVE",
"79 380 CURVE SMOOTH",
"41 380 OFFCURVE",
"13 300 OFFCURVE",
"13 243 CURVE SMOOTH",
"13 139 OFFCURVE",
"73 50 OFFCURVE",
"196 50 CURVE SMOOTH",
"262 50 OFFCURVE",
"302 87 OFFCURVE",
"364 87 CURVE SMOOTH",
"404 87 OFFCURVE",
"447 78 OFFCURVE",
"447 38 CURVE SMOOTH",
"447 6 OFFCURVE",
"467 -12 OFFCURVE",
"486 -12 CURVE SMOOTH"
);
},
{
closed = 1;
nodes = (
"246 271 OFFCURVE",
"227 284 OFFCURVE",
"227 308 CURVE SMOOTH",
"227 329 OFFCURVE",
"244 345 OFFCURVE",
"265 345 CURVE SMOOTH",
"288 345 OFFCURVE",
"302 329 OFFCURVE",
"302 308 CURVE SMOOTH",
"302 284 OFFCURVE",
"285 271 OFFCURVE",
"266 271 CURVE SMOOTH"
);
}
);
width = 598;
}
);
note = uni098F;
unicode = 098F;
},
{
color = 3;
glyphname = uni0990;
lastChange = "2015-10-20 12:37:05 +0000";
layers = (
{
background = {
paths = (
{
closed = 1;
nodes = (
"30 292 OFFCURVE",
"41 329 OFFCURVE",
"64 362 CURVE",
"83 350 LINE",
"68 323 OFFCURVE",
"60 293 OFFCURVE",
"60 259 CURVE SMOOTH",
"60 195 OFFCURVE",
"112 143 OFFCURVE",
"176 143 CURVE SMOOTH",
"193 143 OFFCURVE",
"219 145 OFFCURVE",
"253 148 CURVE SMOOTH",
"287 151 OFFCURVE",
"313 153 OFFCURVE",
"330 153 CURVE SMOOTH",
"357 153 OFFCURVE",
"385 135 OFFCURVE",
"405 106 CURVE",
"405 419 LINE SMOOTH",
"405 434 OFFCURVE",
"396 446 OFFCURVE",
"387 446 CURVE SMOOTH",
"342 446 OFFCURVE",
"250 363 OFFCURVE",
"250 323 CURVE SMOOTH",
"250 318 OFFCURVE",
"251 315 OFFCURVE",
"252 313 CURVE",
"255 318 OFFCURVE",
"265 321 OFFCURVE",
"278 321 CURVE SMOOTH",
"311 321 OFFCURVE",
"339 294 OFFCURVE",
"339 262 CURVE SMOOTH",
"339 230 OFFCURVE",
"307 203 OFFCURVE",
"268 203 CURVE SMOOTH",
"219 203 OFFCURVE",
"179 247 OFFCURVE",
"179 300 CURVE SMOOTH",
"179 383 OFFCURVE",
"290 500 OFFCURVE",
"367 500 CURVE SMOOTH",
"399 500 OFFCURVE",
"450 457 OFFCURVE",
"450 429 CURVE SMOOTH",
"450 391 LINE",
"477 391 OFFCURVE",
"499 413 OFFCURVE",
"499 438 CURVE SMOOTH",
"499 485 OFFCURVE",
"433 536 OFFCURVE",
"337 561 CURVE SMOOTH",
"237 588 OFFCURVE",
"167 636 OFFCURVE",
"167 677 CURVE SMOOTH",
"167 705 OFFCURVE",
"178 732 OFFCURVE",
"198 748 CURVE",
"244 737 LINE",
"215 726 OFFCURVE",
"196 708 OFFCURVE",
"196 691 CURVE SMOOTH",
"196 676 OFFCURVE",
"213 661 OFFCURVE",
"247 648 CURVE",
"378 609 LINE SMOOTH",
"466 585 OFFCURVE",
"528 519 OFFCURVE",
"528 448 CURVE SMOOTH",
"528 407 OFFCURVE",
"512 372 OFFCURVE",
"487 357 CURVE SMOOTH",
"464 344 OFFCURVE",
"450 326 OFFCURVE",
"450 310 CURVE SMOOTH",
"450 -23 LINE",
"425 1 LINE",
"425 46 OFFCURVE",
"394 84 OFFCURVE",
"357 84 CURVE SMOOTH",
"340 84 OFFCURVE",
"314 82 OFFCURVE",
"281 79 CURVE SMOOTH",
"247 76 OFFCURVE",
"221 74 OFFCURVE",
"204 74 CURVE SMOOTH",
"108 74 OFFCURVE",
"30 153 OFFCURVE",
"30 250 CURVE SMOOTH"
);
}
);
};
layerId = "4AE238AB-6A4C-459B-8E99-4D2856E6BBFA";
name = Light;
paths = (
{
closed = 1;
nodes = (
"523 -12 OFFCURVE",
"522 9 OFFCURVE",
"522 42 CURVE SMOOTH",
"525 468 LINE SMOOTH",
"526 546 OFFCURVE",
"516 595 OFFCURVE",
"457 595 CURVE SMOOTH",
"354 595 OFFCURVE",
"192 443 OFFCURVE",
"192 326 CURVE SMOOTH",
"192 274 OFFCURVE",
"223 240 OFFCURVE",
"269 240 CURVE SMOOTH",
"306 240 OFFCURVE",
"340 263 OFFCURVE",
"340 307 CURVE SMOOTH",
"340 346 OFFCURVE",
"312 377 OFFCURVE",
"272 377 CURVE SMOOTH",
"253 377 OFFCURVE",
"239 370 OFFCURVE",
"227 356 CURVE",
"233 353 LINE",
"257 454 OFFCURVE",
"390 566 OFFCURVE",
"452 566 CURVE SMOOTH",
"484 566 OFFCURVE",
"485 535 OFFCURVE",
"486 468 CURVE SMOOTH",
"486 456 OFFCURVE",
"487 103 OFFCURVE",
"487 86 CURVE",
"495 88 LINE",
"469 116 OFFCURVE",
"429 137 OFFCURVE",
"379 137 CURVE SMOOTH",
"320 137 OFFCURVE",
"278 107 OFFCURVE",
"216 107 CURVE SMOOTH",
"141 107 OFFCURVE",
"72 152 OFFCURVE",
"72 241 CURVE SMOOTH",
"72 305 OFFCURVE",
"107 341 OFFCURVE",
"107 364 CURVE SMOOTH",
"107 375 OFFCURVE",
"100 380 OFFCURVE",
"92 380 CURVE SMOOTH",
"62 380 OFFCURVE",
"37 300 OFFCURVE",
"37 243 CURVE SMOOTH",
"37 139 OFFCURVE",
"118 65 OFFCURVE",
"216 65 CURVE SMOOTH",
"282 65 OFFCURVE",
"322 99 OFFCURVE",
"384 99 CURVE SMOOTH",
"433 99 OFFCURVE",
"484 78 OFFCURVE",
"487 27 CURVE SMOOTH",
"488 9 OFFCURVE",
"490 -12 OFFCURVE",
"506 -12 CURVE SMOOTH"
);
},
{
closed = 1;
nodes = (
"250 272 OFFCURVE",
"231 285 OFFCURVE",
"231 309 CURVE SMOOTH",
"231 333 OFFCURVE",
"249 349 OFFCURVE",
"270 349 CURVE SMOOTH",
"294 349 OFFCURVE",
"306 328 OFFCURVE",
"306 308 CURVE SMOOTH",
"306 285 OFFCURVE",
"289 272 OFFCURVE",
"270 272 CURVE SMOOTH"
);
},
{
closed = 1;
nodes = (
"599 317 OFFCURVE",
"666 395 OFFCURVE",
"666 501 CURVE SMOOTH",
"666 636 OFFCURVE",
"559 680 OFFCURVE",
"408 739 CURVE SMOOTH",
"343 765 OFFCURVE",
"299 797 OFFCURVE",
"297 870 CURVE SMOOTH",
"297 881 OFFCURVE",
"296 893 OFFCURVE",
"282 893 CURVE SMOOTH",
"264 893 OFFCURVE",
"261 876 OFFCURVE",
"261 858 CURVE SMOOTH",
"261 786 OFFCURVE",
"308 748 OFFCURVE",
"406 705 CURVE SMOOTH",
"519 655 OFFCURVE",
"635 624 OFFCURVE",
"635 503 CURVE SMOOTH",
"635 425 OFFCURVE",
"587 363 OFFCURVE",
"495 330 CURVE",
"508 291 LINE"
);
}
);
width = 700;
},
{
layerId = "73A23EC2-8D63-4625-BFCF-17D5F08E21CD";
name = Bold;
paths = (
{
closed = 1;
nodes = (
"571 270 OFFCURVE",
"680 360 OFFCURVE",
"680 503 CURVE SMOOTH",
"680 642 OFFCURVE",
"578 685 OFFCURVE",
"437 743 CURVE SMOOTH",
"355 777 OFFCURVE",
"313 797 OFFCURVE",
"306 853 CURVE SMOOTH",
"303 881 OFFCURVE",
"299 910 OFFCURVE",
"266 910 CURVE SMOOTH",
"239 910 OFFCURVE",
"228 890 OFFCURVE",
"228 854 CURVE SMOOTH",
"228 762 OFFCURVE",
"301 722 OFFCURVE",
"409 680 CURVE SMOOTH",
"504 643 OFFCURVE",
"612 612 OFFCURVE",
"612 496 CURVE SMOOTH",
"612 428 OFFCURVE",
"573 365 OFFCURVE",
"478 335 CURVE",
"478 243 LINE"
);
},
{
closed = 1;
nodes = (
"513 -12 OFFCURVE",
"522 6 OFFCURVE",
"522 42 CURVE SMOOTH",
"527 468 LINE SMOOTH",
"528 546 OFFCURVE",
"513 595 OFFCURVE",
"430 595 CURVE SMOOTH",
"310 595 OFFCURVE",
"162 447 OFFCURVE",
"162 322 CURVE SMOOTH",
"162 262 OFFCURVE",
"198 213 OFFCURVE",
"262 213 CURVE SMOOTH",
"325 213 OFFCURVE",
"358 262 OFFCURVE",
"358 306 CURVE SMOOTH",
"358 345 OFFCURVE",
"334 396 OFFCURVE",
"265 396 CURVE SMOOTH",
"246 396 OFFCURVE",
"225 386 OFFCURVE",
"210 369 CURVE",
"241 365 LINE",
"270 455 OFFCURVE",
"362 521 OFFCURVE",
"414 521 CURVE SMOOTH",
"446 521 OFFCURVE",
"447 500 OFFCURVE",
"448 433 CURVE SMOOTH",
"448 421 OFFCURVE",
"447 114 OFFCURVE",
"447 97 CURVE",
"469 110 LINE",
"443 138 OFFCURVE",
"404 160 OFFCURVE",
"364 160 CURVE SMOOTH",
"300 160 OFFCURVE",
"268 122 OFFCURVE",
"206 122 CURVE SMOOTH",
"141 122 OFFCURVE",
"85 152 OFFCURVE",
"85 232 CURVE SMOOTH",
"85 293 OFFCURVE",
"110 312 OFFCURVE",
"110 345 CURVE SMOOTH",
"110 375 OFFCURVE",
"92 380 OFFCURVE",
"79 380 CURVE SMOOTH",
"41 380 OFFCURVE",
"13 300 OFFCURVE",
"13 243 CURVE SMOOTH",
"13 139 OFFCURVE",
"73 50 OFFCURVE",
"196 50 CURVE SMOOTH",
"262 50 OFFCURVE",
"302 87 OFFCURVE",
"364 87 CURVE SMOOTH",
"404 87 OFFCURVE",
"447 78 OFFCURVE",
"447 38 CURVE SMOOTH",
"447 6 OFFCURVE",
"467 -12 OFFCURVE",
"486 -12 CURVE SMOOTH"
);
},
{
closed = 1;
nodes = (
"246 271 OFFCURVE",
"227 284 OFFCURVE",
"227 308 CURVE SMOOTH",
"227 329 OFFCURVE",
"244 345 OFFCURVE",
"265 345 CURVE SMOOTH",
"288 345 OFFCURVE",
"302 329 OFFCURVE",
"302 308 CURVE SMOOTH",
"302 284 OFFCURVE",
"285 271 OFFCURVE",
"266 271 CURVE SMOOTH"
);
}
);
width = 700;
}
);
note = uni0990;
unicode = 0990;
},
{
color = 3;
glyphname = uni0993;
lastChange = "2015-10-20 12:37:05 +0000";
layers = (
{
background = {
paths = (
{
closed = 1;
nodes = (
"53 409 LINE",
"101 229 OFFCURVE",
"218 103 OFFCURVE",
"338 103 CURVE SMOOTH",
"398 103 OFFCURVE",
"446 142 OFFCURVE",
"446 190 CURVE SMOOTH",
"446 214 OFFCURVE",
"435 237 OFFCURVE",
"418 252 CURVE",
"407 237 OFFCURVE",
"389 228 OFFCURVE",
"368 228 CURVE SMOOTH",
"332 228 OFFCURVE",
"302 258 OFFCURVE",
"302 295 CURVE SMOOTH",
"302 331 OFFCURVE",
"332 361 OFFCURVE",
"368 361 CURVE SMOOTH",
"383 361 OFFCURVE",
"395 356 OFFCURVE",
"403 347 CURVE",
"418 364 OFFCURVE",
"426 386 OFFCURVE",
"426 409 CURVE SMOOTH",
"426 434 OFFCURVE",
"400 456 OFFCURVE",
"368 456 CURVE SMOOTH",
"313 456 OFFCURVE",
"261 426 OFFCURVE",
"232 375 CURVE",
"255 368 OFFCURVE",
"271 346 OFFCURVE",
"271 319 CURVE SMOOTH",
"271 291 OFFCURVE",
"248 268 OFFCURVE",
"219 268 CURVE SMOOTH",
"183 268 OFFCURVE",
"153 300 OFFCURVE",
"153 339 CURVE SMOOTH",
"153 428 OFFCURVE",
"240 500 OFFCURVE",
"348 500 CURVE SMOOTH",
"415 500 OFFCURVE",
"469 460 OFFCURVE",
"469 409 CURVE SMOOTH",
"469 366 OFFCURVE",
"449 327 OFFCURVE",
"416 300 CURVE",
"461 277 OFFCURVE",
"489 227 OFFCURVE",
"489 171 CURVE SMOOTH",
"489 94 OFFCURVE",
"422 30 OFFCURVE",
"338 30 CURVE SMOOTH",
"205 30 OFFCURVE",
"72 199 OFFCURVE",
"17 438 CURVE"
);
}
);
};
layerId = "4AE238AB-6A4C-459B-8E99-4D2856E6BBFA";
name = Light;
paths = (
{
closed = 1;
nodes = (
"427 52 OFFCURVE",
"529 95 OFFCURVE",
"529 219 CURVE SMOOTH",
"529 315 OFFCURVE",
"463 390 OFFCURVE",
"382 390 CURVE SMOOTH",
"338 390 OFFCURVE",
"312 362 OFFCURVE",
"312 327 CURVE SMOOTH",
"312 289 OFFCURVE",
"342 266 OFFCURVE",
"378 266 CURVE SMOOTH",
"449 266 OFFCURVE",
"503 358 OFFCURVE",
"503 441 CURVE SMOOTH",
"503 535 OFFCURVE",
"434 597 OFFCURVE",
"343 597 CURVE SMOOTH",
"232 597 OFFCURVE",
"142 506 OFFCURVE",
"142 422 CURVE SMOOTH",
"142 374 OFFCURVE",
"172 343 OFFCURVE",
"214 343 CURVE SMOOTH",
"255 343 OFFCURVE",
"287 372 OFFCURVE",
"287 415 CURVE SMOOTH",
"287 468 OFFCURVE",
"227 501 OFFCURVE",
"187 472 CURVE",
"193 468 LINE",
"218 518 OFFCURVE",
"281 562 OFFCURVE",
"347 562 CURVE SMOOTH",
"407 562 OFFCURVE",
"466 527 OFFCURVE",
"466 444 CURVE SMOOTH",
"466 383 OFFCURVE",
"430 301 OFFCURVE",
"377 301 CURVE SMOOTH",
"357 301 OFFCURVE",
"346 314 OFFCURVE",
"346 327 CURVE SMOOTH",
"346 342 OFFCURVE",
"359 357 OFFCURVE",
"386 357 CURVE SMOOTH",
"438 357 OFFCURVE",
"493 301 OFFCURVE",
"493 230 CURVE SMOOTH",
"493 140 OFFCURVE",
"427 93 OFFCURVE",
"347 93 CURVE SMOOTH",
"157 93 OFFCURVE",
"65 417 OFFCURVE",
"54 460 CURVE SMOOTH",
"49 481 OFFCURVE",
"43 485 OFFCURVE",
"36 485 CURVE SMOOTH",
"27 485 OFFCURVE",
"20 478 OFFCURVE",
"20 466 CURVE SMOOTH",
"20 429 OFFCURVE",
"127 52 OFFCURVE",
"351 52 CURVE SMOOTH"
);
},
{
closed = 1;
nodes = (
"201 379 OFFCURVE",
"180 390 OFFCURVE",
"180 418 CURVE SMOOTH",
"180 443 OFFCURVE",
"201 455 OFFCURVE",
"215 455 CURVE SMOOTH",
"235 455 OFFCURVE",
"251 443 OFFCURVE",
"251 417 CURVE SMOOTH",
"251 393 OFFCURVE",
"235 379 OFFCURVE",
"215 379 CURVE SMOOTH"
);
}
);
width = 577;
},
{
layerId = "73A23EC2-8D63-4625-BFCF-17D5F08E21CD";
name = Bold;
paths = (
{
closed = 1;
nodes = (
"440 39 OFFCURVE",
"534 107 OFFCURVE",
"534 224 CURVE SMOOTH",
"534 323 OFFCURVE",
"460 392 OFFCURVE",
"376 392 CURVE SMOOTH",
"312 392 OFFCURVE",
"273 352 OFFCURVE",
"273 307 CURVE SMOOTH",
"273 260 OFFCURVE",
"317 227 OFFCURVE",
"363 227 CURVE SMOOTH",
"451 227 OFFCURVE",
"507 350 OFFCURVE",
"507 434 CURVE SMOOTH",
"507 533 OFFCURVE",
"430 597 OFFCURVE",
"326 597 CURVE SMOOTH",
"203 597 OFFCURVE",
"113 506 OFFCURVE",
"113 422 CURVE SMOOTH",
"113 362 OFFCURVE",
"158 325 OFFCURVE",
"206 325 CURVE SMOOTH",
"258 325 OFFCURVE",
"293 370 OFFCURVE",
"293 416 CURVE SMOOTH",
"293 466 OFFCURVE",
"250 495 OFFCURVE",
"202 495 CURVE",
"195 467 LINE",
"225 515 OFFCURVE",
"278 532 OFFCURVE",
"324 532 CURVE SMOOTH",
"371 532 OFFCURVE",
"435 507 OFFCURVE",
"435 433 CURVE SMOOTH",
"435 372 OFFCURVE",
"397 289 OFFCURVE",
"353 289 CURVE SMOOTH",
"345 289 OFFCURVE",
"331 292 OFFCURVE",
"331 305 CURVE SMOOTH",
"331 315 OFFCURVE",
"340 329 OFFCURVE",
"365 329 CURVE SMOOTH",
"406 329 OFFCURVE",
"461 291 OFFCURVE",
"461 223 CURVE SMOOTH",
"461 145 OFFCURVE",
"381 115 OFFCURVE",
"322 115 CURVE SMOOTH",
"158 115 OFFCURVE",
"78 336 OFFCURVE",
"67 440 CURVE SMOOTH",
"64 466 OFFCURVE",
"53 485 OFFCURVE",
"30 485 CURVE SMOOTH",
"19 485 OFFCURVE",
"-1 482 OFFCURVE",
"-1 443 CURVE SMOOTH",
"-1 355 OFFCURVE",
"97 39 OFFCURVE",
"325 39 CURVE SMOOTH"
);
},
{
closed = 1;
nodes = (
"190 383 OFFCURVE",
"169 393 OFFCURVE",
"169 417 CURVE SMOOTH",
"169 441 OFFCURVE",
"189 450 OFFCURVE",
"202 450 CURVE SMOOTH",
"216 450 OFFCURVE",
"236 441 OFFCURVE",
"236 416 CURVE SMOOTH",
"236 392 OFFCURVE",
"217 383 OFFCURVE",
"204 383 CURVE SMOOTH"
);
}
);
width = 577;
}
);
note = uni0993;
unicode = 0993;
},
{
color = 3;
glyphname = uni0994;
lastChange = "2015-10-20 12:37:05 +0000";
layers = (
{
background = {
paths = (
{
closed = 1;
nodes = (
"54 409 LINE",
"102 229 OFFCURVE",
"219 103 OFFCURVE",
"339 103 CURVE SMOOTH",
"399 103 OFFCURVE",
"447 142 OFFCURVE",
"447 190 CURVE SMOOTH",
"447 214 OFFCURVE",
"436 237 OFFCURVE",
"419 252 CURVE",
"408 237 OFFCURVE",
"390 228 OFFCURVE",
"369 228 CURVE SMOOTH",
"333 228 OFFCURVE",
"303 258 OFFCURVE",
"303 295 CURVE SMOOTH",
"303 331 OFFCURVE",
"333 361 OFFCURVE",
"369 361 CURVE SMOOTH",
"384 361 OFFCURVE",
"396 356 OFFCURVE",
"404 347 CURVE",
"419 364 OFFCURVE",
"427 386 OFFCURVE",
"427 409 CURVE SMOOTH",
"427 434 OFFCURVE",
"401 456 OFFCURVE",
"369 456 CURVE SMOOTH",
"314 456 OFFCURVE",
"262 426 OFFCURVE",
"233 375 CURVE",
"256 368 OFFCURVE",
"272 346 OFFCURVE",
"272 319 CURVE SMOOTH",
"272 291 OFFCURVE",
"249 268 OFFCURVE",
"220 268 CURVE SMOOTH",
"184 268 OFFCURVE",
"154 300 OFFCURVE",
"154 339 CURVE SMOOTH",
"154 428 OFFCURVE",
"241 500 OFFCURVE",
"349 500 CURVE SMOOTH",
"414 500 OFFCURVE",
"468 458 OFFCURVE",
"468 406 CURVE SMOOTH",
"468 397 OFFCURVE",
"463 380 OFFCURVE",
"454 355 CURVE",
"477 371 OFFCURVE",
"491 404 OFFCURVE",
"491 443 CURVE SMOOTH",
"491 494 OFFCURVE",
"429 546 OFFCURVE",
"338 570 CURVE",
"223 590 OFFCURVE",
"139 639 OFFCURVE",
"139 687 CURVE SMOOTH",
"139 714 OFFCURVE",
"151 736 OFFCURVE",
"171 748 CURVE",
"225 726 LINE",
"193 723 OFFCURVE",
"168 711 OFFCURVE",
"168 696 CURVE SMOOTH",
"168 675 OFFCURVE",
"220 651 OFFCURVE",
"324 624 CURVE SMOOTH",
"380 609 LINE SMOOTH",
"463 586 OFFCURVE",
"520 529 OFFCURVE",
"520 468 CURVE SMOOTH",
"520 396 OFFCURVE",
"484 330 OFFCURVE",
"427 295 CURVE",
"467 264 OFFCURVE",
"490 218 OFFCURVE",
"490 171 CURVE SMOOTH",
"490 94 OFFCURVE",
"423 30 OFFCURVE",
"340 30 CURVE SMOOTH",
"207 30 OFFCURVE",
"72 199 OFFCURVE",
"17 438 CURVE"
);
}
);
};
layerId = "4AE238AB-6A4C-459B-8E99-4D2856E6BBFA";
name = Light;
paths = (
{
closed = 1;
nodes = (
"552 311 OFFCURVE",
"634 377 OFFCURVE",
"634 505 CURVE SMOOTH",
"634 634 OFFCURVE",
"521 682 OFFCURVE",
"373 739 CURVE SMOOTH",
"305 765 OFFCURVE",
"265 799 OFFCURVE",
"262 870 CURVE SMOOTH",
"262 881 OFFCURVE",
"261 893 OFFCURVE",
"247 893 CURVE SMOOTH",
"229 893 OFFCURVE",
"226 876 OFFCURVE",
"226 858 CURVE SMOOTH",
"226 784 OFFCURVE",
"277 746 OFFCURVE",
"371 705 CURVE SMOOTH",
"489 653 OFFCURVE",
"603 623 OFFCURVE",
"603 502 CURVE SMOOTH",
"603 424 OFFCURVE",
"549 347 OFFCURVE",
"471 347 CURVE",
"471 311 LINE"
);
},
{
closed = 1;
nodes = (
"427 52 OFFCURVE",
"529 95 OFFCURVE",
"529 219 CURVE SMOOTH",
"529 315 OFFCURVE",
"463 390 OFFCURVE",
"382 390 CURVE SMOOTH",
"338 390 OFFCURVE",
"312 362 OFFCURVE",
"312 327 CURVE SMOOTH",
"312 289 OFFCURVE",
"342 266 OFFCURVE",
"378 266 CURVE SMOOTH",
"449 266 OFFCURVE",
"503 358 OFFCURVE",
"503 441 CURVE SMOOTH",
"503 535 OFFCURVE",
"434 597 OFFCURVE",
"343 597 CURVE SMOOTH",
"232 597 OFFCURVE",
"142 506 OFFCURVE",
"142 422 CURVE SMOOTH",
"142 374 OFFCURVE",
"172 343 OFFCURVE",
"214 343 CURVE SMOOTH",
"255 343 OFFCURVE",
"287 372 OFFCURVE",
"287 415 CURVE SMOOTH",
"287 468 OFFCURVE",
"227 501 OFFCURVE",
"187 472 CURVE",
"193 468 LINE",
"218 518 OFFCURVE",
"281 562 OFFCURVE",
"347 562 CURVE SMOOTH",
"407 562 OFFCURVE",
"466 527 OFFCURVE",
"466 444 CURVE SMOOTH",
"466 383 OFFCURVE",
"430 301 OFFCURVE",
"377 301 CURVE SMOOTH",
"357 301 OFFCURVE",
"346 314 OFFCURVE",
"346 327 CURVE SMOOTH",
"346 342 OFFCURVE",
"359 357 OFFCURVE",
"386 357 CURVE SMOOTH",
"438 357 OFFCURVE",
"493 301 OFFCURVE",
"493 230 CURVE SMOOTH",
"493 140 OFFCURVE",
"427 93 OFFCURVE",
"347 93 CURVE SMOOTH",
"157 93 OFFCURVE",
"65 417 OFFCURVE",
"54 460 CURVE SMOOTH",
"49 481 OFFCURVE",
"43 485 OFFCURVE",
"36 485 CURVE SMOOTH",
"27 485 OFFCURVE",
"20 478 OFFCURVE",
"20 466 CURVE SMOOTH",
"20 429 OFFCURVE",
"127 52 OFFCURVE",
"351 52 CURVE SMOOTH"
);
},
{
closed = 1;
nodes = (
"201 379 OFFCURVE",
"180 390 OFFCURVE",
"180 418 CURVE SMOOTH",
"180 443 OFFCURVE",
"201 455 OFFCURVE",
"215 455 CURVE SMOOTH",
"235 455 OFFCURVE",
"251 443 OFFCURVE",
"251 417 CURVE SMOOTH",
"251 393 OFFCURVE",
"235 379 OFFCURVE",
"215 379 CURVE SMOOTH"
);
}
);
width = 660;
},
{
layerId = "73A23EC2-8D63-4625-BFCF-17D5F08E21CD";
name = Bold;
paths = (
{
closed = 1;
nodes = (
"581 292 OFFCURVE",
"650 390 OFFCURVE",
"650 505 CURVE SMOOTH",
"650 633 OFFCURVE",
"557 698 OFFCURVE",
"436 734 CURVE SMOOTH",
"367 754 OFFCURVE",
"278 772 OFFCURVE",
"277 844 CURVE SMOOTH",
"277 873 OFFCURVE",
"275 902 OFFCURVE",
"243 902 CURVE SMOOTH",
"225 902 OFFCURVE",
"205 893 OFFCURVE",
"205 844 CURVE SMOOTH",
"205 714 OFFCURVE",
"348 686 OFFCURVE",
"414 667 CURVE SMOOTH",
"517 638 OFFCURVE",
"578 564 OFFCURVE",
"578 500 CURVE SMOOTH",
"578 444 OFFCURVE",
"551 353 OFFCURVE",
"469 353 CURVE",
"456 292 LINE"
);
},
{
closed = 1;
nodes = (
"450 39 OFFCURVE",
"544 107 OFFCURVE",
"544 224 CURVE SMOOTH",
"544 323 OFFCURVE",
"470 392 OFFCURVE",
"386 392 CURVE SMOOTH",
"322 392 OFFCURVE",
"283 352 OFFCURVE",
"283 307 CURVE SMOOTH",
"283 260 OFFCURVE",
"327 227 OFFCURVE",
"373 227 CURVE SMOOTH",
"461 227 OFFCURVE",
"517 350 OFFCURVE",
"517 434 CURVE SMOOTH",
"517 533 OFFCURVE",
"440 597 OFFCURVE",
"336 597 CURVE SMOOTH",
"213 597 OFFCURVE",
"123 506 OFFCURVE",
"123 422 CURVE SMOOTH",
"123 362 OFFCURVE",
"168 325 OFFCURVE",
"216 325 CURVE SMOOTH",
"268 325 OFFCURVE",
"303 370 OFFCURVE",
"303 416 CURVE SMOOTH",
"303 466 OFFCURVE",
"260 495 OFFCURVE",
"212 495 CURVE",
"205 467 LINE",
"235 515 OFFCURVE",
"288 532 OFFCURVE",
"334 532 CURVE SMOOTH",
"381 532 OFFCURVE",
"445 507 OFFCURVE",
"445 433 CURVE SMOOTH",
"445 372 OFFCURVE",
"407 289 OFFCURVE",
"363 289 CURVE SMOOTH",
"355 289 OFFCURVE",
"341 292 OFFCURVE",
"341 305 CURVE SMOOTH",
"341 315 OFFCURVE",
"350 329 OFFCURVE",
"375 329 CURVE SMOOTH",
"416 329 OFFCURVE",
"471 291 OFFCURVE",
"471 223 CURVE SMOOTH",
"471 145 OFFCURVE",
"391 115 OFFCURVE",
"332 115 CURVE SMOOTH",
"168 115 OFFCURVE",
"88 336 OFFCURVE",
"77 440 CURVE SMOOTH",
"74 466 OFFCURVE",
"63 485 OFFCURVE",
"40 485 CURVE SMOOTH",
"29 485 OFFCURVE",
"9 482 OFFCURVE",
"9 443 CURVE SMOOTH",
"9 355 OFFCURVE",
"107 39 OFFCURVE",
"335 39 CURVE SMOOTH"
);
},
{
closed = 1;
nodes = (
"200 383 OFFCURVE",
"179 393 OFFCURVE",
"179 417 CURVE SMOOTH",
"179 441 OFFCURVE",
"199 450 OFFCURVE",
"212 450 CURVE SMOOTH",
"226 450 OFFCURVE",
"246 441 OFFCURVE",
"246 416 CURVE SMOOTH",
"246 392 OFFCURVE",
"227 383 OFFCURVE",
"214 383 CURVE SMOOTH"
);
}
);
width = 660;
}
);
note = uni0994;
unicode = 0994;
},
{
color = 3;
glyphname = uni0995;
lastChange = "2015-10-20 12:37:05 +0000";
layers = (
{
background = {
paths = (
{
closed = 1;
nodes = (
"240 370 OFFCURVE",
"151 324 OFFCURVE",
"76 250 CURVE",
"61 278 LINE",
"172 252 OFFCURVE",
"269 162 OFFCURVE",
"308 63 CURVE",
"291 67 LINE",
"291 468 LINE",
"331 468 LINE",
"331 0 LINE",
"306 0 LINE",
"285 109 OFFCURVE",
"190 195 OFFCURVE",
"68 217 CURVE",
"23 279 LINE",
"109 364 OFFCURVE",
"226 422 OFFCURVE",
"316 422 CURVE SMOOTH",
"425 422 OFFCURVE",
"499 337 OFFCURVE",
"499 250 CURVE SMOOTH",
"499 193 OFFCURVE",
"468 153 OFFCURVE",
"430 153 CURVE SMOOTH",
"402 153 OFFCURVE",
"377 175 OFFCURVE",
"377 203 CURVE SMOOTH",
"377 229 OFFCURVE",
"398 250 OFFCURVE",
"426 250 CURVE SMOOTH",
"456 250 OFFCURVE",
"476 226 OFFCURVE",
"477 196 CURVE",
"445 195 LINE",
"460 208 OFFCURVE",
"472 230 OFFCURVE",
"472 258 CURVE SMOOTH",
"472 316 OFFCURVE",
"420 370 OFFCURVE",
"327 370 CURVE SMOOTH"
);
},
{
closed = 1;
nodes = (
"-10 456 LINE",
"-10 491 LINE",
"546 491 LINE",
"546 456 LINE"
);
}
);
};
layerId = "4AE238AB-6A4C-459B-8E99-4D2856E6BBFA";
name = Light;
paths = (
{
closed = 1;
nodes = (
"338 -12 CURVE SMOOTH",
"356 -12 OFFCURVE",
"356 12 OFFCURVE",
"356 71 CURVE SMOOTH",
"356 258 OFFCURVE",
"356 374 OFFCURVE",
"358 455 CURVE",
"352 457 LINE",
"381 393 OFFCURVE",
"498 394 OFFCURVE",
"547 360 CURVE SMOOTH",
"577 339 OFFCURVE",
"595 304 OFFCURVE",
"595 271 CURVE SMOOTH",
"595 256 OFFCURVE",
"591 241 OFFCURVE",
"583 229 CURVE",
"589 232 LINE",
"589 264 OFFCURVE",
"565 292 OFFCURVE",
"527 292 CURVE SMOOTH",
"491 292 OFFCURVE",
"466 268 OFFCURVE",
"466 234 CURVE SMOOTH",
"466 199 OFFCURVE",
"494 172 OFFCURVE",
"533 172 CURVE SMOOTH",
"591 172 OFFCURVE",
"625 223 OFFCURVE",
"625 279 CURVE SMOOTH",
"625 320 OFFCURVE",
"606 363 OFFCURVE",
"565 390 CURVE SMOOTH",
"509 427 OFFCURVE",
"426 420 OFFCURVE",
"389 454 CURVE SMOOTH",
"366 476 OFFCURVE",
"363 495 OFFCURVE",
"363 527 CURVE SMOOTH",
"363 542 OFFCURVE",
"364 560 OFFCURVE",
"363 583 CURVE",
"355 569 LINE",
"364 559 OFFCURVE",
"383 554 OFFCURVE",
"403 554 CURVE SMOOTH",
"665 554 LINE SMOOTH",
"672 554 OFFCURVE",
"680 559 OFFCURVE",
"680 570 CURVE SMOOTH",
"680 579 OFFCURVE",
"674 587 OFFCURVE",
"665 587 CURVE SMOOTH",
"389 587 LINE SMOOTH",
"355 587 OFFCURVE",
"370 609 OFFCURVE",
"352 609 CURVE SMOOTH",
"340 609 OFFCURVE",
"332 581 OFFCURVE",
"327 534 CURVE",
"336 549 LINE",
"320 574 OFFCURVE",
"284 587 OFFCURVE",
"236 587 CURVE SMOOTH",
"-24 587 LINE SMOOTH",
"-31 587 OFFCURVE",
"-39 582 OFFCURVE",
"-39 571 CURVE SMOOTH",
"-39 562 OFFCURVE",
"-33 554 OFFCURVE",
"-24 554 CURVE SMOOTH",
"242 554 LINE SMOOTH",
"288 554 OFFCURVE",
"313 539 OFFCURVE",
"313 520 CURVE SMOOTH",
"313 490 OFFCURVE",
"224 441 OFFCURVE",
"29 344 CURVE SMOOTH",
"10 335 OFFCURVE",
"1 320 OFFCURVE",
"1 306 CURVE SMOOTH",
"1 291 OFFCURVE",
"12 277 OFFCURVE",
"31 272 CURVE SMOOTH",
"98 255 OFFCURVE",
"317 154 OFFCURVE",
"317 52 CURVE SMOOTH",
"317 9 OFFCURVE",
"321 -12 OFFCURVE"
);
},
{
closed = 1;
nodes = (
"272 206 OFFCURVE",
"164 280 OFFCURVE",
"26 313 CURVE",
"24 301 LINE",
"172 380 OFFCURVE",
"286 424 OFFCURVE",
"327 477 CURVE",
"322 480 LINE",
"318 393 OFFCURVE",
"317 266 OFFCURVE",
"317 118 CURVE",
"323 125 LINE"
);
},
{
closed = 1;
nodes = (
"513 199 OFFCURVE",
"500 212 OFFCURVE",
"500 232 CURVE SMOOTH",
"500 249 OFFCURVE",
"512 263 OFFCURVE",
"531 263 CURVE SMOOTH",
"550 263 OFFCURVE",
"564 250 OFFCURVE",
"564 231 CURVE SMOOTH",
"564 208 OFFCURVE",
"547 198 OFFCURVE",
"532 198 CURVE"
);
}
);
width = 660;
},
{
layerId = "73A23EC2-8D63-4625-BFCF-17D5F08E21CD";
name = Bold;
paths = (
{
closed = 1;
nodes = (
"372 -12 OFFCURVE",
"378 17 OFFCURVE",
"378 64 CURVE SMOOTH",
"378 414 OFFCURVE",
"380 492 OFFCURVE",
"388 583 CURVE SMOOTH",
"389 597 OFFCURVE",
"384 609 OFFCURVE",
"368 609 CURVE SMOOTH",
"302 609 OFFCURVE",
"300 414 OFFCURVE",
"300 64 CURVE SMOOTH",
"300 12 OFFCURVE",
"319 -12 OFFCURVE",
"344 -12 CURVE SMOOTH"
);
},
{
closed = 1;
nodes = (
"698 577 OFFCURVE",
"689 587 OFFCURVE",
"659 587 CURVE SMOOTH",
"439 587 LINE SMOOTH",
"403 587 OFFCURVE",
"390 585 OFFCURVE",
"387 595 CURVE",
"378 592 LINE",
"378 576 OFFCURVE",
"382 522 OFFCURVE",
"439 522 CURVE SMOOTH",
"659 522 LINE SMOOTH",
"689 522 OFFCURVE",
"698 539 OFFCURVE",
"698 554 CURVE SMOOTH"
);
},
{
closed = 1;
nodes = (
"368 -12 OFFCURVE",
"376 24 OFFCURVE",
"376 46 CURVE SMOOTH",
"376 174 OFFCURVE",
"188 312 OFFCURVE",
"57 312 CURVE",
"65 295 LINE",
"222 370 OFFCURVE",
"336 436 OFFCURVE",
"336 515 CURVE SMOOTH",
"336 560 OFFCURVE",
"307 587 OFFCURVE",
"230 587 CURVE SMOOTH",
"0 587 LINE SMOOTH",
"-17 587 OFFCURVE",
"-30 575 OFFCURVE",
"-30 554 CURVE SMOOTH",
"-30 537 OFFCURVE",
"-19 522 OFFCURVE",
"0 522 CURVE SMOOTH",
"226 522 LINE SMOOTH",
"348 522 OFFCURVE",
"212 451 OFFCURVE",
"46 364 CURVE SMOOTH",
"-19 330 OFFCURVE",
"0 265 OFFCURVE",
"55 249 CURVE SMOOTH",
"104 235 OFFCURVE",
"300 164 OFFCURVE",
"300 64 CURVE SMOOTH",
"300 22 OFFCURVE",
"313 -12 OFFCURVE",
"344 -12 CURVE SMOOTH"
);
},
{
closed = 1;
nodes = (
"472 453 OFFCURVE",
"385 458 OFFCURVE",
"385 544 CURVE",
"336 515 LINE",
"336 421 OFFCURVE",
"426 389 OFFCURVE",
"486 370 CURVE SMOOTH",
"569 344 OFFCURVE",
"566 301 OFFCURVE",
"566 252 CURVE",
"584 252 LINE",
"584 298 OFFCURVE",
"541 318 OFFCURVE",
"506 318 CURVE SMOOTH",
"453 318 OFFCURVE",
"419 280 OFFCURVE",
"419 233 CURVE SMOOTH",
"419 184 OFFCURVE",
"469 149 OFFCURVE",
"515 149 CURVE SMOOTH",
"632 149 OFFCURVE",
"698 363 OFFCURVE",
"532 429 CURVE SMOOTH"
);
},
{
closed = 1;
nodes = (
"474 252 OFFCURVE",
"487 269 OFFCURVE",
"508 269 CURVE SMOOTH",
"525 269 OFFCURVE",
"541 257 OFFCURVE",
"541 236 CURVE SMOOTH",
"541 222 OFFCURVE",
"534 202 OFFCURVE",
"509 202 CURVE SMOOTH",
"484 202 OFFCURVE",
"474 221 OFFCURVE",
"474 235 CURVE SMOOTH"
);
}
);
width = 660;
}
);
note = uni0995;
unicode = 0995;
},
{
color = 3;
glyphname = uni0996;
lastChange = "2015-10-20 12:37:05 +0000";
layers = (
{
background = {
paths = (
{
closed = 1;
nodes = (
"271 357 OFFCURVE",
"184 310 OFFCURVE",
"115 253 CURVE",
"112 273 LINE",
"200 247 OFFCURVE",
"305 173 OFFCURVE",
"344 79 CURVE",
"335 72 LINE",
"335 466 LINE",
"375 466 LINE",
"375 0 LINE",
"350 0 LINE",
"330 118 OFFCURVE",
"215 197 OFFCURVE",
"108 214 CURVE",
"56 283 LINE",
"144 355 OFFCURVE",
"266 416 OFFCURVE",
"353 436 CURVE",
"359 384 LINE"
);
},
{
closed = 1;
nodes = (
"21 456 LINE",
"21 491 LINE",
"455 491 LINE",
"455 456 LINE"
);
}
);
};
layerId = "4AE238AB-6A4C-459B-8E99-4D2856E6BBFA";
name = Light;
paths = (
{
closed = 1;
nodes = (
"439 -12 OFFCURVE",
"442 3 OFFCURVE",
"442 27 CURVE SMOOTH",
"442 279 OFFCURVE",
"439 443 OFFCURVE",
"451 576 CURVE",
"444 574 LINE",
"450 564 OFFCURVE",
"466 554 OFFCURVE",
"487 554 CURVE SMOOTH",
"542 554 LINE SMOOTH",
"551 554 OFFCURVE",
"562 559 OFFCURVE",
"562 570 CURVE SMOOTH",
"562 582 OFFCURVE",
"551 587 OFFCURVE",
"542 587 CURVE SMOOTH",
"475 587 LINE SMOOTH",
"442 587 OFFCURVE",
"456 609 OFFCURVE",
"438 609 CURVE SMOOTH",
"404 609 OFFCURVE",
"403 398 OFFCURVE",
"403 109 CURVE",
"410 120 LINE",
"355 209 OFFCURVE",
"235 270 OFFCURVE",
"177 287 CURVE",
"170 283 LINE",
"273 293 OFFCURVE",
"340 359 OFFCURVE",
"340 448 CURVE SMOOTH",
"341 534 OFFCURVE",
"273 583 OFFCURVE",
"239 583 CURVE SMOOTH",
"202 583 OFFCURVE",
"293 430 OFFCURVE",
"109 430 CURVE",
"109 422 LINE",
"131 431 OFFCURVE",
"154 448 OFFCURVE",
"154 485 CURVE SMOOTH",
"154 526 OFFCURVE",
"119 545 OFFCURVE",
"89 545 CURVE SMOOTH",
"56 545 OFFCURVE",
"26 522 OFFCURVE",
"26 483 CURVE SMOOTH",
"26 429 OFFCURVE",
"82 404 OFFCURVE",
"137 404 CURVE SMOOTH",
"215 404 OFFCURVE",
"276 452 OFFCURVE",
"264 535 CURVE",
"283 518 OFFCURVE",
"305 492 OFFCURVE",
"305 446 CURVE SMOOTH",
"305 328 OFFCURVE",
"182 317 OFFCURVE",
"116 312 CURVE SMOOTH",
"97 311 OFFCURVE",
"88 301 OFFCURVE",
"88 291 CURVE SMOOTH",
"88 281 OFFCURVE",
"98 270 OFFCURVE",
"118 267 CURVE SMOOTH",
"208 254 OFFCURVE",
"403 132 OFFCURVE",
"403 42 CURVE SMOOTH",
"403 22 OFFCURVE",
"405 -12 OFFCURVE",
"424 -12 CURVE SMOOTH"
);
},
{
closed = 1;
nodes = (
"54 464 OFFCURVE",
"54 482 CURVE SMOOTH",
"54 499 OFFCURVE",
"67 514 OFFCURVE",
"88 514 CURVE SMOOTH",
"108 514 OFFCURVE",
"122 499 OFFCURVE",
"122 481 CURVE SMOOTH",
"122 461 OFFCURVE",
"106 446 OFFCURVE",
"88 446 CURVE SMOOTH",
"68 446 OFFCURVE"
);
}
);
width = 542;
},
{
layerId = "73A23EC2-8D63-4625-BFCF-17D5F08E21CD";
name = Bold;
paths = (
{
closed = 1;
nodes = (
"435 -12 OFFCURVE",
"454 0 OFFCURVE",
"454 62 CURVE SMOOTH",
"454 182 OFFCURVE",
"239 258 OFFCURVE",
"163 259 CURVE",
"144 234 LINE",
"261 234 OFFCURVE",
"341 335 OFFCURVE",
"341 422 CURVE SMOOTH",
"341 539 OFFCURVE",
"278 586 OFFCURVE",
"255 586 CURVE SMOOTH",
"240 586 OFFCURVE",
"225 577 OFFCURVE",
"231 548 CURVE SMOOTH",
"244 486 OFFCURVE",
"221 412 OFFCURVE",
"119 412 CURVE",
"137 396 LINE",
"172 419 OFFCURVE",
"182 444 OFFCURVE",
"182 470 CURVE SMOOTH",
"182 511 OFFCURVE",
"149 553 OFFCURVE",
"91 553 CURVE SMOOTH",
"36 553 OFFCURVE",
"2 509 OFFCURVE",
"2 464 CURVE SMOOTH",
"2 393 OFFCURVE",
"57 347 OFFCURVE",
"127 347 CURVE SMOOTH",
"191 347 OFFCURVE",
"289 391 OFFCURVE",
"289 489 CURVE",
"260 498 LINE",
"304 387 OFFCURVE",
"218 290 OFFCURVE",
"96 290 CURVE SMOOTH",
"77 290 OFFCURVE",
"60 272 OFFCURVE",
"60 255 CURVE SMOOTH",
"60 225 OFFCURVE",
"78 212 OFFCURVE",
"98 209 CURVE SMOOTH",
"158 199 OFFCURVE",
"377 148 OFFCURVE",
"377 64 CURVE SMOOTH",
"377 3 OFFCURVE",
"405 -12 OFFCURVE",
"424 -12 CURVE SMOOTH"
);
},
{
closed = 1;
nodes = (
"70 425 OFFCURVE",
"56 440 OFFCURVE",
"56 460 CURVE SMOOTH",
"56 481 OFFCURVE",
"71 495 OFFCURVE",
"93 495 CURVE SMOOTH",
"116 495 OFFCURVE",
"127 479 OFFCURVE",
"127 461 CURVE SMOOTH",
"127 440 OFFCURVE",
"113 425 OFFCURVE",
"92 425 CURVE SMOOTH"
);
},
{
closed = 1;
nodes = (
"449 -12 OFFCURVE",
"455 17 OFFCURVE",
"455 64 CURVE SMOOTH",
"455 414 OFFCURVE",
"457 492 OFFCURVE",
"465 583 CURVE SMOOTH",
"466 597 OFFCURVE",
"461 609 OFFCURVE",
"445 609 CURVE SMOOTH",
"379 609 OFFCURVE",
"377 414 OFFCURVE",
"377 64 CURVE SMOOTH",
"377 12 OFFCURVE",
"396 -12 OFFCURVE",
"421 -12 CURVE SMOOTH"
);
},
{
closed = 1;
nodes = (
"542 522 LINE SMOOTH",
"572 522 OFFCURVE",
"581 539 OFFCURVE",
"581 554 CURVE SMOOTH",
"581 577 OFFCURVE",
"572 587 OFFCURVE",
"542 587 CURVE SMOOTH",
"516 587 LINE SMOOTH",
"480 587 OFFCURVE",
"467 585 OFFCURVE",
"464 595 CURVE",
"455 592 LINE",
"455 576 OFFCURVE",
"459 522 OFFCURVE",
"516 522 CURVE SMOOTH"
);
}
);
width = 542;
}
);
note = uni0996;
unicode = 0996;
},
{
color = 3;
glyphname = uni0997;
lastChange = "2015-10-20 12:37:05 +0000";
layers = (
{
background = {
paths = (
{
closed = 1;
nodes = (
"373 559 LINE",
"373 527 OFFCURVE",
"390 500 OFFCURVE",
"411 500 CURVE SMOOTH",
"444 500 LINE",
"474 456 LINE",
"394 456 LINE",
"394 -3 LINE",
"349 41 LINE",
"349 300 LINE SMOOTH",
"349 376 OFFCURVE",
"280 437 OFFCURVE",
"193 437 CURVE SMOOTH",
"134 437 OFFCURVE",
"87 396 OFFCURVE",
"95 352 CURVE",
"117 365 OFFCURVE",
"140 371 OFFCURVE",
"163 371 CURVE SMOOTH",
"216 371 OFFCURVE",
"259 317 OFFCURVE",
"259 250 CURVE SMOOTH",
"259 205 OFFCURVE",
"230 150 OFFCURVE",
"178 98 CURVE",
"120 151 LINE",
"179 210 OFFCURVE",
"211 263 OFFCURVE",
"211 300 CURVE SMOOTH",
"211 315 OFFCURVE",
"194 327 OFFCURVE",
"173 327 CURVE SMOOTH",
"159 327 OFFCURVE",
"141 319 OFFCURVE",
"118 302 CURVE SMOOTH",
"96 286 OFFCURVE",
"78 278 OFFCURVE",
"64 278 CURVE SMOOTH",
"41 278 OFFCURVE",
"22 306 OFFCURVE",
"22 339 CURVE SMOOTH",
"22 428 OFFCURVE",
"98 500 OFFCURVE",
"193 500 CURVE SMOOTH",
"254 500 OFFCURVE",
"314 452 OFFCURVE",
"349 379 CURVE",
"349 582 LINE"
);
}
);
};
layerId = "4AE238AB-6A4C-459B-8E99-4D2856E6BBFA";
name = Light;
paths = (
{
closed = 1;
nodes = (
"445 -12 OFFCURVE",
"448 15 OFFCURVE",
"448 59 CURVE SMOOTH",
"448 243 OFFCURVE",
"448 478 OFFCURVE",
"457 574 CURVE",
"450 574 LINE",
"456 564 OFFCURVE",
"472 554 OFFCURVE",
"493 554 CURVE SMOOTH",
"548 554 LINE SMOOTH",
"557 554 OFFCURVE",
"568 559 OFFCURVE",
"568 570 CURVE SMOOTH",
"568 582 OFFCURVE",
"557 587 OFFCURVE",
"548 587 CURVE SMOOTH",
"478 587 LINE SMOOTH",
"450 587 OFFCURVE",
"460 609 OFFCURVE",
"444 609 CURVE SMOOTH",
"424 609 OFFCURVE",
"415 532 OFFCURVE",
"411 407 CURVE",
"417 417 LINE",
"382 524 OFFCURVE",
"297 588 OFFCURVE",
"198 588 CURVE SMOOTH",
"95 588 OFFCURVE",
"19 519 OFFCURVE",
"19 439 CURVE SMOOTH",
"19 382 OFFCURVE",
"56 338 OFFCURVE",
"114 338 CURVE SMOOTH",
"158 338 OFFCURVE",
"191 365 OFFCURVE",
"220 365 CURVE SMOOTH",
"250 365 OFFCURVE",
"265 336 OFFCURVE",
"265 308 CURVE SMOOTH",
"265 226 OFFCURVE",
"163 174 OFFCURVE",
"132 158 CURVE SMOOTH",
"116 150 OFFCURVE",
"106 143 OFFCURVE",
"106 131 CURVE SMOOTH",
"106 120 OFFCURVE",
"113 114 OFFCURVE",
"125 114 CURVE SMOOTH",
"183 114 OFFCURVE",
"299 217 OFFCURVE",
"299 302 CURVE SMOOTH",
"299 344 OFFCURVE",
"277 398 OFFCURVE",
"218 398 CURVE SMOOTH",
"178 398 OFFCURVE",
"146 373 OFFCURVE",
"112 373 CURVE SMOOTH",
"78 373 OFFCURVE",
"57 399 OFFCURVE",
"57 438 CURVE SMOOTH",
"57 504 OFFCURVE",
"119 554 OFFCURVE",
"202 554 CURVE SMOOTH",
"322 554 OFFCURVE",
"404 440 OFFCURVE",
"410 297 CURVE",
"409 229 OFFCURVE",
"409 153 OFFCURVE",
"409 71 CURVE SMOOTH",
"409 23 OFFCURVE",
"409 -12 OFFCURVE",
"430 -12 CURVE SMOOTH"
);
}
);
width = 548;
},
{
layerId = "73A23EC2-8D63-4625-BFCF-17D5F08E21CD";
name = Bold;
paths = (
{
closed = 1;
nodes = (
"196 107 OFFCURVE",
"318 186 OFFCURVE",
"318 301 CURVE SMOOTH",
"318 354 OFFCURVE",
"292 412 OFFCURVE",
"229 412 CURVE SMOOTH",
"187 412 OFFCURVE",
"166 387 OFFCURVE",
"133 387 CURVE SMOOTH",
"102 387 OFFCURVE",
"89 411 OFFCURVE",
"89 432 CURVE SMOOTH",
"89 465 OFFCURVE",
"122 515 OFFCURVE",
"214 515 CURVE SMOOTH",
"335 515 OFFCURVE",
"384 427 OFFCURVE",
"384 260 CURVE",
"438 362 LINE",
"438 512 OFFCURVE",
"331 593 OFFCURVE",
"206 593 CURVE SMOOTH",
"80 593 OFFCURVE",
"12 510 OFFCURVE",
"12 431 CURVE SMOOTH",
"12 375 OFFCURVE",
"46 315 OFFCURVE",
"116 315 CURVE SMOOTH",
"161 315 OFFCURVE",
"184 340 OFFCURVE",
"213 340 CURVE SMOOTH",
"243 340 OFFCURVE",
"251 313 OFFCURVE",
"251 297 CURVE SMOOTH",
"251 244 OFFCURVE",
"170 190 OFFCURVE",
"132 165 CURVE SMOOTH",
"99 143 OFFCURVE",
"95 122 OFFCURVE",
"104 105 CURVE SMOOTH",
"114 87 OFFCURVE",
"132 85 OFFCURVE",
"152 92 CURVE SMOOTH"
);
},
{
closed = 1;
nodes = (
"455 -12 OFFCURVE",
"461 17 OFFCURVE",
"461 64 CURVE SMOOTH",
"461 414 OFFCURVE",
"463 492 OFFCURVE",
"471 583 CURVE SMOOTH",
"472 597 OFFCURVE",
"467 609 OFFCURVE",
"451 609 CURVE SMOOTH",
"385 609 OFFCURVE",
"383 414 OFFCURVE",
"383 64 CURVE SMOOTH",
"383 12 OFFCURVE",
"402 -12 OFFCURVE",
"427 -12 CURVE SMOOTH"
);
},
{
closed = 1;
nodes = (
"587 577 OFFCURVE",
"578 587 OFFCURVE",
"548 587 CURVE SMOOTH",
"522 587 LINE SMOOTH",
"486 587 OFFCURVE",
"473 585 OFFCURVE",
"470 595 CURVE",
"461 592 LINE",
"461 576 OFFCURVE",
"465 522 OFFCURVE",
"522 522 CURVE SMOOTH",
"548 522 LINE SMOOTH",
"578 522 OFFCURVE",
"587 539 OFFCURVE",
"587 554 CURVE SMOOTH"
);
}
);
width = 548;
}
);
note = uni0997;
unicode = 0997;
},
{
color = 3;
glyphname = uni0998;
lastChange = "2015-10-20 12:37:05 +0000";
layers = (
{
background = {
paths = (
{
closed = 1;
nodes = (
"101 456 LINE",
"100 482 LINE",
"155 441 OFFCURVE",
"206 394 OFFCURVE",
"252 341 CURVE",
"102 227 LINE",
"95 254 LINE",
"207 221 OFFCURVE",
"291 150 OFFCURVE",
"327 75 CURVE",
"317 72 LINE",
"317 467 LINE",
"357 467 LINE",
"357 0 LINE",
"332 0 LINE",
"310 107 OFFCURVE",
"219 175 OFFCURVE",
"97 198 CURVE",
"50 260 LINE",
"206 375 LINE",
"209 347 LINE",
"173 390 OFFCURVE",
"149 407 OFFCURVE",
"109 418 CURVE SMOOTH",
"64 430 OFFCURVE",
"41 444 OFFCURVE",
"40 477 CURVE",
"91 456 LINE",
"13 456 LINE",
"13 491 LINE",
"437 491 LINE",
"437 456 LINE"
);
}
);
};
layerId = "4AE238AB-6A4C-459B-8E99-4D2856E6BBFA";
name = Light;
paths = (
{
closed = 1;
nodes = (
"423 -12 OFFCURVE",
"425 10 OFFCURVE",
"425 43 CURVE SMOOTH",
"425 361 OFFCURVE",
"425 482 OFFCURVE",
"433 574 CURVE",
"426 574 LINE",
"432 564 OFFCURVE",
"448 554 OFFCURVE",
"469 554 CURVE SMOOTH",
"524 554 LINE SMOOTH",
"533 554 OFFCURVE",
"544 559 OFFCURVE",
"544 570 CURVE SMOOTH",
"544 582 OFFCURVE",
"533 587 OFFCURVE",
"524 587 CURVE SMOOTH",
"454 587 LINE SMOOTH",
"426 587 OFFCURVE",
"437 609 OFFCURVE",
"420 609 CURVE SMOOTH",
"406 609 OFFCURVE",
"399 572 OFFCURVE",
"394 507 CURVE",
"401 520 LINE",
"384 563 OFFCURVE",
"350 587 OFFCURVE",
"290 587 CURVE SMOOTH",
"-25 587 LINE SMOOTH",
"-32 587 OFFCURVE",
"-40 582 OFFCURVE",
"-40 571 CURVE SMOOTH",
"-40 562 OFFCURVE",
"-34 554 OFFCURVE",
"-25 554 CURVE SMOOTH",
"92 554 LINE",
"65 530 OFFCURVE",
"55 499 OFFCURVE",
"55 471 CURVE SMOOTH",
"55 390 OFFCURVE",
"133 350 OFFCURVE",
"214 371 CURVE",
"215 378 LINE",
"153 336 OFFCURVE",
"116 312 OFFCURVE",
"85 292 CURVE SMOOTH",
"75 286 OFFCURVE",
"71 278 OFFCURVE",
"71 270 CURVE SMOOTH",
"71 259 OFFCURVE",
"79 248 OFFCURVE",
"93 245 CURVE SMOOTH",
"193 219 OFFCURVE",
"385 119 OFFCURVE",
"385 50 CURVE SMOOTH",
"385 27 OFFCURVE",
"384 -12 OFFCURVE",
"406 -12 CURVE SMOOTH"
);
},
{
closed = 1;
nodes = (
"337 183 OFFCURVE",
"219 247 OFFCURVE",
"116 278 CURVE",
"119 268 LINE",
"240 356 OFFCURVE",
"294 382 OFFCURVE",
"294 401 CURVE SMOOTH",
"294 413 OFFCURVE",
"283 417 OFFCURVE",
"274 417 CURVE SMOOTH",
"260 417 OFFCURVE",
"244 394 OFFCURVE",
"192 394 CURVE SMOOTH",
"144 394 OFFCURVE",
"97 422 OFFCURVE",
"97 468 CURVE SMOOTH",
"97 506 OFFCURVE",
"128 554 OFFCURVE",
"182 554 CURVE SMOOTH",
"307 554 LINE SMOOTH",
"358 554 OFFCURVE",
"390 517 OFFCURVE",
"390 455 CURVE SMOOTH",
"390 366 OFFCURVE",
"385 241 OFFCURVE",
"385 103 CURVE",
"392 110 LINE"
);
}
);
width = 524;
},
{
layerId = "73A23EC2-8D63-4625-BFCF-17D5F08E21CD";
name = Bold;
paths = (
{
closed = 1;
nodes = (
"417 -12 OFFCURVE",
"436 -3 OFFCURVE",
"436 56 CURVE SMOOTH",
"436 181 OFFCURVE",
"211 255 OFFCURVE",
"125 261 CURVE",
"135 229 LINE",
"262 313 LINE SMOOTH",
"291 333 OFFCURVE",
"305 349 OFFCURVE",
"305 370 CURVE SMOOTH",
"305 396 OFFCURVE",
"293 406 OFFCURVE",
"276 406 CURVE SMOOTH",
"262 406 OFFCURVE",
"242 397 OFFCURVE",
"207 397 CURVE SMOOTH",
"187 397 OFFCURVE",
"122 406 OFFCURVE",
"122 456 CURVE SMOOTH",
"122 492 OFFCURVE",
"150 523 OFFCURVE",
"189 523 CURVE",
"150 572 LINE",
"99 572 OFFCURVE",
"45 522 OFFCURVE",
"45 450 CURVE SMOOTH",
"45 366 OFFCURVE",
"146 336 OFFCURVE",
"199 336 CURVE",
"211 365 LINE",
"65 271 LINE SMOOTH",
"55 264 OFFCURVE",
"46 251 OFFCURVE",
"46 237 CURVE SMOOTH",
"46 220 OFFCURVE",
"58 202 OFFCURVE",
"77 200 CURVE SMOOTH",
"164 191 OFFCURVE",
"359 129 OFFCURVE",
"359 59 CURVE SMOOTH",
"359 0 OFFCURVE",
"393 -12 OFFCURVE",
"405 -12 CURVE SMOOTH"
);
},
{
closed = 1;
nodes = (
"431 -12 OFFCURVE",
"437 17 OFFCURVE",
"437 64 CURVE SMOOTH",
"437 414 OFFCURVE",
"439 492 OFFCURVE",
"447 583 CURVE SMOOTH",
"448 597 OFFCURVE",
"443 609 OFFCURVE",
"427 609 CURVE SMOOTH",
"361 609 OFFCURVE",
"359 414 OFFCURVE",
"359 64 CURVE SMOOTH",
"359 12 OFFCURVE",
"378 -12 OFFCURVE",
"403 -12 CURVE SMOOTH"
);
},
{
closed = 1;
nodes = (
"563 577 OFFCURVE",
"554 587 OFFCURVE",
"524 587 CURVE SMOOTH",
"498 587 LINE SMOOTH",
"462 587 OFFCURVE",
"449 585 OFFCURVE",
"446 595 CURVE",
"437 592 LINE",
"437 576 OFFCURVE",
"441 522 OFFCURVE",
"498 522 CURVE SMOOTH",
"524 522 LINE SMOOTH",
"554 522 OFFCURVE",
"563 539 OFFCURVE",
"563 554 CURVE SMOOTH"
);
},
{
closed = 1;
nodes = (
"394 504 LINE",
"382 550 OFFCURVE",
"351 587 OFFCURVE",
"279 587 CURVE SMOOTH",
"0 587 LINE SMOOTH",
"-18 587 OFFCURVE",
"-35 582 OFFCURVE",
"-35 554 CURVE SMOOTH",
"-35 532 OFFCURVE",
"-18 522 OFFCURVE",
"0 522 CURVE SMOOTH",
"285 522 LINE SMOOTH",
"349 522 OFFCURVE",
"370 479 OFFCURVE",
"366 438 CURVE"
);
}
);
width = 524;
}
);
note = uni0998;
unicode = 0998;
},
{
color = 3;
glyphname = uni0999;
lastChange = "2015-10-20 12:37:05 +0000";
layers = (
{
background = {
paths = (
{
closed = 1;
nodes = (
"102 501 LINE",
"113 461 OFFCURVE",
"145 426 OFFCURVE",
"190 405 CURVE",
"218 466 OFFCURVE",
"264 505 OFFCURVE",
"305 505 CURVE SMOOTH",
"346 505 OFFCURVE",
"381 470 OFFCURVE",
"381 429 CURVE SMOOTH",
"381 378 OFFCURVE",
"327 337 OFFCURVE",
"260 337 CURVE SMOOTH",
"238 337 OFFCURVE",
"218 340 OFFCURVE",
"200 347 CURVE",
"199 350 OFFCURVE",
"199 347 OFFCURVE",
"198 336 CURVE",
"198 300 LINE SMOOTH",
"198 257 OFFCURVE",
"217 222 OFFCURVE",
"240 222 CURVE SMOOTH",
"275 222 OFFCURVE",
"313 262 OFFCURVE",
"334 322 CURVE",
"399 291 OFFCURVE",
"441 231 OFFCURVE",
"441 166 CURVE SMOOTH",
"441 71 OFFCURVE",
"375 10 OFFCURVE",
"275 10 CURVE SMOOTH",
"150 10 OFFCURVE",
"41 197 OFFCURVE",
"29 436 CURVE",
"54 410 LINE",
"67 223 OFFCURVE",
"163 78 OFFCURVE",
"272 78 CURVE SMOOTH",
"349 78 OFFCURVE",
"412 126 OFFCURVE",
"412 186 CURVE SMOOTH",
"412 217 OFFCURVE",
"395 243 OFFCURVE",
"370 252 CURVE",
"345 199 OFFCURVE",
"303 164 OFFCURVE",
"260 164 CURVE SMOOTH",
"207 164 OFFCURVE",
"164 225 OFFCURVE",
"164 300 CURVE SMOOTH",
"164 318 OFFCURVE",
"167 339 OFFCURVE",
"174 364 CURVE",
"121 389 OFFCURVE",
"79 427 OFFCURVE",
"49 479 CURVE"
);
},
{
closed = 1;
nodes = (
"231 384 OFFCURVE",
"246 381 OFFCURVE",
"260 381 CURVE SMOOTH",
"303 381 OFFCURVE",
"338 402 OFFCURVE",
"338 429 CURVE SMOOTH",
"338 444 OFFCURVE",
"321 456 OFFCURVE",
"300 456 CURVE SMOOTH",
"263 456 OFFCURVE",
"229 430 OFFCURVE",
"214 390 CURVE"
);
}
);
};
layerId = "4AE238AB-6A4C-459B-8E99-4D2856E6BBFA";
name = Light;
paths = (
{
closed = 1;
nodes = (
"447 28 OFFCURVE",
"528 107 OFFCURVE",
"528 216 CURVE SMOOTH",
"528 296 OFFCURVE",
"469 374 OFFCURVE",
"438 374 CURVE SMOOTH",
"416 374 OFFCURVE",
"415 345 OFFCURVE",
"405 316 CURVE SMOOTH",
"392 278 OFFCURVE",
"367 238 OFFCURVE",
"325 238 CURVE SMOOTH",
"269 238 OFFCURVE",
"255 307 OFFCURVE",
"255 375 CURVE SMOOTH",
"255 402 OFFCURVE",
"261 430 OFFCURVE",
"270 453 CURVE",
"253 445 LINE",
"282 437 OFFCURVE",
"310 433 OFFCURVE",
"337 433 CURVE SMOOTH",
"402 433 OFFCURVE",
"456 476 OFFCURVE",
"456 528 CURVE SMOOTH",
"456 547 OFFCURVE",
"443 597 OFFCURVE",
"374 597 CURVE SMOOTH",
"314 597 OFFCURVE",
"254 526 OFFCURVE",
"238 470 CURVE",
"255 477 LINE",
"198 494 OFFCURVE",
"172 525 OFFCURVE",
"122 561 CURVE SMOOTH",
"97 579 OFFCURVE",
"67 587 OFFCURVE",
"18 587 CURVE SMOOTH",
"6 587 OFFCURVE",
"0 579 OFFCURVE",
"0 571 CURVE SMOOTH",
"0 562 OFFCURVE",
"6 554 OFFCURVE",
"18 554 CURVE SMOOTH",
"60 554 OFFCURVE",
"84 549 OFFCURVE",
"114 528 CURVE SMOOTH",
"155 500 OFFCURVE",
"189 464 OFFCURVE",
"246 449 CURVE",
"236 465 LINE",
"226 436 OFFCURVE",
"219 406 OFFCURVE",
"219 375 CURVE SMOOTH",
"219 286 OFFCURVE",
"253 204 OFFCURVE",
"332 204 CURVE SMOOTH",
"415 204 OFFCURVE",
"443 311 OFFCURVE",
"446 330 CURVE",
"440 331 LINE",
"457 312 OFFCURVE",
"488 270 OFFCURVE",
"488 217 CURVE SMOOTH",
"488 135 OFFCURVE",
"424 69 OFFCURVE",
"334 69 CURVE SMOOTH",
"189 69 OFFCURVE",
"78 252 OFFCURVE",
"68 446 CURVE SMOOTH",
"67 458 OFFCURVE",
"60 466 OFFCURVE",
"50 466 CURVE SMOOTH",
"41 466 OFFCURVE",
"35 458 OFFCURVE",
"35 448 CURVE SMOOTH",
"35 257 OFFCURVE",
"159 28 OFFCURVE",
"334 28 CURVE SMOOTH"
);
},
{
closed = 1;
nodes = (
"292 510 OFFCURVE",
"331 562 OFFCURVE",
"382 562 CURVE SMOOTH",
"410 562 OFFCURVE",
"423 551 OFFCURVE",
"423 532 CURVE SMOOTH",
"423 497 OFFCURVE",
"383 463 OFFCURVE",
"337 463 CURVE SMOOTH",
"314 463 OFFCURVE",
"288 467 OFFCURVE",
"265 474 CURVE",
"272 459 LINE"
);
}
);
width = 555;
},
{
layerId = "73A23EC2-8D63-4625-BFCF-17D5F08E21CD";
name = Bold;
paths = (
{
closed = 1;
nodes = (
"431 22 OFFCURVE",
"530 93 OFFCURVE",
"530 219 CURVE SMOOTH",
"530 310 OFFCURVE",
"483 380 OFFCURVE",
"446 380 CURVE SMOOTH",
"395 380 OFFCURVE",
"416 266 OFFCURVE",
"345 266 CURVE SMOOTH",
"302 266 OFFCURVE",
"272 308 OFFCURVE",
"272 370 CURVE SMOOTH",
"272 462 OFFCURVE",
"325 538 OFFCURVE",
"365 538 CURVE SMOOTH",
"374 538 OFFCURVE",
"399 534 OFFCURVE",
"399 511 CURVE SMOOTH",
"399 481 OFFCURVE",
"359 465 OFFCURVE",
"321 465 CURVE SMOOTH",
"216 465 OFFCURVE",
"208 587 OFFCURVE",
"62 587 CURVE SMOOTH",
"0 587 LINE SMOOTH",
"-8 587 OFFCURVE",
"-28 580 OFFCURVE",
"-28 554 CURVE SMOOTH",
"-28 529 OFFCURVE",
"-8 522 OFFCURVE",
"0 522 CURVE SMOOTH",
"62 522 LINE SMOOTH",
"137 522 OFFCURVE",
"193 400 OFFCURVE",
"318 400 CURVE SMOOTH",
"410 400 OFFCURVE",
"463 445 OFFCURVE",
"463 514 CURVE SMOOTH",
"463 574 OFFCURVE",
"409 595 OFFCURVE",
"369 595 CURVE SMOOTH",
"264 595 OFFCURVE",
"202 467 OFFCURVE",
"202 373 CURVE SMOOTH",
"202 291 OFFCURVE",
"249 196 OFFCURVE",
"332 196 CURVE SMOOTH",
"435 196 OFFCURVE",
"467 299 OFFCURVE",
"467 321 CURVE",
"430 332 LINE",
"439 321 OFFCURVE",
"464 273 OFFCURVE",
"464 224 CURVE SMOOTH",
"464 139 OFFCURVE",
"389 98 OFFCURVE",
"314 98 CURVE SMOOTH",
"138 98 OFFCURVE",
"101 321 OFFCURVE",
"89 407 CURVE SMOOTH",
"87 423 OFFCURVE",
"83 451 OFFCURVE",
"55 451 CURVE SMOOTH",
"27 451 OFFCURVE",
"23 421 OFFCURVE",
"23 394 CURVE SMOOTH",
"23 273 OFFCURVE",
"105 22 OFFCURVE",
"318 22 CURVE SMOOTH"
);
}
);
width = 555;
}
);
note = uni0999;
unicode = 0999;
},
{
color = 3;
glyphname = uni099A;
lastChange = "2015-10-20 12:37:05 +0000";
layers = (
{
background = {
paths = (
{
closed = 1;
nodes = (
"107 108 OFFCURVE",
"126 73 OFFCURVE",
"138 73 CURVE SMOOTH",
"185 73 OFFCURVE",
"280 208 OFFCURVE",
"280 273 CURVE",
"204 284 OFFCURVE",
"139 331 OFFCURVE",
"107 398 CURVE",
"107 131 LINE SMOOTH"
);
},
{
closed = 1;
nodes = (
"-40 500 LINE",
"338 500 LINE",
"368 456 LINE",
"107 456 LINE",
"111 409 OFFCURVE",
"154 367 OFFCURVE",
"214 351 CURVE SMOOTH",
"285 332 OFFCURVE",
"334 292 OFFCURVE",
"334 255 CURVE SMOOTH",
"334 172 OFFCURVE",
"213 5 OFFCURVE",
"153 5 CURVE SMOOTH",
"118 5 OFFCURVE",
"62 83 OFFCURVE",
"62 131 CURVE SMOOTH",
"62 456 LINE",
"-10 456 LINE"
);
}
);
};
layerId = "4AE238AB-6A4C-459B-8E99-4D2856E6BBFA";
name = Light;
paths = (
{
closed = 1;
nodes = (
"281 -7 OFFCURVE",
"432 184 OFFCURVE",
"432 288 CURVE SMOOTH",
"432 329 OFFCURVE",
"411 361 OFFCURVE",
"357 370 CURVE SMOOTH",
"201 397 OFFCURVE",
"139 428 OFFCURVE",
"137 519 CURVE SMOOTH",
"137 551 OFFCURVE",
"150 554 OFFCURVE",
"169 554 CURVE SMOOTH",
"488 554 LINE SMOOTH",
"497 554 OFFCURVE",
"504 561 OFFCURVE",
"504 571 CURVE SMOOTH",
"504 580 OFFCURVE",
"496 587 OFFCURVE",
"488 587 CURVE SMOOTH",
"166 587 LINE SMOOTH",
"125 586 OFFCURVE",
"98 578 OFFCURVE",
"98 533 CURVE",
"105 539 LINE",
"91 568 OFFCURVE",
"60 587 OFFCURVE",
"20 587 CURVE SMOOTH",
"0 587 LINE SMOOTH",
"-14 587 OFFCURVE",
"-26 582 OFFCURVE",
"-26 571 CURVE SMOOTH",
"-26 559 OFFCURVE",
"-14 554 OFFCURVE",
"0 554 CURVE SMOOTH",
"32 554 LINE SMOOTH",
"117 554 OFFCURVE",
"103 458 OFFCURVE",
"103 297 CURVE SMOOTH",
"103 113 OFFCURVE",
"73 -7 OFFCURVE",
"195 -7 CURVE SMOOTH"
);
},
{
closed = 1;
nodes = (
"124 26 OFFCURVE",
"140 110 OFFCURVE",
"140 222 CURVE SMOOTH",
"140 297 OFFCURVE",
"139 364 OFFCURVE",
"138 435 CURVE",
"130 434 LINE",
"179 349 OFFCURVE",
"307 340 OFFCURVE",
"357 328 CURVE SMOOTH",
"381 322 OFFCURVE",
"392 305 OFFCURVE",
"392 280 CURVE SMOOTH",
"392 201 OFFCURVE",
"256 26 OFFCURVE",
"185 26 CURVE SMOOTH"
);
}
);
width = 488;
},
{
layerId = "73A23EC2-8D63-4625-BFCF-17D5F08E21CD";
name = Bold;
paths = (
{
closed = 1;
nodes = (
"318 -12 OFFCURVE",
"449 211 OFFCURVE",
"449 293 CURVE SMOOTH",
"449 339 OFFCURVE",
"422 365 OFFCURVE",
"365 370 CURVE SMOOTH",
"251 380 OFFCURVE",
"169 420 OFFCURVE",
"169 476 CURVE SMOOTH",
"169 515 OFFCURVE",
"196 522 OFFCURVE",
"220 522 CURVE SMOOTH",
"488 522 LINE SMOOTH",
"497 522 OFFCURVE",
"513 529 OFFCURVE",
"513 554 CURVE SMOOTH",
"513 580 OFFCURVE",
"496 587 OFFCURVE",
"488 587 CURVE SMOOTH",
"189 587 LINE SMOOTH",
"141 587 OFFCURVE",
"109 554 OFFCURVE",
"109 525 CURVE",
"127 525 LINE",
"127 554 OFFCURVE",
"90 587 OFFCURVE",
"38 587 CURVE SMOOTH",
"0 587 LINE SMOOTH",
"-14 587 OFFCURVE",
"-33 582 OFFCURVE",
"-33 555 CURVE SMOOTH",
"-33 527 OFFCURVE",
"-14 522 OFFCURVE",
"0 522 CURVE SMOOTH",
"36 522 LINE SMOOTH",
"91 522 OFFCURVE",
"97 474 OFFCURVE",
"93 297 CURVE SMOOTH",
"88 103 OFFCURVE",
"76 -12 OFFCURVE",
"189 -12 CURVE SMOOTH"
);
},
{
closed = 1;
nodes = (
"159 63 OFFCURVE",
"168 126 OFFCURVE",
"168 248 CURVE SMOOTH",
"168 288 OFFCURVE",
"167 315 OFFCURVE",
"166 386 CURVE",
"143 368 LINE",
"199 307 OFFCURVE",
"310 307 OFFCURVE",
"342 296 CURVE SMOOTH",
"372 286 OFFCURVE",
"372 248 OFFCURVE",
"322 177 CURVE SMOOTH",
"284 123 OFFCURVE",
"235 63 OFFCURVE",
"198 63 CURVE SMOOTH"
);
}
);
width = 488;
}
);
note = uni099A;
unicode = 099A;
},
{
color = 3;
glyphname = uni099B;
lastChange = "2015-10-20 12:37:05 +0000";
layers = (
{
background = {
paths = (
{
closed = 1;
nodes = (
"-40 500 LINE",
"397 500 LINE",
"427 456 LINE",
"89 456 LINE",
"96 419 OFFCURVE",
"140 391 OFFCURVE",
"195 391 CURVE SMOOTH",
"234 391 LINE SMOOTH",
"309 391 OFFCURVE",
"370 341 OFFCURVE",
"370 280 CURVE SMOOTH",
"370 213 OFFCURVE",
"291 120 OFFCURVE",
"230 115 CURVE",
"315 88 OFFCURVE",
"401 18 OFFCURVE",
"476 -89 CURVE",
"452 -89 LINE",
"357 24 OFFCURVE",
"227 89 OFFCURVE",
"95 89 CURVE",
"51 176 LINE",
"73 161 OFFCURVE",
"101 153 OFFCURVE",
"135 153 CURVE SMOOTH",
"218 153 OFFCURVE",
"322 230 OFFCURVE",
"322 290 CURVE SMOOTH",
"322 321 OFFCURVE",
"293 346 OFFCURVE",
"257 346 CURVE",
"257 289 OFFCURVE",
"170 198 OFFCURVE",
"115 198 CURVE SMOOTH",
"87 198 OFFCURVE",
"44 248 OFFCURVE",
"44 280 CURVE SMOOTH",
"44 456 LINE",
"-10 456 LINE"
);
},
{
closed = 1;
nodes = (
"89 263 OFFCURVE",
"98 252 OFFCURVE",
"105 252 CURVE",
"140 259 OFFCURVE",
"194 314 OFFCURVE",
"194 342 CURVE",
"146 342 OFFCURVE",
"105 370 OFFCURVE",
"89 413 CURVE",
"89 270 LINE SMOOTH"
);
}
);
};
layerId = "4AE238AB-6A4C-459B-8E99-4D2856E6BBFA";
name = Light;
paths = (
{
closed = 1;
nodes = (
"509 -83 OFFCURVE",
"517 -73 OFFCURVE",
"517 -64 CURVE SMOOTH",
"517 -56 OFFCURVE",
"512 -49 OFFCURVE",
"499 -49 CURVE SMOOTH",
"411 -49 OFFCURVE",
"286 142 OFFCURVE",
"183 142 CURVE SMOOTH",
"150 142 OFFCURVE",
"126 126 OFFCURVE",
"126 100 CURVE SMOOTH",
"126 65 OFFCURVE",
"158 53 OFFCURVE",
"200 53 CURVE SMOOTH",
"313 53 OFFCURVE",
"453 156 OFFCURVE",
"453 270 CURVE SMOOTH",
"453 356 OFFCURVE",
"377 425 OFFCURVE",
"280 425 CURVE SMOOTH",
"181 425 OFFCURVE",
"136 456 OFFCURVE",
"136 523 CURVE SMOOTH",
"137 552 OFFCURVE",
"154 554 OFFCURVE",
"182 554 CURVE SMOOTH",
"528 554 LINE SMOOTH",
"537 554 OFFCURVE",
"544 561 OFFCURVE",
"544 571 CURVE SMOOTH",
"544 580 OFFCURVE",
"536 587 OFFCURVE",
"528 587 CURVE SMOOTH",
"176 587 LINE SMOOTH",
"127 586 OFFCURVE",
"105 577 OFFCURVE",
"102 536 CURVE",
"109 539 LINE",
"97 567 OFFCURVE",
"77 587 OFFCURVE",
"24 587 CURVE SMOOTH",
"0 587 LINE SMOOTH",
"-12 587 OFFCURVE",
"-18 579 OFFCURVE",
"-18 570 CURVE SMOOTH",
"-18 561 OFFCURVE",
"-12 554 OFFCURVE",
"0 554 CURVE SMOOTH",
"35 554 LINE SMOOTH",
"84 554 OFFCURVE",
"102 513 OFFCURVE",
"102 482 CURVE SMOOTH",
"102 419 OFFCURVE",
"100 356 OFFCURVE",
"100 299 CURVE SMOOTH",
"100 203 OFFCURVE",
"138 184 OFFCURVE",
"185 184 CURVE SMOOTH",
"258 184 OFFCURVE",
"382 310 OFFCURVE",
"353 385 CURVE",
"345 381 LINE",
"388 362 OFFCURVE",
"419 319 OFFCURVE",
"419 273 CURVE SMOOTH",
"419 181 OFFCURVE",
"294 88 OFFCURVE",
"199 88 CURVE SMOOTH",
"180 88 OFFCURVE",
"169 96 OFFCURVE",
"169 102 CURVE SMOOTH",
"169 107 OFFCURVE",
"174 110 OFFCURVE",
"183 110 CURVE SMOOTH",
"244 110 OFFCURVE",
"415 -83 OFFCURVE",
"495 -83 CURVE SMOOTH"
);
},
{
closed = 1;
nodes = (
"123 213 OFFCURVE",
"140 292 OFFCURVE",
"135 468 CURVE",
"129 456 LINE",
"153 402 OFFCURVE",
"213 391 OFFCURVE",
"257 391 CURVE SMOOTH",
"297 391 OFFCURVE",
"318 380 OFFCURVE",
"318 356 CURVE SMOOTH",
"318 309 OFFCURVE",
"230 213 OFFCURVE",
"176 213 CURVE SMOOTH"
);
}
);
width = 528;
},
{
layerId = "73A23EC2-8D63-4625-BFCF-17D5F08E21CD";
name = Bold;
paths = (
{
closed = 1;
nodes = (
"515 -87 OFFCURVE",
"533 -77 OFFCURVE",
"533 -54 CURVE SMOOTH",
"533 -22 OFFCURVE",
"508 -12 OFFCURVE",
"482 -12 CURVE SMOOTH",
"407 -12 OFFCURVE",
"321 160 OFFCURVE",
"213 160 CURVE SMOOTH",
"172 160 OFFCURVE",
"124 137 OFFCURVE",
"124 91 CURVE SMOOTH",
"124 41 OFFCURVE",
"179 16 OFFCURVE",
"229 16 CURVE SMOOTH",
"327 16 OFFCURVE",
"480 108 OFFCURVE",
"480 262 CURVE SMOOTH",
"480 352 OFFCURVE",
"425 451 OFFCURVE",
"292 451 CURVE SMOOTH",
"257 451 OFFCURVE",
"181 453 OFFCURVE",
"181 491 CURVE SMOOTH",
"181 516 OFFCURVE",
"198 522 OFFCURVE",
"228 522 CURVE SMOOTH",
"528 522 LINE SMOOTH",
"537 522 OFFCURVE",
"554 529 OFFCURVE",
"554 554 CURVE SMOOTH",
"554 580 OFFCURVE",
"536 587 OFFCURVE",
"528 587 CURVE SMOOTH",
"206 587 LINE SMOOTH",
"157 587 OFFCURVE",
"132 569 OFFCURVE",
"132 532 CURVE",
"139 532 LINE",
"139 569 OFFCURVE",
"107 587 OFFCURVE",
"54 587 CURVE SMOOTH",
"0 587 LINE SMOOTH",
"-12 587 OFFCURVE",
"-28 579 OFFCURVE",
"-28 554 CURVE SMOOTH",
"-28 529 OFFCURVE",
"-12 522 OFFCURVE",
"0 522 CURVE SMOOTH",
"36 522 LINE SMOOTH",
"98 522 OFFCURVE",
"102 510 OFFCURVE",
"102 453 CURVE SMOOTH",
"102 412 OFFCURVE",
"100 350 OFFCURVE",
"100 323 CURVE SMOOTH",
"100 230 OFFCURVE",
"119 184 OFFCURVE",
"198 184 CURVE SMOOTH",
"304 184 OFFCURVE",
"379 287 OFFCURVE",
"379 362 CURVE SMOOTH",
"379 374 OFFCURVE",
"377 384 OFFCURVE",
"373 394 CURVE",
"302 382 LINE",
"344 382 OFFCURVE",
"405 333 OFFCURVE",
"405 251 CURVE SMOOTH",
"405 160 OFFCURVE",
"282 76 OFFCURVE",
"226 76 CURVE SMOOTH",
"204 76 OFFCURVE",
"195 84 OFFCURVE",
"195 90 CURVE SMOOTH",
"195 95 OFFCURVE",
"200 98 OFFCURVE",
"208 98 CURVE SMOOTH",
"271 98 OFFCURVE",
"378 -87 OFFCURVE",
"486 -87 CURVE SMOOTH"
);
},
{
closed = 1;
nodes = (
"173 248 OFFCURVE",
"177 283 OFFCURVE",
"177 356 CURVE SMOOTH",
"177 377 OFFCURVE",
"177 403 OFFCURVE",
"177 432 CURVE",
"146 440 LINE",
"146 418 OFFCURVE",
"188 392 OFFCURVE",
"235 392 CURVE SMOOTH",
"279 392 OFFCURVE",
"302 371 OFFCURVE",
"302 344 CURVE SMOOTH",
"302 297 OFFCURVE",
"247 248 OFFCURVE",
"206 248 CURVE SMOOTH"
);
}
);
width = 528;
}
);
note = uni099B;
unicode = 099B;
},
{
color = 3;
glyphname = uni099C;
lastChange = "2015-10-20 12:37:05 +0000";
layers = (
{
background = {
paths = (
{
closed = 1;
nodes = (
"-40 500 LINE",
"552 500 LINE",
"582 456 LINE",
"268 456 LINE",
"295 399 OFFCURVE",
"338 361 OFFCURVE",
"379 361 CURVE SMOOTH",
"414 361 OFFCURVE",
"445 371 OFFCURVE",
"474 391 CURVE",
"546 329 LINE",
"491 264 OFFCURVE",
"461 187 OFFCURVE",
"461 111 CURVE SMOOTH",
"461 73 OFFCURVE",
"473 28 OFFCURVE",
"497 -23 CURVE",
"462 1 LINE",
"439 42 OFFCURVE",
"427 92 OFFCURVE",
"427 151 CURVE SMOOTH",
"427 224 OFFCURVE",
"440 282 OFFCURVE",
"465 326 CURVE",
"448 320 OFFCURVE",
"431 317 OFFCURVE",
"414 317 CURVE SMOOTH",
"349 317 OFFCURVE",
"288 356 OFFCURVE",
"260 416 CURVE",
"234 394 OFFCURVE",
"214 374 OFFCURVE",
"200 357 CURVE SMOOTH",
"185 339 OFFCURVE",
"178 325 OFFCURVE",
"178 314 CURVE SMOOTH",
"178 297 OFFCURVE",
"197 282 OFFCURVE",
"221 282 CURVE SMOOTH",
"242 282 OFFCURVE",
"274 296 OFFCURVE",
"310 321 CURVE",
"357 294 OFFCURVE",
"386 249 OFFCURVE",
"386 205 CURVE SMOOTH",
"386 128 OFFCURVE",
"327 64 OFFCURVE",
"255 64 CURVE SMOOTH",
"143 64 OFFCURVE",
"43 224 OFFCURVE",
"24 433 CURVE",
"49 415 LINE",
"62 258 OFFCURVE",
"152 138 OFFCURVE",
"255 138 CURVE SMOOTH",
"310 138 OFFCURVE",
"353 170 OFFCURVE",
"353 210 CURVE SMOOTH",
"353 230 OFFCURVE",
"346 245 OFFCURVE",
"335 252 CURVE",
"308 231 OFFCURVE",
"276 218 OFFCURVE",
"241 218 CURVE SMOOTH",
"200 218 OFFCURVE",
"134 298 OFFCURVE",
"134 349 CURVE SMOOTH",
"134 378 OFFCURVE",
"161 417 OFFCURVE",
"206 456 CURVE",
"-10 456 LINE"
);
}
);
};
layerId = "4AE238AB-6A4C-459B-8E99-4D2856E6BBFA";
name = Light;
paths = (
{
closed = 1;
nodes = (
"572 30 OFFCURVE",
"574 54 OFFCURVE",
"574 101 CURVE SMOOTH",
"574 167 OFFCURVE",
"562 216 OFFCURVE",
"562 279 CURVE SMOOTH",
"562 365 OFFCURVE",
"618 423 OFFCURVE",
"618 439 CURVE SMOOTH",
"618 454 OFFCURVE",
"604 467 OFFCURVE",
"590 467 CURVE SMOOTH",
"565 467 OFFCURVE",
"553 418 OFFCURVE",
"457 418 CURVE SMOOTH",
"386 418 OFFCURVE",
"343 495 OFFCURVE",
"342 567 CURVE",
"334 554 LINE",
"402 554 OFFCURVE",
"602 554 OFFCURVE",
"645 554 CURVE SMOOTH",
"654 554 OFFCURVE",
"661 561 OFFCURVE",
"661 571 CURVE SMOOTH",
"661 580 OFFCURVE",
"653 587 OFFCURVE",
"645 587 CURVE SMOOTH",
"338 587 LINE SMOOTH",
"307 587 OFFCURVE",
"268 562 OFFCURVE",
"237 526 CURVE",
"250 525 LINE",
"243 571 OFFCURVE",
"202 587 OFFCURVE",
"144 587 CURVE SMOOTH",
"0 587 LINE SMOOTH",
"-8 587 OFFCURVE",
"-16 581 OFFCURVE",
"-16 570 CURVE SMOOTH",
"-16 561 OFFCURVE",
"-8 554 OFFCURVE",
"0 554 CURVE SMOOTH",
"157 554 LINE SMOOTH",
"184 554 OFFCURVE",
"223 542 OFFCURVE",
"223 517 CURVE SMOOTH",
"223 500 OFFCURVE",
"176 447 OFFCURVE",
"176 371 CURVE SMOOTH",
"176 307 OFFCURVE",
"214 228 OFFCURVE",
"296 228 CURVE SMOOTH",
"354 228 OFFCURVE",
"400 266 OFFCURVE",
"413 307 CURVE",
"400 302 LINE",
"417 280 OFFCURVE",
"437 260 OFFCURVE",
"437 211 CURVE SMOOTH",
"437 143 OFFCURVE",
"386 101 OFFCURVE",
"313 101 CURVE SMOOTH",
"197 101 OFFCURVE",
"70 252 OFFCURVE",
"60 446 CURVE SMOOTH",
"59 458 OFFCURVE",
"52 466 OFFCURVE",
"42 466 CURVE SMOOTH",
"33 466 OFFCURVE",
"27 458 OFFCURVE",
"27 448 CURVE SMOOTH",
"27 270 OFFCURVE",
"155 57 OFFCURVE",
"327 57 CURVE SMOOTH",
"420 57 OFFCURVE",
"477 128 OFFCURVE",
"477 196 CURVE SMOOTH",
"477 290 OFFCURVE",
"412 346 OFFCURVE",
"393 346 CURVE SMOOTH",
"367 346 OFFCURVE",
"377 268 OFFCURVE",
"287 268 CURVE SMOOTH",
"243 268 OFFCURVE",
"212 300 OFFCURVE",
"212 376 CURVE SMOOTH",
"212 445 OFFCURVE",
"272 520 OFFCURVE",
"320 545 CURVE",
"310 552 LINE",
"312 472 OFFCURVE",
"366 379 OFFCURVE",
"464 379 CURVE SMOOTH",
"515 379 OFFCURVE",
"545 398 OFFCURVE",
"560 406 CURVE",
"561 417 LINE",
"498 299 OFFCURVE",
"535 196 OFFCURVE",
"535 101 CURVE SMOOTH",
"535 48 OFFCURVE",
"540 30 OFFCURVE",
"555 30 CURVE SMOOTH"
);
}
);
width = 645;
},
{
layerId = "73A23EC2-8D63-4625-BFCF-17D5F08E21CD";
name = Bold;
paths = (
{
closed = 1;
nodes = (
"591 20 OFFCURVE",
"603 44 OFFCURVE",
"603 81 CURVE SMOOTH",
"603 157 OFFCURVE",
"581 216 OFFCURVE",
"581 279 CURVE SMOOTH",
"581 365 OFFCURVE",
"628 408 OFFCURVE",
"628 439 CURVE SMOOTH",
"628 454 OFFCURVE",
"620 474 OFFCURVE",
"587 474 CURVE SMOOTH",
"544 474 OFFCURVE",
"529 432 OFFCURVE",
"454 432 CURVE SMOOTH",
"396 432 OFFCURVE",
"343 463 OFFCURVE",
"342 535 CURVE",
"324 522 LINE",
"392 522 OFFCURVE",
"602 522 OFFCURVE",
"645 522 CURVE SMOOTH",
"654 522 OFFCURVE",
"669 529 OFFCURVE",
"669 556 CURVE SMOOTH",
"669 580 OFFCURVE",
"653 587 OFFCURVE",
"645 587 CURVE SMOOTH",
"348 587 LINE SMOOTH",
"289 587 OFFCURVE",
"246 547 OFFCURVE",
"235 520 CURVE",
"260 532 LINE",
"260 559 OFFCURVE",
"212 587 OFFCURVE",
"154 587 CURVE SMOOTH",
"0 587 LINE SMOOTH",
"-8 587 OFFCURVE",
"-25 581 OFFCURVE",
"-25 555 CURVE SMOOTH",
"-25 529 OFFCURVE",
"-8 522 OFFCURVE",
"0 522 CURVE SMOOTH",
"139 523 LINE SMOOTH",
"174 523 OFFCURVE",
"202 526 OFFCURVE",
"202 501 CURVE SMOOTH",
"202 476 OFFCURVE",
"158 447 OFFCURVE",
"158 371 CURVE SMOOTH",
"158 307 OFFCURVE",
"194 199 OFFCURVE",
"307 199 CURVE SMOOTH",
"365 199 OFFCURVE",
"407 242 OFFCURVE",
"420 285 CURVE",
"379 285 LINE",
"389 271 OFFCURVE",
"417 242 OFFCURVE",
"417 196 CURVE SMOOTH",
"417 140 OFFCURVE",
"363 100 OFFCURVE",
"300 100 CURVE SMOOTH",
"171 100 OFFCURVE",
"86 244 OFFCURVE",
"77 426 CURVE SMOOTH",
"75 458 OFFCURVE",
"59 466 OFFCURVE",
"44 466 CURVE SMOOTH",
"25 466 OFFCURVE",
"13 450 OFFCURVE",
"13 422 CURVE SMOOTH",
"13 262 OFFCURVE",
"109 34 OFFCURVE",
"298 34 CURVE SMOOTH",
"420 34 OFFCURVE",
"487 128 OFFCURVE",
"487 196 CURVE SMOOTH",
"487 290 OFFCURVE",
"435 338 OFFCURVE",
"396 338 CURVE SMOOTH",
"362 338 OFFCURVE",
"370 268 OFFCURVE",
"307 268 CURVE SMOOTH",
"263 268 OFFCURVE",
"232 305 OFFCURVE",
"232 365 CURVE SMOOTH",
"232 445 OFFCURVE",
"292 510 OFFCURVE",
"340 535 CURVE",
"271 529 LINE",
"271 432 OFFCURVE",
"353 366 OFFCURVE",
"451 366 CURVE SMOOTH",
"519 366 OFFCURVE",
"562 386 OFFCURVE",
"583 404 CURVE",
"556 419 LINE",
"487 325 OFFCURVE",
"525 187 OFFCURVE",
"525 96 CURVE SMOOTH",
"525 44 OFFCURVE",
"550 20 OFFCURVE",
"566 20 CURVE SMOOTH"
);
},
{
closed = 0;
nodes = (
"222 365 LINE"
);
}
);
width = 645;
}
);
note = uni099C;
unicode = 099C;
},
{
color = 3;
glyphname = uni099D;
lastChange = "2015-10-20 12:37:05 +0000";
layers = (
{
background = {
paths = (
{
closed = 1;
nodes = (
"359 357 OFFCURVE",
"272 310 OFFCURVE",
"203 253 CURVE",
"200 273 LINE",
"288 247 OFFCURVE",
"393 173 OFFCURVE",
"432 79 CURVE",
"423 72 LINE",
"423 466 LINE",
"463 466 LINE",
"463 0 LINE",
"438 0 LINE",
"418 118 OFFCURVE",
"303 197 OFFCURVE",
"196 214 CURVE",
"144 283 LINE",
"232 355 OFFCURVE",
"354 416 OFFCURVE",
"441 436 CURVE",
"447 384 LINE"
);
},
{
closed = 1;
nodes = (
"109 456 LINE",
"109 491 LINE",
"543 491 LINE",
"543 456 LINE"
);
}
);
};
layerId = "4AE238AB-6A4C-459B-8E99-4D2856E6BBFA";
name = Light;
paths = (
{
closed = 1;
nodes = (
"402 -12 OFFCURVE",
"404 7 OFFCURVE",
"404 34 CURVE SMOOTH",
"404 74 OFFCURVE",
"404 183 OFFCURVE",
"404 212 CURVE",
"393 223 LINE",
"465 130 OFFCURVE",
"518 129 OFFCURVE",
"518 69 CURVE SMOOTH",
"518 50 OFFCURVE",
"525 33 OFFCURVE",
"538 33 CURVE SMOOTH",
"555 33 OFFCURVE",
"557 61 OFFCURVE",
"555 143 CURVE SMOOTH",
"551 323 OFFCURVE",
"555 477 OFFCURVE",
"565 576 CURVE",
"558 574 LINE",
"564 564 OFFCURVE",
"580 554 OFFCURVE",
"601 554 CURVE SMOOTH",
"655 554 LINE SMOOTH",
"664 554 OFFCURVE",
"673 558 OFFCURVE",
"673 571 CURVE SMOOTH",
"673 582 OFFCURVE",
"664 587 OFFCURVE",
"655 587 CURVE SMOOTH",
"582 587 LINE SMOOTH",
"559 587 OFFCURVE",
"568 609 OFFCURVE",
"552 609 CURVE SMOOTH",
"516 609 OFFCURVE",
"517 417 OFFCURVE",
"517 117 CURVE",
"525 131 LINE",
"489 175 OFFCURVE",
"405 229 OFFCURVE",
"405 283 CURVE SMOOTH",
"405 441 OFFCURVE",
"410 517 OFFCURVE",
"416 583 CURVE SMOOTH",
"417 597 OFFCURVE",
"415 609 OFFCURVE",
"403 609 CURVE SMOOTH",
"391 609 OFFCURVE",
"383 581 OFFCURVE",
"378 533 CURVE",
"387 548 LINE",
"371 573 OFFCURVE",
"335 587 OFFCURVE",
"286 587 CURVE SMOOTH",
"0 587 LINE SMOOTH",
"-7 587 OFFCURVE",
"-17 582 OFFCURVE",
"-17 571 CURVE SMOOTH",
"-17 562 OFFCURVE",
"-9 554 OFFCURVE",
"0 554 CURVE SMOOTH",
"292 554 LINE SMOOTH",
"338 554 OFFCURVE",
"363 539 OFFCURVE",
"363 520 CURVE SMOOTH",
"363 490 OFFCURVE",
"320 457 OFFCURVE",
"60 343 CURVE SMOOTH",
"41 334 OFFCURVE",
"32 320 OFFCURVE",
"32 307 CURVE SMOOTH",
"32 292 OFFCURVE",
"43 278 OFFCURVE",
"62 274 CURVE SMOOTH",
"125 260 OFFCURVE",
"368 174 OFFCURVE",
"368 37 CURVE SMOOTH",
"368 12 OFFCURVE",
"372 -12 OFFCURVE",
"388 -12 CURVE SMOOTH"
);
},
{
closed = 1;
nodes = (
"320 207 OFFCURVE",
"207 280 OFFCURVE",
"57 312 CURVE",
"52 300 LINE",
"245 388 OFFCURVE",
"342 426 OFFCURVE",
"377 472 CURVE",
"373 476 LINE",
"369 389 OFFCURVE",
"368 264 OFFCURVE",
"368 120 CURVE",
"374 127 LINE"
);
}
);
width = 655;
},
{
layerId = "73A23EC2-8D63-4625-BFCF-17D5F08E21CD";
name = Bold;
paths = (
{
closed = 1;
nodes = (
"425 -12 OFFCURVE",
"431 17 OFFCURVE",
"431 64 CURVE SMOOTH",
"431 414 OFFCURVE",
"433 492 OFFCURVE",
"441 583 CURVE SMOOTH",
"442 597 OFFCURVE",
"437 609 OFFCURVE",
"421 609 CURVE SMOOTH",
"355 609 OFFCURVE",
"353 414 OFFCURVE",
"353 64 CURVE SMOOTH",
"353 12 OFFCURVE",
"372 -12 OFFCURVE",
"397 -12 CURVE SMOOTH"
);
},
{
closed = 1;
nodes = (
"421 -12 OFFCURVE",
"429 24 OFFCURVE",
"429 46 CURVE SMOOTH",
"429 183 OFFCURVE",
"222 307 OFFCURVE",
"91 307 CURVE",
"99 290 LINE",
"244 370 OFFCURVE",
"389 428 OFFCURVE",
"389 515 CURVE SMOOTH",
"389 560 OFFCURVE",
"360 587 OFFCURVE",
"283 587 CURVE SMOOTH",
"0 587 LINE SMOOTH",
"-17 587 OFFCURVE",
"-30 575 OFFCURVE",
"-30 554 CURVE SMOOTH",
"-30 537 OFFCURVE",
"-19 522 OFFCURVE",
"0 522 CURVE SMOOTH",
"279 522 LINE SMOOTH",
"401 522 OFFCURVE",
"234 451 OFFCURVE",
"70 358 CURVE SMOOTH",
"7 323 OFFCURVE",
"31 258 OFFCURVE",
"97 239 CURVE SMOOTH",
"143 226 OFFCURVE",
"353 164 OFFCURVE",
"353 64 CURVE SMOOTH",
"353 22 OFFCURVE",
"366 -12 OFFCURVE",
"397 -12 CURVE SMOOTH"
);
},
{
closed = 1;
nodes = (
"406 234 LINE",
"406 196 OFFCURVE",
"510 159 OFFCURVE",
"510 109 CURVE",
"574 109 LINE",
"574 203 OFFCURVE",
"432 250 OFFCURVE",
"432 312 CURVE"
);
},
{
closed = 1;
nodes = (
"582 33 OFFCURVE",
"588 62 OFFCURVE",
"588 109 CURVE SMOOTH",
"588 414 OFFCURVE",
"590 492 OFFCURVE",
"598 583 CURVE SMOOTH",
"599 597 OFFCURVE",
"594 609 OFFCURVE",
"578 609 CURVE SMOOTH",
"512 609 OFFCURVE",
"510 414 OFFCURVE",
"510 109 CURVE SMOOTH",
"510 57 OFFCURVE",
"529 33 OFFCURVE",
"554 33 CURVE SMOOTH"
);
},
{
closed = 1;
nodes = (
"694 577 OFFCURVE",
"685 587 OFFCURVE",
"655 587 CURVE SMOOTH",
"641 587 LINE SMOOTH",
"613 587 OFFCURVE",
"600 585 OFFCURVE",
"597 595 CURVE",
"588 592 LINE",
"588 576 OFFCURVE",
"592 522 OFFCURVE",
"641 522 CURVE SMOOTH",
"655 522 LINE SMOOTH",
"685 522 OFFCURVE",
"694 539 OFFCURVE",
"694 554 CURVE SMOOTH"
);
}
);
width = 655;
}
);
note = uni099D;
unicode = 099D;
},
{
color = 3;
glyphname = uni099E;
lastChange = "2015-10-20 12:37:05 +0000";
layers = (
{
background = {
paths = (
{
closed = 1;
nodes = (
"451 -23 LINE",
"426 1 LINE",
"426 53 OFFCURVE",
"387 94 OFFCURVE",
"339 94 CURVE SMOOTH",
"324 94 OFFCURVE",
"303 91 OFFCURVE",
"275 86 CURVE SMOOTH",
"246 81 OFFCURVE",
"225 79 OFFCURVE",
"210 79 CURVE SMOOTH",
"110 79 OFFCURVE",
"29 155 OFFCURVE",
"29 250 CURVE SMOOTH",
"29 289 OFFCURVE",
"41 327 OFFCURVE",
"66 362 CURVE",
"84 349 LINE",
"71 333 OFFCURVE",
"63 308 OFFCURVE",
"63 280 CURVE SMOOTH",
"63 209 OFFCURVE",
"111 153 OFFCURVE",
"170 153 CURVE",
"299 163 LINE",
"342 163 OFFCURVE",
"381 142 OFFCURVE",
"406 106 CURVE",
"406 419 LINE SMOOTH",
"406 436 OFFCURVE",
"397 451 OFFCURVE",
"388 451 CURVE SMOOTH",
"343 451 OFFCURVE",
"251 369 OFFCURVE",
"251 329 CURVE SMOOTH",
"251 319 LINE",
"252 316 OFFCURVE",
"252 314 OFFCURVE",
"253 313 CURVE",
"256 318 OFFCURVE",
"266 321 OFFCURVE",
"279 321 CURVE SMOOTH",
"308 321 OFFCURVE",
"331 298 OFFCURVE",
"331 270 CURVE SMOOTH",
"331 233 OFFCURVE",
"304 203 OFFCURVE",
"269 203 CURVE SMOOTH",
"218 203 OFFCURVE",
"178 242 OFFCURVE",
"178 290 CURVE SMOOTH",
"178 382 OFFCURVE",
"296 500 OFFCURVE",
"388 500 CURVE SMOOTH",
"412 500 OFFCURVE",
"451 457 OFFCURVE",
"451 429 CURVE SMOOTH",
"451 360 LINE",
"498 440 OFFCURVE",
"553 490 OFFCURVE",
"596 490 CURVE SMOOTH",
"644 490 OFFCURVE",
"683 445 OFFCURVE",
"683 389 CURVE SMOOTH",
"683 353 OFFCURVE",
"667 319 OFFCURVE",
"639 300 CURVE",
"667 281 OFFCURVE",
"683 247 OFFCURVE",
"683 210 CURVE SMOOTH",
"683 154 OFFCURVE",
"644 109 OFFCURVE",
"596 109 CURVE SMOOTH",
"555 109 OFFCURVE",
"499 160 OFFCURVE",
"451 244 CURVE"
);
},
{
closed = 1;
nodes = (
"478 224 OFFCURVE",
"536 173 OFFCURVE",
"596 173 CURVE SMOOTH",
"625 173 OFFCURVE",
"649 195 OFFCURVE",
"649 220 CURVE SMOOTH",
"649 233 OFFCURVE",
"641 247 OFFCURVE",
"626 258 CURVE",
"607 245 OFFCURVE",
"590 238 OFFCURVE",
"577 238 CURVE SMOOTH",
"542 238 OFFCURVE",
"515 265 OFFCURVE",
"515 300 CURVE SMOOTH",
"515 333 OFFCURVE",
"542 361 OFFCURVE",
"577 361 CURVE SMOOTH",
"590 361 OFFCURVE",
"607 354 OFFCURVE",
"626 341 CURVE",
"641 352 OFFCURVE",
"649 366 OFFCURVE",
"649 379 CURVE SMOOTH",
"649 406 OFFCURVE",
"625 427 OFFCURVE",
"596 427 CURVE SMOOTH",
"536 427 OFFCURVE",
"478 376 OFFCURVE",
"450 300 CURVE"
);
}
);
};
layerId = "4AE238AB-6A4C-459B-8E99-4D2856E6BBFA";
name = Light;
paths = (
{
closed = 1;
nodes = (
"716 116 OFFCURVE",
"772 159 OFFCURVE",
"772 226 CURVE SMOOTH",
"772 295 OFFCURVE",
"717 347 OFFCURVE",
"666 347 CURVE SMOOTH",
"631 347 OFFCURVE",
"613 326 OFFCURVE",
"613 306 CURVE SMOOTH",
"613 288 OFFCURVE",
"628 270 OFFCURVE",
"659 270 CURVE SMOOTH",
"723 270 OFFCURVE",
"767 348 OFFCURVE",
"767 401 CURVE SMOOTH",
"767 456 OFFCURVE",
"718 508 OFFCURVE",
"653 508 CURVE SMOOTH",
"548 508 OFFCURVE",
"476 382 OFFCURVE",
"476 335 CURVE",
"500 312 LINE",
"500 377 OFFCURVE",
"571 478 OFFCURVE",
"652 478 CURVE SMOOTH",
"697 478 OFFCURVE",
"731 445 OFFCURVE",
"731 394 CURVE SMOOTH",
"731 338 OFFCURVE",
"689 296 OFFCURVE",
"661 296 CURVE SMOOTH",
"649 296 OFFCURVE",
"643 303 OFFCURVE",
"643 309 CURVE SMOOTH",
"643 316 OFFCURVE",
"649 322 OFFCURVE",
"662 322 CURVE SMOOTH",
"687 322 OFFCURVE",
"736 291 OFFCURVE",
"736 236 CURVE SMOOTH",
"736 177 OFFCURVE",
"685 148 OFFCURVE",
"646 148 CURVE SMOOTH",
"588 148 OFFCURVE",
"500 210 OFFCURVE",
"500 300 CURVE",
"477 284 LINE",
"477 194 OFFCURVE",
"569 116 OFFCURVE",
"655 116 CURVE SMOOTH"
);
},
{
closed = 1;
nodes = (
"499 -12 OFFCURVE",
"498 9 OFFCURVE",
"498 42 CURVE SMOOTH",
"501 468 LINE SMOOTH",
"502 546 OFFCURVE",
"492 595 OFFCURVE",
"433 595 CURVE SMOOTH",
"330 595 OFFCURVE",
"168 443 OFFCURVE",
"168 326 CURVE SMOOTH",
"168 274 OFFCURVE",
"199 240 OFFCURVE",
"245 240 CURVE SMOOTH",
"282 240 OFFCURVE",
"316 263 OFFCURVE",
"316 307 CURVE SMOOTH",
"316 346 OFFCURVE",
"288 377 OFFCURVE",
"248 377 CURVE SMOOTH",
"229 377 OFFCURVE",
"215 370 OFFCURVE",
"203 356 CURVE",
"209 353 LINE",
"233 454 OFFCURVE",
"366 566 OFFCURVE",
"428 566 CURVE SMOOTH",
"460 566 OFFCURVE",
"461 535 OFFCURVE",
"462 468 CURVE SMOOTH",
"462 456 OFFCURVE",
"463 103 OFFCURVE",
"463 86 CURVE",
"471 88 LINE",
"445 116 OFFCURVE",
"405 137 OFFCURVE",
"355 137 CURVE SMOOTH",
"296 137 OFFCURVE",
"254 107 OFFCURVE",
"192 107 CURVE SMOOTH",
"117 107 OFFCURVE",
"48 152 OFFCURVE",
"48 241 CURVE SMOOTH",
"48 305 OFFCURVE",
"83 341 OFFCURVE",
"83 364 CURVE SMOOTH",
"83 375 OFFCURVE",
"76 380 OFFCURVE",
"68 380 CURVE SMOOTH",
"38 380 OFFCURVE",
"13 300 OFFCURVE",
"13 243 CURVE SMOOTH",
"13 139 OFFCURVE",
"94 65 OFFCURVE",
"192 65 CURVE SMOOTH",
"258 65 OFFCURVE",
"298 99 OFFCURVE",
"360 99 CURVE SMOOTH",
"409 99 OFFCURVE",
"460 78 OFFCURVE",
"463 27 CURVE SMOOTH",
"464 9 OFFCURVE",
"466 -12 OFFCURVE",
"482 -12 CURVE SMOOTH"
);
},
{
closed = 1;
nodes = (
"226 272 OFFCURVE",
"207 285 OFFCURVE",
"207 309 CURVE SMOOTH",
"207 333 OFFCURVE",
"225 349 OFFCURVE",
"246 349 CURVE SMOOTH",
"270 349 OFFCURVE",
"282 328 OFFCURVE",
"282 308 CURVE SMOOTH",
"282 285 OFFCURVE",
"265 272 OFFCURVE",
"246 272 CURVE SMOOTH"
);
}
);
width = 784;
},
{
layerId = "73A23EC2-8D63-4625-BFCF-17D5F08E21CD";
name = Bold;
paths = (
{
closed = 1;
nodes = (
"714 104 OFFCURVE",
"777 151 OFFCURVE",
"777 228 CURVE SMOOTH",
"777 307 OFFCURVE",
"704 371 OFFCURVE",
"651 371 CURVE SMOOTH",
"621 371 OFFCURVE",
"581 349 OFFCURVE",
"581 305 CURVE SMOOTH",
"581 261 OFFCURVE",
"620 243 OFFCURVE",
"648 243 CURVE SMOOTH",
"704 243 OFFCURVE",
"774 323 OFFCURVE",
"774 397 CURVE SMOOTH",
"774 456 OFFCURVE",
"735 525 OFFCURVE",
"642 525 CURVE SMOOTH",
"523 525 OFFCURVE",
"454 394 OFFCURVE",
"454 335 CURVE",
"505 312 LINE",
"505 377 OFFCURVE",
"581 456 OFFCURVE",
"639 456 CURVE SMOOTH",
"680 456 OFFCURVE",
"705 433 OFFCURVE",
"705 393 CURVE SMOOTH",
"705 338 OFFCURVE",
"663 296 OFFCURVE",
"645 296 CURVE SMOOTH",
"633 296 OFFCURVE",
"627 303 OFFCURVE",
"627 309 CURVE SMOOTH",
"627 316 OFFCURVE",
"634 322 OFFCURVE",
"646 322 CURVE SMOOTH",
"662 322 OFFCURVE",
"710 291 OFFCURVE",
"710 236 CURVE SMOOTH",
"710 202 OFFCURVE",
"680 169 OFFCURVE",
"635 169 CURVE SMOOTH",
"581 169 OFFCURVE",
"505 210 OFFCURVE",
"505 300 CURVE",
"455 284 LINE",
"455 169 OFFCURVE",
"567 104 OFFCURVE",
"642 104 CURVE SMOOTH"
);
},
{
closed = 1;
nodes = (
"493 -12 OFFCURVE",
"502 6 OFFCURVE",
"502 42 CURVE SMOOTH",
"507 468 LINE SMOOTH",
"508 546 OFFCURVE",
"493 595 OFFCURVE",
"410 595 CURVE SMOOTH",
"290 595 OFFCURVE",
"142 447 OFFCURVE",
"142 322 CURVE SMOOTH",
"142 262 OFFCURVE",
"178 213 OFFCURVE",
"242 213 CURVE SMOOTH",
"305 213 OFFCURVE",
"338 262 OFFCURVE",
"338 306 CURVE SMOOTH",
"338 345 OFFCURVE",
"314 396 OFFCURVE",
"245 396 CURVE SMOOTH",
"226 396 OFFCURVE",
"205 386 OFFCURVE",
"190 369 CURVE",
"221 365 LINE",
"250 455 OFFCURVE",
"342 521 OFFCURVE",
"394 521 CURVE SMOOTH",
"426 521 OFFCURVE",
"427 500 OFFCURVE",
"428 433 CURVE SMOOTH",
"428 421 OFFCURVE",
"427 114 OFFCURVE",
"427 97 CURVE",
"449 110 LINE",
"423 138 OFFCURVE",
"384 160 OFFCURVE",
"344 160 CURVE SMOOTH",
"280 160 OFFCURVE",
"248 122 OFFCURVE",
"186 122 CURVE SMOOTH",
"121 122 OFFCURVE",
"65 152 OFFCURVE",
"65 232 CURVE SMOOTH",
"65 293 OFFCURVE",
"90 312 OFFCURVE",
"90 345 CURVE SMOOTH",
"90 375 OFFCURVE",
"72 380 OFFCURVE",
"59 380 CURVE SMOOTH",
"21 380 OFFCURVE",
"-7 300 OFFCURVE",
"-7 243 CURVE SMOOTH",
"-7 139 OFFCURVE",
"53 50 OFFCURVE",
"176 50 CURVE SMOOTH",
"242 50 OFFCURVE",
"282 87 OFFCURVE",
"344 87 CURVE SMOOTH",
"384 87 OFFCURVE",
"427 78 OFFCURVE",
"427 38 CURVE SMOOTH",
"427 6 OFFCURVE",
"447 -12 OFFCURVE",
"466 -12 CURVE SMOOTH"
);
},
{
closed = 1;
nodes = (
"226 271 OFFCURVE",
"207 284 OFFCURVE",
"207 308 CURVE SMOOTH",
"207 329 OFFCURVE",
"224 345 OFFCURVE",
"245 345 CURVE SMOOTH",
"268 345 OFFCURVE",
"282 329 OFFCURVE",
"282 308 CURVE SMOOTH",
"282 284 OFFCURVE",
"265 271 OFFCURVE",
"246 271 CURVE SMOOTH"
);
}
);
width = 784;
}
);
note = uni099E;
unicode = 099E;
},
{
color = 3;
glyphname = uni099F;
lastChange = "2015-10-20 12:37:05 +0000";
layers = (
{
background = {
paths = (
{
closed = 1;
nodes = (
"-40 500 LINE",
"232 500 LINE SMOOTH",
"245 500 OFFCURVE",
"255 512 OFFCURVE",
"255 528 CURVE SMOOTH",
"255 548 OFFCURVE",
"231 565 OFFCURVE",
"202 565 CURVE SMOOTH",
"187 565 OFFCURVE",
"166 564 OFFCURVE",
"137 562 CURVE SMOOTH",
"109 561 OFFCURVE",
"88 560 OFFCURVE",
"73 560 CURVE SMOOTH",
"20 560 OFFCURVE",
"-23 601 OFFCURVE",
"-23 652 CURVE SMOOTH",
"-23 681 OFFCURVE",
"-10 708 OFFCURVE",
"13 724 CURVE",
"32 706 LINE",
"16 701 OFFCURVE",
"6 685 OFFCURVE",
"6 666 CURVE SMOOTH",
"6 641 OFFCURVE",
"25 619 OFFCURVE",
"48 619 CURVE SMOOTH",
"61 619 OFFCURVE",
"81 620 OFFCURVE",
"108 622 CURVE",
"134 623 OFFCURVE",
"154 624 OFFCURVE",
"167 624 CURVE SMOOTH",
"234 624 OFFCURVE",
"288 581 OFFCURVE",
"288 528 CURVE SMOOTH",
"288 512 OFFCURVE",
"298 500 OFFCURVE",
"311 500 CURVE SMOOTH",
"352 500 LINE",
"382 456 LINE",
"107 456 LINE",
"107 121 LINE SMOOTH",
"107 94 OFFCURVE",
"126 73 OFFCURVE",
"149 73 CURVE SMOOTH",
"200 73 OFFCURVE",
"271 170 OFFCURVE",
"271 238 CURVE",
"232 238 OFFCURVE",
"201 263 OFFCURVE",
"201 295 CURVE SMOOTH",
"201 326 OFFCURVE",
"228 351 OFFCURVE",
"263 351 CURVE SMOOTH",
"308 351 OFFCURVE",
"344 306 OFFCURVE",
"344 250 CURVE SMOOTH",
"344 158 OFFCURVE",
"226 10 OFFCURVE",
"153 10 CURVE SMOOTH",
"122 10 OFFCURVE",
"62 85 OFFCURVE",
"62 121 CURVE SMOOTH",
"62 456 LINE",
"-10 456 LINE"
);
}
);
};
layerId = "4AE238AB-6A4C-459B-8E99-4D2856E6BBFA";
name = Light;
paths = (
{
closed = 1;
nodes = (
"431 581 LINE",
"431 670 OFFCURVE",
"385 729 OFFCURVE",
"303 729 CURVE SMOOTH",
"252 729 OFFCURVE",
"198 705 OFFCURVE",
"132 705 CURVE SMOOTH",
"76 705 OFFCURVE",
"14 715 OFFCURVE",
"14 795 CURVE SMOOTH",
"14 808 OFFCURVE",
"7 818 OFFCURVE",
"-2 818 CURVE SMOOTH",
"-11 818 OFFCURVE",
"-18 810 OFFCURVE",
"-18 799 CURVE SMOOTH",
"-18 698 OFFCURVE",
"64 675 OFFCURVE",
"142 675 CURVE SMOOTH",
"202 675 OFFCURVE",
"258 695 OFFCURVE",
"304 695 CURVE SMOOTH",
"375 695 OFFCURVE",
"392 651 OFFCURVE",
"392 581 CURVE"
);
},
{
closed = 1;
nodes = (
"303 -7 OFFCURVE",
"436 193 OFFCURVE",
"436 307 CURVE SMOOTH",
"436 365 OFFCURVE",
"407 406 OFFCURVE",
"349 406 CURVE SMOOTH",
"312 406 OFFCURVE",
"281 377 OFFCURVE",
"281 338 CURVE SMOOTH",
"281 301 OFFCURVE",
"315 272 OFFCURVE",
"347 272 CURVE SMOOTH",
"372 272 OFFCURVE",
"396 284 OFFCURVE",
"404 303 CURVE",
"396 314 LINE",
"396 210 OFFCURVE",
"279 26 OFFCURVE",
"185 26 CURVE SMOOTH",
"119 26 OFFCURVE",
"141 137 OFFCURVE",
"141 286 CURVE SMOOTH",
"141 364 OFFCURVE",
"140 435 OFFCURVE",
"140 519 CURVE SMOOTH",
"140 553 OFFCURVE",
"156 554 OFFCURVE",
"181 554 CURVE SMOOTH",
"488 554 LINE SMOOTH",
"498 554 OFFCURVE",
"508 560 OFFCURVE",
"508 571 CURVE SMOOTH",
"508 581 OFFCURVE",
"498 587 OFFCURVE",
"488 587 CURVE SMOOTH",
"168 587 LINE",
"167 587 LINE SMOOTH",
"121 587 OFFCURVE",
"101 582 OFFCURVE",
"98 539 CURVE",
"105 546 LINE",
"96 569 OFFCURVE",
"62 587 OFFCURVE",
"22 587 CURVE SMOOTH",
"0 587 LINE SMOOTH",
"-12 587 OFFCURVE",
"-22 582 OFFCURVE",
"-22 570 CURVE SMOOTH",
"-22 560 OFFCURVE",
"-12 554 OFFCURVE",
"0 554 CURVE SMOOTH",
"30 554 LINE SMOOTH",
"83 554 OFFCURVE",
"98 511 OFFCURVE",
"98 474 CURVE SMOOTH",
"98 385 OFFCURVE",
"101 307 OFFCURVE",
"101 214 CURVE SMOOTH",
"101 83 OFFCURVE",
"87 -7 OFFCURVE",
"195 -7 CURVE SMOOTH"
);
},
{
closed = 1;
nodes = (
"331 303 OFFCURVE",
"314 319 OFFCURVE",
"314 339 CURVE SMOOTH",
"314 361 OFFCURVE",
"329 377 OFFCURVE",
"350 377 CURVE SMOOTH",
"375 377 OFFCURVE",
"390 357 OFFCURVE",
"390 338 CURVE SMOOTH",
"390 320 OFFCURVE",
"378 303 OFFCURVE",
"353 303 CURVE SMOOTH"
);
}
);
width = 488;
},
{
layerId = "73A23EC2-8D63-4625-BFCF-17D5F08E21CD";
name = Bold;
paths = (
{
closed = 1;
nodes = (
"445 544 LINE",
"445 700 OFFCURVE",
"383 740 OFFCURVE",
"297 740 CURVE SMOOTH",
"239 740 OFFCURVE",
"175 705 OFFCURVE",
"122 705 CURVE SMOOTH",
"43 705 OFFCURVE",
"38 756 OFFCURVE",
"38 790 CURVE SMOOTH",
"38 840 OFFCURVE",
"-22 833 OFFCURVE",
"-22 795 CURVE SMOOTH",
"-22 700 OFFCURVE",
"44 645 OFFCURVE",
"130 645 CURVE SMOOTH",
"192 645 OFFCURVE",
"250 679 OFFCURVE",
"307 679 CURVE SMOOTH",
"377 679 OFFCURVE",
"369 609 OFFCURVE",
"369 544 CURVE"
);
},
{
closed = 1;
nodes = (
"312 -12 OFFCURVE",
"440 181 OFFCURVE",
"440 318 CURVE SMOOTH",
"440 374 OFFCURVE",
"412 432 OFFCURVE",
"339 432 CURVE SMOOTH",
"276 432 OFFCURVE",
"237 390 OFFCURVE",
"237 338 CURVE SMOOTH",
"237 286 OFFCURVE",
"278 243 OFFCURVE",
"331 243 CURVE SMOOTH",
"367 243 OFFCURVE",
"395 262 OFFCURVE",
"403 282 CURVE",
"373 308 LINE",
"375 213 OFFCURVE",
"251 58 OFFCURVE",
"199 58 CURVE SMOOTH",
"135 58 OFFCURVE",
"153 137 OFFCURVE",
"153 286 CURVE SMOOTH",
"153 364 OFFCURVE",
"152 403 OFFCURVE",
"152 465 CURVE SMOOTH",
"152 521 OFFCURVE",
"176 522 OFFCURVE",
"201 522 CURVE SMOOTH",
"488 522 LINE SMOOTH",
"498 522 OFFCURVE",
"518 528 OFFCURVE",
"518 554 CURVE SMOOTH",
"518 581 OFFCURVE",
"498 587 OFFCURVE",
"488 587 CURVE SMOOTH",
"165 587 LINE SMOOTH",
"131 587 OFFCURVE",
"90 567 OFFCURVE",
"90 539 CURVE",
"97 539 LINE",
"97 567 OFFCURVE",
"61 587 OFFCURVE",
"25 587 CURVE SMOOTH",
"0 587 LINE SMOOTH",
"-12 587 OFFCURVE",
"-36 582 OFFCURVE",
"-36 554 CURVE SMOOTH",
"-36 528 OFFCURVE",
"-12 522 OFFCURVE",
"0 522 CURVE SMOOTH",
"25 522 LINE SMOOTH",
"71 522 OFFCURVE",
"74 501 OFFCURVE",
"74 454 CURVE SMOOTH",
"74 375 OFFCURVE",
"77 307 OFFCURVE",
"77 214 CURVE SMOOTH",
"77 83 OFFCURVE",
"74 -12 OFFCURVE",
"185 -12 CURVE SMOOTH"
);
},
{
closed = 1;
nodes = (
"314 302 OFFCURVE",
"297 318 OFFCURVE",
"297 338 CURVE SMOOTH",
"297 360 OFFCURVE",
"312 376 OFFCURVE",
"333 376 CURVE SMOOTH",
"359 376 OFFCURVE",
"373 356 OFFCURVE",
"373 337 CURVE SMOOTH",
"373 319 OFFCURVE",
"361 302 OFFCURVE",
"336 302 CURVE SMOOTH"
);
}
);
width = 488;
}
);
note = uni099F;
unicode = 099F;
},
{
color = 3;
glyphname = uni09A0;
lastChange = "2015-10-20 12:37:05 +0000";
layers = (
{
background = {
paths = (
{
closed = 1;
nodes = (
"-40 500 LINE",
"148 500 LINE",
"85 569 OFFCURVE",
"51 631 OFFCURVE",
"51 672 CURVE SMOOTH",
"51 701 OFFCURVE",
"67 731 OFFCURVE",
"92 748 CURVE",
"157 716 LINE",
"116 701 OFFCURVE",
"89 677 OFFCURVE",
"89 657 CURVE SMOOTH",
"89 617 OFFCURVE",
"123 560 OFFCURVE",
"183 500 CURVE",
"345 500 LINE",
"375 456 LINE",
"215 456 LINE",
"288 369 OFFCURVE",
"328 270 OFFCURVE",
"328 175 CURVE SMOOTH",
"328 90 OFFCURVE",
"252 20 OFFCURVE",
"157 20 CURVE SMOOTH",
"82 20 OFFCURVE",
"21 106 OFFCURVE",
"21 211 CURVE",
"134 252 OFFCURVE",
"200 363 OFFCURVE",
"165 456 CURVE",
"-10 456 LINE"
);
},
{
closed = 1;
nodes = (
"75 102 OFFCURVE",
"112 54 OFFCURVE",
"157 54 CURVE SMOOTH",
"230 54 OFFCURVE",
"289 115 OFFCURVE",
"289 190 CURVE SMOOTH",
"289 273 OFFCURVE",
"262 351 OFFCURVE",
"214 408 CURVE",
"216 397 OFFCURVE",
"217 385 OFFCURVE",
"217 373 CURVE SMOOTH",
"217 269 OFFCURVE",
"159 182 OFFCURVE",
"75 159 CURVE"
);
}
);
};
layerId = "4AE238AB-6A4C-459B-8E99-4D2856E6BBFA";
name = Light;
paths = (
{
closed = 1;
nodes = (
"335 7 OFFCURVE",
"391 112 OFFCURVE",
"391 217 CURVE SMOOTH",
"391 368 OFFCURVE",
"274 473 OFFCURVE",
"197 570 CURVE",
"194 567 LINE",
"210 556 OFFCURVE",
"222 554 OFFCURVE",
"248 554 CURVE SMOOTH",
"420 554 LINE SMOOTH",
"435 554 OFFCURVE",
"443 560 OFFCURVE",
"443 570 CURVE SMOOTH",
"443 583 OFFCURVE",
"435 587 OFFCURVE",
"420 587 CURVE SMOOTH",
"223 587 LINE SMOOTH",
"163 587 OFFCURVE",
"129 660 OFFCURVE",
"129 708 CURVE SMOOTH",
"129 819 OFFCURVE",
"222 823 OFFCURVE",
"222 850 CURVE SMOOTH",
"222 883 OFFCURVE",
"94 824 OFFCURVE",
"94 713 CURVE SMOOTH",
"94 662 OFFCURVE",
"123 614 OFFCURVE",
"162 562 CURVE",
"164 568 LINE",
"143 581 OFFCURVE",
"120 587 OFFCURVE",
"92 587 CURVE SMOOTH",
"0 587 LINE SMOOTH",
"-15 587 OFFCURVE",
"-22 581 OFFCURVE",
"-22 570 CURVE SMOOTH",
"-22 561 OFFCURVE",
"-15 554 OFFCURVE",
"0 554 CURVE SMOOTH",
"101 554 LINE SMOOTH",
"166 554 OFFCURVE",
"195 519 OFFCURVE",
"195 451 CURVE SMOOTH",
"195 293 OFFCURVE",
"48 286 OFFCURVE",
"48 162 CURVE SMOOTH",
"48 70 OFFCURVE",
"124 7 OFFCURVE",
"218 7 CURVE SMOOTH"
);
},
{
closed = 1;
nodes = (
"144 49 OFFCURVE",
"88 100 OFFCURVE",
"88 155 CURVE SMOOTH",
"88 272 OFFCURVE",
"228 272 OFFCURVE",
"228 437 CURVE SMOOTH",
"228 458 OFFCURVE",
"225 480 OFFCURVE",
"221 497 CURVE",
"215 496 LINE",
"282 413 OFFCURVE",
"351 323 OFFCURVE",
"351 212 CURVE SMOOTH",
"351 123 OFFCURVE",
"306 49 OFFCURVE",
"218 49 CURVE SMOOTH"
);
}
);
width = 420;
},
{
layerId = "73A23EC2-8D63-4625-BFCF-17D5F08E21CD";
name = Bold;
paths = (
{
closed = 1;
nodes = (
"341 -12 OFFCURVE",
"394 108 OFFCURVE",
"394 210 CURVE SMOOTH",
"394 359 OFFCURVE",
"281 478 OFFCURVE",
"217 551 CURVE",
"187 539 LINE",
"203 528 OFFCURVE",
"222 522 OFFCURVE",
"248 522 CURVE SMOOTH",
"420 522 LINE SMOOTH",
"434 522 OFFCURVE",
"453 528 OFFCURVE",
"453 556 CURVE SMOOTH",
"453 584 OFFCURVE",
"433 587 OFFCURVE",
"420 587 CURVE SMOOTH",
"222 587 LINE SMOOTH",
"173 587 OFFCURVE",
"148 644 OFFCURVE",
"148 692 CURVE SMOOTH",
"148 795 OFFCURVE",
"262 824 OFFCURVE",
"262 864 CURVE SMOOTH",
"262 869 OFFCURVE",
"260 884 OFFCURVE",
"243 884 CURVE SMOOTH",
"208 884 OFFCURVE",
"81 819 OFFCURVE",
"81 698 CURVE SMOOTH",
"81 638 OFFCURVE",
"112 559 OFFCURVE",
"153 537 CURVE",
"150 555 LINE",
"129 568 OFFCURVE",
"91 587 OFFCURVE",
"54 587 CURVE SMOOTH",
"0 587 LINE SMOOTH",
"-14 587 OFFCURVE",
"-32 582 OFFCURVE",
"-32 555 CURVE SMOOTH",
"-32 530 OFFCURVE",
"-15 522 OFFCURVE",
"0 522 CURVE SMOOTH",
"81 522 LINE SMOOTH",
"148 522 OFFCURVE",
"173 474 OFFCURVE",
"173 435 CURVE SMOOTH",
"173 342 OFFCURVE",
"29 298 OFFCURVE",
"29 167 CURVE SMOOTH",
"29 69 OFFCURVE",
"109 -12 OFFCURVE",
"214 -12 CURVE SMOOTH"
);
},
{
closed = 1;
nodes = (
"168 64 OFFCURVE",
"105 88 OFFCURVE",
"105 164 CURVE SMOOTH",
"105 274 OFFCURVE",
"244 287 OFFCURVE",
"244 462 CURVE",
"213 455 LINE",
"285 374 OFFCURVE",
"318 308 OFFCURVE",
"318 218 CURVE SMOOTH",
"318 132 OFFCURVE",
"278 64 OFFCURVE",
"211 64 CURVE SMOOTH"
);
}
);
width = 420;
}
);
note = uni09A0;
unicode = 09A0;
},
{
color = 3;
glyphname = uni09A1;
lastChange = "2015-10-20 12:37:05 +0000";
layers = (
{
background = {
paths = (
{
closed = 1;
nodes = (
"-40 500 LINE",
"467 500 LINE",
"497 456 LINE",
"245 456 LINE",
"245 290 LINE SMOOTH",
"245 281 OFFCURVE",
"249 272 OFFCURVE",
"256 272 CURVE SMOOTH",
"291 272 OFFCURVE",
"334 311 OFFCURVE",
"370 372 CURVE",
"421 343 OFFCURVE",
"452 281 OFFCURVE",
"452 210 CURVE SMOOTH",
"452 99 OFFCURVE",
"376 10 OFFCURVE",
"281 10 CURVE SMOOTH",
"157 10 OFFCURVE",
"45 187 OFFCURVE",
"25 419 CURVE",
"55 395 LINE",
"76 216 OFFCURVE",
"174 83 OFFCURVE",
"281 83 CURVE SMOOTH",
"360 83 OFFCURVE",
"423 146 OFFCURVE",
"423 225 CURVE SMOOTH",
"423 256 OFFCURVE",
"412 282 OFFCURVE",
"395 297 CURVE",
"362 238 OFFCURVE",
"314 203 OFFCURVE",
"271 203 CURVE SMOOTH",
"243 203 OFFCURVE",
"200 269 OFFCURVE",
"200 310 CURVE SMOOTH",
"200 456 LINE",
"-10 456 LINE"
);
}
);
};
layerId = "4AE238AB-6A4C-459B-8E99-4D2856E6BBFA";
name = Light;
paths = (
{
closed = 1;
nodes = (
"485 30 OFFCURVE",
"559 113 OFFCURVE",
"559 233 CURVE SMOOTH",
"559 311 OFFCURVE",
"523 393 OFFCURVE",
"474 393 CURVE SMOOTH",
"441 393 OFFCURVE",
"468 263 OFFCURVE",
"369 263 CURVE SMOOTH",
"322 263 OFFCURVE",
"292 317 OFFCURVE",
"292 387 CURVE SMOOTH",
"292 498 OFFCURVE",
"310 554 OFFCURVE",
"378 554 CURVE SMOOTH",
"593 554 LINE SMOOTH",
"602 554 OFFCURVE",
"611 560 OFFCURVE",
"611 571 CURVE SMOOTH",
"611 580 OFFCURVE",
"601 587 OFFCURVE",
"593 587 CURVE SMOOTH",
"367 587 LINE SMOOTH",
"335 587 OFFCURVE",
"291 571 OFFCURVE",
"286 541 CURVE",
"295 543 LINE",
"283 573 OFFCURVE",
"241 587 OFFCURVE",
"193 587 CURVE SMOOTH",
"0 587 LINE SMOOTH",
"-7 587 OFFCURVE",
"-17 582 OFFCURVE",
"-17 571 CURVE SMOOTH",
"-17 562 OFFCURVE",
"-9 554 OFFCURVE",
"0 554 CURVE SMOOTH",
"206 554 LINE SMOOTH",
"228 554 OFFCURVE",
"271 547 OFFCURVE",
"271 520 CURVE SMOOTH",
"271 503 OFFCURVE",
"256 467 OFFCURVE",
"256 397 CURVE SMOOTH",
"256 296 OFFCURVE",
"296 229 OFFCURVE",
"375 229 CURVE SMOOTH",
"469 229 OFFCURVE",
"485 334 OFFCURVE",
"490 354 CURVE",
"484 354 LINE",
"502 339 OFFCURVE",
"523 285 OFFCURVE",
"523 232 CURVE SMOOTH",
"523 145 OFFCURVE",
"458 72 OFFCURVE",
"363 72 CURVE SMOOTH",
"218 72 OFFCURVE",
"95 263 OFFCURVE",
"80 427 CURVE SMOOTH",
"78 448 OFFCURVE",
"68 459 OFFCURVE",
"60 459 CURVE SMOOTH",
"51 459 OFFCURVE",
"43 448 OFFCURVE",
"45 426 CURVE SMOOTH",
"62 241 OFFCURVE",
"196 30 OFFCURVE",
"363 30 CURVE SMOOTH"
);
}
);
width = 593;
},
{
layerId = "73A23EC2-8D63-4625-BFCF-17D5F08E21CD";
name = Bold;
paths = (
{
closed = 1;
nodes = (
"473 22 OFFCURVE",
"562 102 OFFCURVE",
"562 224 CURVE SMOOTH",
"562 320 OFFCURVE",
"507 405 OFFCURVE",
"466 405 CURVE SMOOTH",
"415 405 OFFCURVE",
"443 277 OFFCURVE",
"366 277 CURVE SMOOTH",
"316 277 OFFCURVE",
"300 332 OFFCURVE",
"300 392 CURVE SMOOTH",
"300 479 OFFCURVE",
"324 522 OFFCURVE",
"373 522 CURVE SMOOTH",
"593 522 LINE SMOOTH",
"603 522 OFFCURVE",
"620 528 OFFCURVE",
"620 555 CURVE SMOOTH",
"620 581 OFFCURVE",
"600 587 OFFCURVE",
"593 587 CURVE SMOOTH",
"367 587 LINE SMOOTH",
"336 587 OFFCURVE",
"299 584 OFFCURVE",
"274 557 CURVE SMOOTH",
"243 523 OFFCURVE",
"221 450 OFFCURVE",
"221 386 CURVE SMOOTH",
"221 295 OFFCURVE",
"276 205 OFFCURVE",
"366 205 CURVE SMOOTH",
"461 205 OFFCURVE",
"491 307 OFFCURVE",
"491 326 CURVE",
"466 326 LINE",
"476 310 OFFCURVE",
"497 266 OFFCURVE",
"497 231 CURVE SMOOTH",
"497 156 OFFCURVE",
"448 98 OFFCURVE",
"353 98 CURVE SMOOTH",
"227 98 OFFCURVE",
"118 242 OFFCURVE",
"94 422 CURVE SMOOTH",
"91 444 OFFCURVE",
"83 468 OFFCURVE",
"56 468 CURVE SMOOTH",
"29 468 OFFCURVE",
"25 447 OFFCURVE",
"25 424 CURVE SMOOTH",
"25 289 OFFCURVE",
"140 22 OFFCURVE",
"357 22 CURVE SMOOTH"
);
},
{
closed = 1;
nodes = (
"278 525 LINE",
"278 567 OFFCURVE",
"230 587 OFFCURVE",
"173 587 CURVE SMOOTH",
"0 587 LINE SMOOTH",
"-7 587 OFFCURVE",
"-28 582 OFFCURVE",
"-28 555 CURVE SMOOTH",
"-28 531 OFFCURVE",
"-9 522 OFFCURVE",
"0 522 CURVE SMOOTH",
"195 522 LINE SMOOTH",
"223 522 OFFCURVE",
"236 514 OFFCURVE",
"236 492 CURVE SMOOTH",
"236 483 OFFCURVE",
"234 473 OFFCURVE",
"231 461 CURVE"
);
}
);
width = 593;
}
);
note = uni09A1;
unicode = 09A1;
},
{
color = 3;
glyphname = uni09A2;
lastChange = "2015-10-20 12:37:05 +0000";
layers = (
{
background = {
paths = (
{
closed = 1;
nodes = (
"-40 500 LINE",
"344 500 LINE",
"374 456 LINE",
"104 456 LINE",
"104 146 LINE SMOOTH",
"104 123 OFFCURVE",
"135 78 OFFCURVE",
"150 78 CURVE SMOOTH",
"213 78 OFFCURVE",
"283 159 OFFCURVE",
"283 231 CURVE",
"279 223 OFFCURVE",
"265 218 OFFCURVE",
"249 218 CURVE SMOOTH",
"221 218 OFFCURVE",
"198 243 OFFCURVE",
"198 275 CURVE SMOOTH",
"198 308 OFFCURVE",
"226 336 OFFCURVE",
"259 336 CURVE SMOOTH",
"302 336 OFFCURVE",
"336 289 OFFCURVE",
"336 230 CURVE SMOOTH",
"336 135 OFFCURVE",
"235 15 OFFCURVE",
"155 15 CURVE SMOOTH",
"123 15 OFFCURVE",
"59 103 OFFCURVE",
"59 146 CURVE SMOOTH",
"59 456 LINE",
"-10 456 LINE"
);
}
);
};
layerId = "4AE238AB-6A4C-459B-8E99-4D2856E6BBFA";
name = Light;
paths = (
{
closed = 1;
nodes = (
"303 -7 OFFCURVE",
"436 193 OFFCURVE",
"436 307 CURVE SMOOTH",
"436 365 OFFCURVE",
"407 406 OFFCURVE",
"349 406 CURVE SMOOTH",
"312 406 OFFCURVE",
"281 377 OFFCURVE",
"281 338 CURVE SMOOTH",
"281 301 OFFCURVE",
"315 272 OFFCURVE",
"347 272 CURVE SMOOTH",
"372 272 OFFCURVE",
"396 284 OFFCURVE",
"404 303 CURVE",
"396 314 LINE",
"396 210 OFFCURVE",
"279 26 OFFCURVE",
"185 26 CURVE SMOOTH",
"119 26 OFFCURVE",
"141 137 OFFCURVE",
"141 286 CURVE SMOOTH",
"141 364 OFFCURVE",
"140 435 OFFCURVE",
"140 519 CURVE SMOOTH",
"140 553 OFFCURVE",
"156 554 OFFCURVE",
"181 554 CURVE SMOOTH",
"488 554 LINE SMOOTH",
"498 554 OFFCURVE",
"508 560 OFFCURVE",
"508 571 CURVE SMOOTH",
"508 581 OFFCURVE",
"498 587 OFFCURVE",
"488 587 CURVE SMOOTH",
"168 587 LINE",
"167 587 LINE SMOOTH",
"121 587 OFFCURVE",
"101 582 OFFCURVE",
"98 539 CURVE",
"105 546 LINE",
"96 569 OFFCURVE",
"62 587 OFFCURVE",
"22 587 CURVE SMOOTH",
"0 587 LINE SMOOTH",
"-12 587 OFFCURVE",
"-22 582 OFFCURVE",
"-22 570 CURVE SMOOTH",
"-22 560 OFFCURVE",
"-12 554 OFFCURVE",
"0 554 CURVE SMOOTH",
"30 554 LINE SMOOTH",
"83 554 OFFCURVE",
"98 511 OFFCURVE",
"98 474 CURVE SMOOTH",
"98 385 OFFCURVE",
"101 307 OFFCURVE",
"101 214 CURVE SMOOTH",
"101 83 OFFCURVE",
"87 -7 OFFCURVE",
"195 -7 CURVE SMOOTH"
);
},
{
closed = 1;
nodes = (
"331 303 OFFCURVE",
"314 319 OFFCURVE",
"314 339 CURVE SMOOTH",
"314 361 OFFCURVE",
"329 377 OFFCURVE",
"350 377 CURVE SMOOTH",
"375 377 OFFCURVE",
"390 357 OFFCURVE",
"390 338 CURVE SMOOTH",
"390 320 OFFCURVE",
"378 303 OFFCURVE",
"353 303 CURVE SMOOTH"
);
}
);
width = 488;
},
{
layerId = "73A23EC2-8D63-4625-BFCF-17D5F08E21CD";
name = Bold;
paths = (
{
closed = 1;
nodes = (
"312 -12 OFFCURVE",
"440 181 OFFCURVE",
"440 318 CURVE SMOOTH",
"440 374 OFFCURVE",
"412 432 OFFCURVE",
"339 432 CURVE SMOOTH",
"276 432 OFFCURVE",
"237 390 OFFCURVE",
"237 338 CURVE SMOOTH",
"237 286 OFFCURVE",
"278 243 OFFCURVE",
"331 243 CURVE SMOOTH",
"367 243 OFFCURVE",
"395 262 OFFCURVE",
"403 282 CURVE",
"373 308 LINE",
"375 213 OFFCURVE",
"251 58 OFFCURVE",
"199 58 CURVE SMOOTH",
"135 58 OFFCURVE",
"153 137 OFFCURVE",
"153 286 CURVE SMOOTH",
"153 364 OFFCURVE",
"152 403 OFFCURVE",
"152 465 CURVE SMOOTH",
"152 521 OFFCURVE",
"176 522 OFFCURVE",
"201 522 CURVE SMOOTH",
"488 522 LINE SMOOTH",
"498 522 OFFCURVE",
"518 528 OFFCURVE",
"518 554 CURVE SMOOTH",
"518 581 OFFCURVE",
"498 587 OFFCURVE",
"488 587 CURVE SMOOTH",
"165 587 LINE SMOOTH",
"131 587 OFFCURVE",
"90 567 OFFCURVE",
"90 539 CURVE",
"97 539 LINE",
"97 567 OFFCURVE",
"61 587 OFFCURVE",
"25 587 CURVE SMOOTH",
"0 587 LINE SMOOTH",
"-12 587 OFFCURVE",
"-36 582 OFFCURVE",
"-36 554 CURVE SMOOTH",
"-36 528 OFFCURVE",
"-12 522 OFFCURVE",
"0 522 CURVE SMOOTH",
"25 522 LINE SMOOTH",
"71 522 OFFCURVE",
"74 501 OFFCURVE",
"74 454 CURVE SMOOTH",
"74 375 OFFCURVE",
"77 307 OFFCURVE",
"77 214 CURVE SMOOTH",
"77 83 OFFCURVE",
"74 -12 OFFCURVE",
"185 -12 CURVE SMOOTH"
);
},
{
closed = 1;
nodes = (
"314 302 OFFCURVE",
"297 318 OFFCURVE",
"297 338 CURVE SMOOTH",
"297 360 OFFCURVE",
"312 376 OFFCURVE",
"333 376 CURVE SMOOTH",
"359 376 OFFCURVE",
"373 356 OFFCURVE",
"373 337 CURVE SMOOTH",
"373 319 OFFCURVE",
"361 302 OFFCURVE",
"336 302 CURVE SMOOTH"
);
}
);
width = 488;
}
);
note = uni09A2;
unicode = 09A2;
},
{
color = 3;
glyphname = uni09A3;
lastChange = "2015-10-20 12:37:05 +0000";
layers = (
{
background = {
paths = (
{
closed = 1;
nodes = (
"300 491 LINE",
"420 491 LINE",
"420 456 LINE",
"340 456 LINE",
"340 0 LINE",
"300 0 LINE"
);
},
{
closed = 1;
nodes = (
"304 271 LINE",
"292 367 OFFCURVE",
"246 447 OFFCURVE",
"169 447 CURVE SMOOTH",
"111 447 OFFCURVE",
"73 402 OFFCURVE",
"73 351 CURVE SMOOTH",
"73 306 OFFCURVE",
"102 279 OFFCURVE",
"133 279 CURVE SMOOTH",
"141 279 OFFCURVE",
"153 281 OFFCURVE",
"164 286 CURVE",
"134 245 LINE",
"122 261 OFFCURVE",
"114 278 OFFCURVE",
"114 296 CURVE SMOOTH",
"114 325 OFFCURVE",
"135 348 OFFCURVE",
"165 348 CURVE SMOOTH",
"194 348 OFFCURVE",
"219 325 OFFCURVE",
"219 294 CURVE SMOOTH",
"219 262 OFFCURVE",
"194 237 OFFCURVE",
"153 237 CURVE SMOOTH",
"90 237 OFFCURVE",
"23 298 OFFCURVE",
"23 375 CURVE SMOOTH",
"23 443 OFFCURVE",
"74 500 OFFCURVE",
"149 500 CURVE SMOOTH",
"225 500 OFFCURVE",
"302 441 OFFCURVE",
"329 277 CURVE"
);
}
);
};
layerId = "4AE238AB-6A4C-459B-8E99-4D2856E6BBFA";
name = Light;
paths = (
{
closed = 1;
nodes = (
"451 587 LINE SMOOTH",
"425 587 OFFCURVE",
"434 609 OFFCURVE",
"418 609 CURVE SMOOTH",
"397 609 OFFCURVE",
"389 529 OFFCURVE",
"385 398 CURVE",
"390 409 LINE",
"358 504 OFFCURVE",
"287 590 OFFCURVE",
"183 590 CURVE SMOOTH",
"133 590 OFFCURVE",
"20 556 OFFCURVE",
"20 434 CURVE SMOOTH",
"20 330 OFFCURVE",
"117 283 OFFCURVE",
"172 283 CURVE SMOOTH",
"218 283 OFFCURVE",
"247 315 OFFCURVE",
"247 350 CURVE SMOOTH",
"247 387 OFFCURVE",
"220 413 OFFCURVE",
"183 413 CURVE SMOOTH",
"128 413 OFFCURVE",
"95 355 OFFCURVE",
"134 316 CURVE",
"135 323 LINE",
"97 338 OFFCURVE",
"61 372 OFFCURVE",
"61 434 CURVE SMOOTH",
"61 518 OFFCURVE",
"135 553 OFFCURVE",
"186 553 CURVE SMOOTH",
"291 553 OFFCURVE",
"384 403 OFFCURVE",
"384 296 CURVE SMOOTH",
"384 228 OFFCURVE",
"383 152 OFFCURVE",
"383 71 CURVE SMOOTH",
"383 23 OFFCURVE",
"383 -12 OFFCURVE",
"404 -12 CURVE SMOOTH",
"425 -12 OFFCURVE",
"422 23 OFFCURVE",
"422 71 CURVE SMOOTH",
"422 369 OFFCURVE",
"423 485 OFFCURVE",
"431 574 CURVE",
"424 574 LINE",
"430 564 OFFCURVE",
"446 554 OFFCURVE",
"467 554 CURVE SMOOTH",
"522 554 LINE SMOOTH",
"531 554 OFFCURVE",
"542 559 OFFCURVE",
"542 570 CURVE SMOOTH",
"542 582 OFFCURVE",
"531 587 OFFCURVE",
"522 587 CURVE SMOOTH"
);
},
{
closed = 1;
nodes = (
"146 369 OFFCURVE",
"165 383 OFFCURVE",
"183 383 CURVE SMOOTH",
"200 383 OFFCURVE",
"217 370 OFFCURVE",
"217 350 CURVE SMOOTH",
"217 332 OFFCURVE",
"204 313 OFFCURVE",
"181 313 CURVE SMOOTH",
"161 313 OFFCURVE",
"146 330 OFFCURVE",
"146 347 CURVE SMOOTH"
);
}
);
width = 522;
},
{
layerId = "73A23EC2-8D63-4625-BFCF-17D5F08E21CD";
name = Bold;
paths = (
{
closed = 1;
nodes = (
"429 -12 OFFCURVE",
"435 17 OFFCURVE",
"435 64 CURVE SMOOTH",
"435 414 OFFCURVE",
"437 492 OFFCURVE",
"445 583 CURVE SMOOTH",
"446 597 OFFCURVE",
"441 609 OFFCURVE",
"425 609 CURVE SMOOTH",
"359 609 OFFCURVE",
"357 414 OFFCURVE",
"357 64 CURVE SMOOTH",
"357 12 OFFCURVE",
"376 -12 OFFCURVE",
"401 -12 CURVE SMOOTH"
);
},
{
closed = 1;
nodes = (
"561 577 OFFCURVE",
"552 587 OFFCURVE",
"522 587 CURVE SMOOTH",
"496 587 LINE SMOOTH",
"460 587 OFFCURVE",
"447 585 OFFCURVE",
"444 595 CURVE",
"435 592 LINE",
"435 576 OFFCURVE",
"439 522 OFFCURVE",
"496 522 CURVE SMOOTH",
"522 522 LINE SMOOTH",
"552 522 OFFCURVE",
"561 539 OFFCURVE",
"561 554 CURVE SMOOTH"
);
},
{
closed = 1;
nodes = (
"94 590 OFFCURVE",
"25 527 OFFCURVE",
"25 429 CURVE SMOOTH",
"25 316 OFFCURVE",
"117 256 OFFCURVE",
"188 256 CURVE SMOOTH",
"255 256 OFFCURVE",
"285 310 OFFCURVE",
"285 348 CURVE SMOOTH",
"285 389 OFFCURVE",
"262 442 OFFCURVE",
"197 442 CURVE SMOOTH",
"143 442 OFFCURVE",
"110 400 OFFCURVE",
"110 361 CURVE SMOOTH",
"110 344 OFFCURVE",
"116 323 OFFCURVE",
"121 315 CURVE",
"134 348 LINE",
"114 366 OFFCURVE",
"101 393 OFFCURVE",
"101 422 CURVE SMOOTH",
"101 470 OFFCURVE",
"138 513 OFFCURVE",
"194 513 CURVE SMOOTH",
"302 513 OFFCURVE",
"358 408 OFFCURVE",
"358 267 CURVE",
"416 324 LINE",
"416 461 OFFCURVE",
"343 590 OFFCURVE",
"189 590 CURVE SMOOTH"
);
},
{
closed = 1;
nodes = (
"213 380 OFFCURVE",
"226 367 OFFCURVE",
"226 349 CURVE SMOOTH",
"226 328 OFFCURVE",
"210 318 OFFCURVE",
"195 318 CURVE SMOOTH",
"179 318 OFFCURVE",
"163 330 OFFCURVE",
"163 348 CURVE SMOOTH",
"163 368 OFFCURVE",
"181 380 OFFCURVE",
"197 380 CURVE SMOOTH"
);
}
);
width = 522;
}
);
note = uni09A3;
unicode = 09A3;
},
{
color = 3;
glyphname = uni09A4;
lastChange = "2015-10-20 12:37:05 +0000";
layers = (
{
background = {
paths = (
{
closed = 1;
nodes = (
"-50 500 LINE",
"500 500 LINE",
"530 456 LINE",
"-20 456 LINE"
);
},
{
closed = 1;
nodes = (
"201 369 OFFCURVE",
"255 416 OFFCURVE",
"322 416 CURVE SMOOTH",
"413 416 OFFCURVE",
"487 328 OFFCURVE",
"487 220 CURVE SMOOTH",
"487 120 OFFCURVE",
"408 40 OFFCURVE",
"312 40 CURVE SMOOTH",
"179 40 OFFCURVE",
"51 213 OFFCURVE",
"10 449 CURVE",
"46 420 LINE",
"85 241 OFFCURVE",
"192 113 OFFCURVE",
"307 113 CURVE SMOOTH",
"380 113 OFFCURVE",
"439 176 OFFCURVE",
"439 255 CURVE SMOOTH",
"439 311 OFFCURVE",
"399 357 OFFCURVE",
"351 357 CURVE SMOOTH",
"343 357 OFFCURVE",
"338 355 OFFCURVE",
"335 354 CURVE",
"347 345 OFFCURVE",
"353 329 OFFCURVE",
"353 310 CURVE SMOOTH",
"353 265 OFFCURVE",
"318 228 OFFCURVE",
"277 228 CURVE SMOOTH",
"236 228 OFFCURVE",
"201 265 OFFCURVE",
"201 310 CURVE SMOOTH"
);
}
);
};
layerId = "4AE238AB-6A4C-459B-8E99-4D2856E6BBFA";
name = Light;
paths = (
{
closed = 1;
nodes = (
"447 57 OFFCURVE",
"513 149 OFFCURVE",
"513 253 CURVE SMOOTH",
"513 359 OFFCURVE",
"436 457 OFFCURVE",
"328 457 CURVE SMOOTH",
"262 457 OFFCURVE",
"216 421 OFFCURVE",
"216 371 CURVE SMOOTH",
"216 325 OFFCURVE",
"251 291 OFFCURVE",
"299 291 CURVE SMOOTH",
"341 291 OFFCURVE",
"373 322 OFFCURVE",
"373 363 CURVE SMOOTH",
"373 390 OFFCURVE",
"359 416 OFFCURVE",
"339 431 CURVE",
"338 424 LINE",
"399 422 OFFCURVE",
"478 366 OFFCURVE",
"478 265 CURVE SMOOTH",
"478 163 OFFCURVE",
"407 98 OFFCURVE",
"322 98 CURVE SMOOTH",
"190 98 OFFCURVE",
"98 243 OFFCURVE",
"61 422 CURVE SMOOTH",
"59 432 OFFCURVE",
"50 438 OFFCURVE",
"42 438 CURVE SMOOTH",
"32 438 OFFCURVE",
"27 429 OFFCURVE",
"27 420 CURVE SMOOTH",
"27 379 OFFCURVE",
"104 57 OFFCURVE",
"331 57 CURVE SMOOTH"
);
},
{
closed = 1;
nodes = (
"271 326 OFFCURVE",
"251 343 OFFCURVE",
"251 369 CURVE SMOOTH",
"251 396 OFFCURVE",
"275 416 OFFCURVE",
"299 416 CURVE SMOOTH",
"323 416 OFFCURVE",
"340 394 OFFCURVE",
"340 371 CURVE SMOOTH",
"340 343 OFFCURVE",
"319 326 OFFCURVE",
"293 326 CURVE SMOOTH"
);
},
{
closed = 1;
nodes = (
"567 554 LINE SMOOTH",
"576 554 OFFCURVE",
"584 561 OFFCURVE",
"584 571 CURVE SMOOTH",
"584 580 OFFCURVE",
"575 587 OFFCURVE",
"567 587 CURVE SMOOTH",
"0 587 LINE SMOOTH",
"-7 587 OFFCURVE",
"-17 581 OFFCURVE",
"-17 571 CURVE SMOOTH",
"-17 561 OFFCURVE",
"-9 554 OFFCURVE",
"0 554 CURVE SMOOTH"
);
}
);
width = 567;
},
{
layerId = "73A23EC2-8D63-4625-BFCF-17D5F08E21CD";
name = Bold;
paths = (
{
closed = 1;
nodes = (
"567 522 LINE SMOOTH",
"578 522 OFFCURVE",
"598 529 OFFCURVE",
"598 554 CURVE SMOOTH",
"598 578 OFFCURVE",
"580 587 OFFCURVE",
"567 587 CURVE SMOOTH",
"0 587 LINE SMOOTH",
"-18 587 OFFCURVE",
"-35 578 OFFCURVE",
"-35 554 CURVE SMOOTH",
"-35 529 OFFCURVE",
"-18 522 OFFCURVE",
"0 522 CURVE SMOOTH"
);
},
{
closed = 1;
nodes = (
"250 466 OFFCURVE",
"195 414 OFFCURVE",
"195 348 CURVE SMOOTH",
"195 290 OFFCURVE",
"244 245 OFFCURVE",
"302 245 CURVE SMOOTH",
"368 245 OFFCURVE",
"403 293 OFFCURVE",
"403 340 CURVE SMOOTH",
"403 381 OFFCURVE",
"385 405 OFFCURVE",
"370 419 CURVE",
"356 386 LINE",
"388 386 OFFCURVE",
"457 341 OFFCURVE",
"457 257 CURVE SMOOTH",
"457 181 OFFCURVE",
"407 108 OFFCURVE",
"321 108 CURVE SMOOTH",
"195 108 OFFCURVE",
"109 266 OFFCURVE",
"99 393 CURVE SMOOTH",
"97 421 OFFCURVE",
"82 440 OFFCURVE",
"60 440 CURVE SMOOTH",
"29 440 OFFCURVE",
"25 414 OFFCURVE",
"25 393 CURVE SMOOTH",
"25 282 OFFCURVE",
"123 31 OFFCURVE",
"324 31 CURVE SMOOTH",
"450 31 OFFCURVE",
"533 138 OFFCURVE",
"533 244 CURVE SMOOTH",
"533 370 OFFCURVE",
"442 466 OFFCURVE",
"329 466 CURVE SMOOTH"
);
},
{
closed = 1;
nodes = (
"275 310 OFFCURVE",
"259 330 OFFCURVE",
"259 352 CURVE SMOOTH",
"259 374 OFFCURVE",
"277 393 OFFCURVE",
"299 393 CURVE SMOOTH",
"321 393 OFFCURVE",
"342 375 OFFCURVE",
"342 351 CURVE SMOOTH",
"342 331 OFFCURVE",
"326 310 OFFCURVE",
"302 310 CURVE SMOOTH"
);
}
);
width = 567;
}
);
note = uni09A4;
unicode = 09A4;
},
{
color = 3;
glyphname = uni09A5;
lastChange = "2015-10-20 12:37:05 +0000";
layers = (
{
background = {
paths = (
{
closed = 1;
nodes = (
"295 307 OFFCURVE",
"245 246 OFFCURVE",
"143 229 CURVE",
"146 249 LINE",
"241 221 OFFCURVE",
"309 158 OFFCURVE",
"349 76 CURVE",
"335 72 LINE",
"335 491 LINE",
"455 491 LINE",
"455 456 LINE",
"375 456 LINE",
"375 0 LINE",
"350 0 LINE",
"323 121 OFFCURVE",
"235 186 OFFCURVE",
"98 208 CURVE",
"51 272 LINE",
"187 272 OFFCURVE",
"254 335 OFFCURVE",
"254 399 CURVE SMOOTH",
"254 439 OFFCURVE",
"227 456 OFFCURVE",
"192 456 CURVE SMOOTH",
"145 456 OFFCURVE",
"107 426 OFFCURVE",
"93 395 CURVE",
"81 411 LINE",
"87 415 OFFCURVE",
"93 416 OFFCURVE",
"98 416 CURVE SMOOTH",
"122 416 OFFCURVE",
"139 396 OFFCURVE",
"139 371 CURVE SMOOTH",
"139 343 OFFCURVE",
"118 323 OFFCURVE",
"89 323 CURVE SMOOTH",
"58 323 OFFCURVE",
"34 348 OFFCURVE",
"34 386 CURVE SMOOTH",
"34 448 OFFCURVE",
"99 500 OFFCURVE",
"170 500 CURVE SMOOTH",
"247 500 OFFCURVE",
"295 439 OFFCURVE",
"295 374 CURVE SMOOTH"
);
}
);
};
layerId = "4AE238AB-6A4C-459B-8E99-4D2856E6BBFA";
name = Light;
paths = (
{
closed = 1;
nodes = (
"420 -12 OFFCURVE",
"422 8 OFFCURVE",
"422 37 CURVE SMOOTH",
"422 265 OFFCURVE",
"423 486 OFFCURVE",
"431 573 CURVE",
"424 574 LINE",
"430 564 OFFCURVE",
"446 554 OFFCURVE",
"467 554 CURVE SMOOTH",
"522 554 LINE SMOOTH",
"531 554 OFFCURVE",
"542 559 OFFCURVE",
"542 570 CURVE SMOOTH",
"542 582 OFFCURVE",
"531 587 OFFCURVE",
"522 587 CURVE SMOOTH",
"450 587 LINE SMOOTH",
"426 587 OFFCURVE",
"434 609 OFFCURVE",
"418 609 CURVE SMOOTH",
"384 609 OFFCURVE",
"383 392 OFFCURVE",
"383 96 CURVE",
"391 113 LINE",
"331 195 OFFCURVE",
"248 245 OFFCURVE",
"143 285 CURVE",
"141 278 LINE",
"237 291 OFFCURVE",
"321 343 OFFCURVE",
"321 440 CURVE SMOOTH",
"321 542 OFFCURVE",
"254 590 OFFCURVE",
"174 590 CURVE SMOOTH",
"108 590 OFFCURVE",
"30 546 OFFCURVE",
"30 479 CURVE SMOOTH",
"30 446 OFFCURVE",
"56 415 OFFCURVE",
"96 415 CURVE SMOOTH",
"135 415 OFFCURVE",
"160 445 OFFCURVE",
"160 476 CURVE SMOOTH",
"160 516 OFFCURVE",
"117 546 OFFCURVE",
"83 526 CURVE",
"87 523 LINE",
"105 546 OFFCURVE",
"144 558 OFFCURVE",
"177 558 CURVE SMOOTH",
"245 558 OFFCURVE",
"288 505 OFFCURVE",
"288 447 CURVE SMOOTH",
"288 362 OFFCURVE",
"195 307 OFFCURVE",
"99 307 CURVE SMOOTH",
"77 307 OFFCURVE",
"71 295 OFFCURVE",
"71 285 CURVE SMOOTH",
"71 273 OFFCURVE",
"80 263 OFFCURVE",
"93 259 CURVE SMOOTH",
"203 225 OFFCURVE",
"383 134 OFFCURVE",
"383 41 CURVE SMOOTH",
"383 17 OFFCURVE",
"386 -12 OFFCURVE",
"404 -12 CURVE SMOOTH"
);
},
{
closed = 1;
nodes = (
"78 446 OFFCURVE",
"65 461 OFFCURVE",
"65 478 CURVE SMOOTH",
"65 495 OFFCURVE",
"79 509 OFFCURVE",
"96 509 CURVE SMOOTH",
"111 509 OFFCURVE",
"127 500 OFFCURVE",
"127 477 CURVE SMOOTH",
"127 459 OFFCURVE",
"111 446 OFFCURVE",
"96 446 CURVE SMOOTH"
);
}
);
width = 522;
},
{
layerId = "73A23EC2-8D63-4625-BFCF-17D5F08E21CD";
name = Bold;
paths = (
{
closed = 1;
nodes = (
"429 -12 OFFCURVE",
"435 17 OFFCURVE",
"435 64 CURVE SMOOTH",
"435 414 OFFCURVE",
"437 492 OFFCURVE",
"445 583 CURVE SMOOTH",
"446 597 OFFCURVE",
"441 609 OFFCURVE",
"425 609 CURVE SMOOTH",
"359 609 OFFCURVE",
"357 414 OFFCURVE",
"357 64 CURVE SMOOTH",
"357 12 OFFCURVE",
"376 -12 OFFCURVE",
"401 -12 CURVE SMOOTH"
);
},
{
closed = 1;
nodes = (
"561 577 OFFCURVE",
"552 587 OFFCURVE",
"522 587 CURVE SMOOTH",
"496 587 LINE SMOOTH",
"460 587 OFFCURVE",
"447 585 OFFCURVE",
"444 595 CURVE",
"435 592 LINE",
"435 576 OFFCURVE",
"439 522 OFFCURVE",
"496 522 CURVE SMOOTH",
"522 522 LINE SMOOTH",
"552 522 OFFCURVE",
"561 539 OFFCURVE",
"561 554 CURVE SMOOTH"
);
},
{
closed = 1;
nodes = (
"239 260 OFFCURVE",
"322 340 OFFCURVE",
"322 437 CURVE SMOOTH",
"322 540 OFFCURVE",
"236 589 OFFCURVE",
"162 589 CURVE SMOOTH",
"72 589 OFFCURVE",
"7 523 OFFCURVE",
"7 461 CURVE SMOOTH",
"7 407 OFFCURVE",
"44 366 OFFCURVE",
"105 366 CURVE SMOOTH",
"158 366 OFFCURVE",
"192 412 OFFCURVE",
"192 452 CURVE SMOOTH",
"192 492 OFFCURVE",
"169 538 OFFCURVE",
"110 538 CURVE",
"85 502 LINE",
"107 517 OFFCURVE",
"135 522 OFFCURVE",
"161 522 CURVE SMOOTH",
"212 522 OFFCURVE",
"248 492 OFFCURVE",
"248 435 CURVE SMOOTH",
"248 336 OFFCURVE",
"130 315 OFFCURVE",
"91 315 CURVE SMOOTH",
"65 315 OFFCURVE",
"42 304 OFFCURVE",
"42 278 CURVE SMOOTH",
"42 260 OFFCURVE",
"49 239 OFFCURVE",
"85 232 CURVE SMOOTH",
"136 222 OFFCURVE",
"357 166 OFFCURVE",
"357 64 CURVE",
"426 30 LINE",
"426 235 OFFCURVE",
"211 275 OFFCURVE",
"177 275 CURVE",
"156 260 LINE"
);
},
{
closed = 1;
nodes = (
"88 424 OFFCURVE",
"67 433 OFFCURVE",
"66 457 CURVE SMOOTH",
"67 475 OFFCURVE",
"80 490 OFFCURVE",
"100 490 CURVE SMOOTH",
"118 490 OFFCURVE",
"133 478 OFFCURVE",
"133 458 CURVE SMOOTH",
"133 436 OFFCURVE",
"117 424 OFFCURVE",
"101 424 CURVE SMOOTH"
);
}
);
width = 522;
}
);
note = uni09A5;
unicode = 09A5;
},
{
color = 3;
glyphname = uni09A6;
lastChange = "2015-10-20 12:37:05 +0000";
layers = (
{
background = {
paths = (
{
closed = 1;
nodes = (
"-40 500 LINE",
"347 500 LINE",
"377 456 LINE",
"89 456 LINE",
"89 265 LINE",
"135 328 OFFCURVE",
"200 375 OFFCURVE",
"285 406 CURVE",
"342 344 LINE",
"286 277 OFFCURVE",
"256 206 OFFCURVE",
"256 141 CURVE SMOOTH",
"256 83 OFFCURVE",
"265 30 OFFCURVE",
"282 -17 CURVE",
"252 1 LINE",
"226 57 OFFCURVE",
"213 110 OFFCURVE",
"213 161 CURVE SMOOTH",
"213 226 OFFCURVE",
"223 277 OFFCURVE",
"244 313 CURVE",
"186 280 OFFCURVE",
"135 225 OFFCURVE",
"91 148 CURVE",
"44 209 LINE",
"44 456 LINE",
"-10 456 LINE"
);
}
);
};
layerId = "4AE238AB-6A4C-459B-8E99-4D2856E6BBFA";
name = Light;
paths = (
{
closed = 1;
nodes = (
"429 -12 OFFCURVE",
"428 26 OFFCURVE",
"428 49 CURVE SMOOTH",
"427 151 OFFCURVE",
"415 184 OFFCURVE",
"415 236 CURVE SMOOTH",
"415 318 OFFCURVE",
"444 387 OFFCURVE",
"444 415 CURVE SMOOTH",
"444 427 OFFCURVE",
"439 437 OFFCURVE",
"426 437 CURVE SMOOTH",
"382 437 OFFCURVE",
"224 326 OFFCURVE",
"128 203 CURVE",
"129 230 OFFCURVE",
"130 293 OFFCURVE",
"130 327 CURVE SMOOTH",
"130 489 OFFCURVE",
"107 554 OFFCURVE",
"168 554 CURVE SMOOTH",
"528 554 LINE SMOOTH",
"537 554 OFFCURVE",
"544 561 OFFCURVE",
"544 570 CURVE SMOOTH",
"544 580 OFFCURVE",
"536 587 OFFCURVE",
"528 587 CURVE SMOOTH",
"158 587 LINE SMOOTH",
"129 587 OFFCURVE",
"106 574 OFFCURVE",
"96 546 CURVE",
"83 571 OFFCURVE",
"53 587 OFFCURVE",
"17 587 CURVE SMOOTH",
"0 587 LINE SMOOTH",
"-12 587 OFFCURVE",
"-20 579 OFFCURVE",
"-20 570 CURVE SMOOTH",
"-20 561 OFFCURVE",
"-12 554 OFFCURVE",
"0 554 CURVE SMOOTH",
"23 554 LINE SMOOTH",
"89 554 OFFCURVE",
"94 504 OFFCURVE",
"92 361 CURVE SMOOTH",
"90 207 OFFCURVE",
"86 165 OFFCURVE",
"86 150 CURVE SMOOTH",
"86 126 OFFCURVE",
"97 122 OFFCURVE",
"105 122 CURVE SMOOTH",
"112 122 OFFCURVE",
"118 125 OFFCURVE",
"122 130 CURVE SMOOTH",
"183 201 OFFCURVE",
"242 297 OFFCURVE",
"399 381 CURVE",
"382 337 OFFCURVE",
"377 291 OFFCURVE",
"377 246 CURVE SMOOTH",
"377 183 OFFCURVE",
"387 174 OFFCURVE",
"389 50 CURVE SMOOTH",
"390 23 OFFCURVE",
"389 -12 OFFCURVE",
"409 -12 CURVE SMOOTH"
);
}
);
width = 528;
},
{
layerId = "73A23EC2-8D63-4625-BFCF-17D5F08E21CD";
name = Bold;
paths = (
{
closed = 1;
nodes = (
"439 -12 OFFCURVE",
"441 34 OFFCURVE",
"441 64 CURVE SMOOTH",
"441 116 OFFCURVE",
"435 165 OFFCURVE",
"435 223 CURVE SMOOTH",
"435 313 OFFCURVE",
"464 380 OFFCURVE",
"464 420 CURVE SMOOTH",
"464 438 OFFCURVE",
"456 453 OFFCURVE",
"434 453 CURVE SMOOTH",
"375 453 OFFCURVE",
"231 341 OFFCURVE",
"128 211 CURVE",
"167 190 LINE",
"169 211 OFFCURVE",
"170 278 OFFCURVE",
"170 332 CURVE SMOOTH",
"170 455 OFFCURVE",
"164 522 OFFCURVE",
"214 522 CURVE SMOOTH",
"528 522 LINE SMOOTH",
"537 522 OFFCURVE",
"554 530 OFFCURVE",
"554 554 CURVE SMOOTH",
"554 581 OFFCURVE",
"536 587 OFFCURVE",
"528 587 CURVE SMOOTH",
"188 587 LINE SMOOTH",
"148 587 OFFCURVE",
"122 575 OFFCURVE",
"122 532 CURVE",
"133 532 LINE",
"133 575 OFFCURVE",
"95 587 OFFCURVE",
"47 587 CURVE SMOOTH",
"0 587 LINE SMOOTH",
"-12 587 OFFCURVE",
"-30 580 OFFCURVE",
"-30 554 CURVE SMOOTH",
"-30 530 OFFCURVE",
"-12 522 OFFCURVE",
"0 522 CURVE SMOOTH",
"49 522 LINE SMOOTH",
"96 522 OFFCURVE",
"97 483 OFFCURVE",
"94 361 CURVE SMOOTH",
"89 168 OFFCURVE",
"88 156 OFFCURVE",
"88 147 CURVE SMOOTH",
"88 128 OFFCURVE",
"98 109 OFFCURVE",
"116 109 CURVE SMOOTH",
"130 109 OFFCURVE",
"141 120 OFFCURVE",
"181 162 CURVE SMOOTH",
"241 226 OFFCURVE",
"279 296 OFFCURVE",
"410 386 CURVE",
"395 399 LINE",
"372 348 OFFCURVE",
"363 297 OFFCURVE",
"363 223 CURVE SMOOTH",
"363 172 OFFCURVE",
"363 116 OFFCURVE",
"363 64 CURVE SMOOTH",
"363 15 OFFCURVE",
"380 -12 OFFCURVE",
"406 -12 CURVE SMOOTH"
);
}
);
width = 528;
}
);
note = uni09A6;
unicode = 09A6;
},
{
color = 3;
glyphname = uni09A7;
lastChange = "2015-10-20 12:37:05 +0000";
layers = (
{
background = {
paths = (
{
closed = 1;
nodes = (
"371 500 LINE",
"401 456 LINE",
"321 456 LINE",
"321 -23 LINE",
"296 1 LINE",
"296 86 OFFCURVE",
"202 165 OFFCURVE",
"74 188 CURVE",
"17 260 LINE",
"134 348 LINE",
"86 348 OFFCURVE",
"48 386 OFFCURVE",
"48 434 CURVE SMOOTH",
"48 475 OFFCURVE",
"88 510 OFFCURVE",
"139 510 CURVE SMOOTH",
"174 510 OFFCURVE",
"201 487 OFFCURVE",
"201 458 CURVE SMOOTH",
"201 435 OFFCURVE",
"179 417 OFFCURVE",
"154 417 CURVE SMOOTH",
"125 417 OFFCURVE",
"101 439 OFFCURVE",
"112 456 CURVE",
"97 456 OFFCURVE",
"86 446 OFFCURVE",
"86 434 CURVE SMOOTH",
"86 403 OFFCURVE",
"127 378 OFFCURVE",
"178 378 CURVE",
"276 444 LINE",
"276 500 LINE"
);
},
{
closed = 1;
nodes = (
"165 233 OFFCURVE",
"233 182 OFFCURVE",
"276 107 CURVE",
"276 380 LINE",
"89 246 LINE"
);
}
);
};
layerId = "4AE238AB-6A4C-459B-8E99-4D2856E6BBFA";
name = Light;
paths = (
{
closed = 1;
nodes = (
"389 -12 OFFCURVE",
"389 10 OFFCURVE",
"389 39 CURVE SMOOTH",
"389 266 OFFCURVE",
"391 489 OFFCURVE",
"397 573 CURVE",
"391 574 LINE",
"397 564 OFFCURVE",
"413 554 OFFCURVE",
"434 554 CURVE SMOOTH",
"489 554 LINE SMOOTH",
"498 554 OFFCURVE",
"509 559 OFFCURVE",
"509 570 CURVE SMOOTH",
"509 582 OFFCURVE",
"498 587 OFFCURVE",
"489 587 CURVE SMOOTH",
"417 587 LINE SMOOTH",
"392 587 OFFCURVE",
"401 609 OFFCURVE",
"385 609 CURVE SMOOTH",
"367 609 OFFCURVE",
"361 535 OFFCURVE",
"358 510 CURVE SMOOTH",
"354 473 OFFCURVE",
"322 454 OFFCURVE",
"266 426 CURVE SMOOTH",
"206 396 OFFCURVE",
"81 455 OFFCURVE",
"120 534 CURVE",
"113 534 LINE",
"113 501 OFFCURVE",
"144 481 OFFCURVE",
"178 481 CURVE SMOOTH",
"211 481 OFFCURVE",
"240 505 OFFCURVE",
"238 548 CURVE SMOOTH",
"235 582 OFFCURVE",
"208 605 OFFCURVE",
"173 605 CURVE SMOOTH",
"130 605 OFFCURVE",
"75 567 OFFCURVE",
"75 498 CURVE SMOOTH",
"75 424 OFFCURVE",
"142 391 OFFCURVE",
"201 388 CURVE",
"200 394 LINE",
"150 371 OFFCURVE",
"95 349 OFFCURVE",
"44 333 CURVE SMOOTH",
"26 327 OFFCURVE",
"15 314 OFFCURVE",
"15 295 CURVE SMOOTH",
"15 278 OFFCURVE",
"25 261 OFFCURVE",
"48 257 CURVE SMOOTH",
"157 239 OFFCURVE",
"350 124 OFFCURVE",
"350 45 CURVE SMOOTH",
"350 22 OFFCURVE",
"349 -12 OFFCURVE",
"372 -12 CURVE SMOOTH"
);
},
{
closed = 1;
nodes = (
"295 208 OFFCURVE",
"158 279 OFFCURVE",
"46 297 CURVE",
"43 290 LINE",
"178 339 OFFCURVE",
"308 394 OFFCURVE",
"360 442 CURVE",
"354 447 LINE",
"350 360 OFFCURVE",
"350 242 OFFCURVE",
"350 108 CURVE",
"356 113 LINE"
);
},
{
closed = 1;
nodes = (
"155 510 OFFCURVE",
"141 525 OFFCURVE",
"141 541 CURVE SMOOTH",
"141 559 OFFCURVE",
"157 572 OFFCURVE",
"175 572 CURVE SMOOTH",
"191 572 OFFCURVE",
"207 560 OFFCURVE",
"207 541 CURVE SMOOTH",
"207 526 OFFCURVE",
"196 510 OFFCURVE",
"176 510 CURVE SMOOTH"
);
}
);
width = 489;
},
{
layerId = "73A23EC2-8D63-4625-BFCF-17D5F08E21CD";
name = Bold;
paths = (
{
closed = 1;
nodes = (
"93 467 OFFCURVE",
"135 435 OFFCURVE",
"172 435 CURVE SMOOTH",
"227 435 OFFCURVE",
"265 472 OFFCURVE",
"265 522 CURVE SMOOTH",
"265 582 OFFCURVE",
"210 611 OFFCURVE",
"163 611 CURVE SMOOTH",
"115 611 OFFCURVE",
"49 575 OFFCURVE",
"49 498 CURVE SMOOTH",
"49 402 OFFCURVE",
"122 364 OFFCURVE",
"172 352 CURVE",
"254 409 LINE",
"192 378 OFFCURVE",
"114 437 OFFCURVE",
"114 498 CURVE",
"93 492 LINE"
);
},
{
closed = 1;
nodes = (
"201 506 OFFCURVE",
"188 488 OFFCURVE",
"167 488 CURVE SMOOTH",
"143 488 OFFCURVE",
"132 505 OFFCURVE",
"132 522 CURVE SMOOTH",
"132 540 OFFCURVE",
"145 557 OFFCURVE",
"167 557 CURVE SMOOTH",
"189 557 OFFCURVE",
"201 539 OFFCURVE",
"201 524 CURVE SMOOTH"
);
},
{
closed = 1;
nodes = (
"396 -12 OFFCURVE",
"402 17 OFFCURVE",
"402 64 CURVE SMOOTH",
"402 414 OFFCURVE",
"404 492 OFFCURVE",
"412 583 CURVE SMOOTH",
"413 597 OFFCURVE",
"408 609 OFFCURVE",
"392 609 CURVE SMOOTH",
"326 609 OFFCURVE",
"324 414 OFFCURVE",
"324 64 CURVE SMOOTH",
"324 12 OFFCURVE",
"343 -12 OFFCURVE",
"368 -12 CURVE SMOOTH"
);
},
{
closed = 1;
nodes = (
"528 577 OFFCURVE",
"519 587 OFFCURVE",
"489 587 CURVE SMOOTH",
"463 587 LINE SMOOTH",
"427 587 OFFCURVE",
"414 585 OFFCURVE",
"411 595 CURVE",
"402 592 LINE",
"402 576 OFFCURVE",
"406 522 OFFCURVE",
"463 522 CURVE SMOOTH",
"489 522 LINE SMOOTH",
"519 522 OFFCURVE",
"528 539 OFFCURVE",
"528 554 CURVE SMOOTH"
);
},
{
closed = 1;
nodes = (
"336 494 LINE",
"336 417 OFFCURVE",
"141 363 OFFCURVE",
"61 343 CURVE SMOOTH",
"26 334 OFFCURVE",
"14 317 OFFCURVE",
"14 294 CURVE SMOOTH",
"14 260 OFFCURVE",
"39 242 OFFCURVE",
"78 231 CURVE SMOOTH",
"124 218 OFFCURVE",
"324 164 OFFCURVE",
"324 64 CURVE SMOOTH",
"324 22 OFFCURVE",
"337 -12 OFFCURVE",
"368 -12 CURVE SMOOTH",
"392 -12 OFFCURVE",
"400 24 OFFCURVE",
"400 46 CURVE SMOOTH",
"400 183 OFFCURVE",
"193 299 OFFCURVE",
"62 299 CURVE",
"62 278 LINE",
"114 278 OFFCURVE",
"389 340 OFFCURVE",
"389 476 CURVE"
);
}
);
width = 489;
}
);
note = uni09A7;
unicode = 09A7;
},
{
color = 3;
glyphname = uni09A8;
lastChange = "2015-10-20 12:37:05 +0000";
layers = (
{
background = {
paths = (
{
closed = 1;
nodes = (
"-55 500 LINE",
"399 500 LINE",
"429 456 LINE",
"349 456 LINE",
"349 -23 LINE",
"323 1 LINE",
"308 164 OFFCURVE",
"225 288 OFFCURVE",
"132 288 CURVE",
"151 281 OFFCURVE",
"164 258 OFFCURVE",
"164 230 CURVE SMOOTH",
"164 185 OFFCURVE",
"129 149 OFFCURVE",
"85 149 CURVE SMOOTH",
"41 149 OFFCURVE",
"6 185 OFFCURVE",
"6 230 CURVE SMOOTH",
"6 291 OFFCURVE",
"58 341 OFFCURVE",
"122 341 CURVE SMOOTH",
"197 341 OFFCURVE",
"268 284 OFFCURVE",
"304 196 CURVE",
"304 456 LINE",
"-25 456 LINE"
);
}
);
};
layerId = "4AE238AB-6A4C-459B-8E99-4D2856E6BBFA";
name = Light;
paths = (
{
closed = 1;
nodes = (
"407 -12 OFFCURVE",
"406 5 OFFCURVE",
"406 46 CURVE SMOOTH",
"406 294 OFFCURVE",
"408 484 OFFCURVE",
"414 567 CURVE",
"422 560 OFFCURVE",
"435 554 OFFCURVE",
"451 554 CURVE SMOOTH",
"506 554 LINE SMOOTH",
"515 554 OFFCURVE",
"526 559 OFFCURVE",
"526 570 CURVE SMOOTH",
"526 582 OFFCURVE",
"515 587 OFFCURVE",
"506 587 CURVE SMOOTH",
"433 587 LINE SMOOTH",
"409 587 OFFCURVE",
"419 609 OFFCURVE",
"402 609 CURVE SMOOTH",
"388 609 OFFCURVE",
"380 573 OFFCURVE",
"375 511 CURVE",
"381 523 LINE",
"367 564 OFFCURVE",
"335 587 OFFCURVE",
"276 587 CURVE SMOOTH",
"1 587 LINE SMOOTH",
"-6 587 OFFCURVE",
"-16 582 OFFCURVE",
"-16 571 CURVE SMOOTH",
"-16 562 OFFCURVE",
"-8 554 OFFCURVE",
"1 554 CURVE SMOOTH",
"293 554 LINE SMOOTH",
"339 554 OFFCURVE",
"372 522 OFFCURVE",
"372 462 CURVE SMOOTH",
"372 392 OFFCURVE",
"366 301 OFFCURVE",
"367 196 CURVE",
"372 199 LINE",
"333 293 OFFCURVE",
"262 365 OFFCURVE",
"155 365 CURVE SMOOTH",
"102 365 OFFCURVE",
"44 335 OFFCURVE",
"44 275 CURVE SMOOTH",
"44 228 OFFCURVE",
"78 197 OFFCURVE",
"123 197 CURVE SMOOTH",
"160 197 OFFCURVE",
"197 225 OFFCURVE",
"197 268 CURVE SMOOTH",
"197 301 OFFCURVE",
"175 326 OFFCURVE",
"146 336 CURVE",
"146 331 LINE",
"272 337 OFFCURVE",
"367 194 OFFCURVE",
"367 48 CURVE SMOOTH",
"367 9 OFFCURVE",
"371 -12 OFFCURVE",
"388 -12 CURVE SMOOTH"
);
},
{
closed = 1;
nodes = (
"97 228 OFFCURVE",
"77 248 OFFCURVE",
"77 271 CURVE SMOOTH",
"77 300 OFFCURVE",
"97 315 OFFCURVE",
"122 315 CURVE SMOOTH",
"144 315 OFFCURVE",
"165 300 OFFCURVE",
"165 271 CURVE SMOOTH",
"165 248 OFFCURVE",
"146 228 OFFCURVE",
"122 228 CURVE SMOOTH"
);
}
);
width = 506;
},
{
layerId = "73A23EC2-8D63-4625-BFCF-17D5F08E21CD";
name = Bold;
paths = (
{
closed = 1;
nodes = (
"376 504 LINE",
"364 550 OFFCURVE",
"333 587 OFFCURVE",
"261 587 CURVE SMOOTH",
"0 587 LINE SMOOTH",
"-16 587 OFFCURVE",
"-35 582 OFFCURVE",
"-35 556 CURVE SMOOTH",
"-35 531 OFFCURVE",
"-18 522 OFFCURVE",
"0 522 CURVE SMOOTH",
"267 522 LINE SMOOTH",
"331 522 OFFCURVE",
"352 479 OFFCURVE",
"348 438 CURVE"
);
},
{
closed = 1;
nodes = (
"63 389 OFFCURVE",
"12 332 OFFCURVE",
"12 268 CURVE SMOOTH",
"12 196 OFFCURVE",
"64 150 OFFCURVE",
"133 150 CURVE SMOOTH",
"191 150 OFFCURVE",
"240 190 OFFCURVE",
"240 253 CURVE SMOOTH",
"240 305 OFFCURVE",
"201 330 OFFCURVE",
"186 332 CURVE",
"169 312 LINE",
"213 312 OFFCURVE",
"341 251 OFFCURVE",
"341 64 CURVE SMOOTH",
"341 20 OFFCURVE",
"358 -12 OFFCURVE",
"385 -12 CURVE SMOOTH",
"400 -12 OFFCURVE",
"416 -3 OFFCURVE",
"416 56 CURVE SMOOTH",
"416 192 OFFCURVE",
"329 389 OFFCURVE",
"153 389 CURVE SMOOTH"
);
},
{
closed = 1;
nodes = (
"108 215 OFFCURVE",
"82 230 OFFCURVE",
"82 261 CURVE SMOOTH",
"82 289 OFFCURVE",
"102 311 OFFCURVE",
"128 311 CURVE SMOOTH",
"150 311 OFFCURVE",
"174 294 OFFCURVE",
"174 263 CURVE SMOOTH",
"174 233 OFFCURVE",
"152 215 OFFCURVE",
"129 215 CURVE SMOOTH"
);
},
{
closed = 1;
nodes = (
"413 -12 OFFCURVE",
"419 17 OFFCURVE",
"419 64 CURVE SMOOTH",
"419 414 OFFCURVE",
"421 492 OFFCURVE",
"429 583 CURVE SMOOTH",
"430 597 OFFCURVE",
"425 609 OFFCURVE",
"409 609 CURVE SMOOTH",
"343 609 OFFCURVE",
"341 414 OFFCURVE",
"341 64 CURVE SMOOTH",
"341 12 OFFCURVE",
"360 -12 OFFCURVE",
"385 -12 CURVE SMOOTH"
);
},
{
closed = 1;
nodes = (
"545 577 OFFCURVE",
"536 587 OFFCURVE",
"506 587 CURVE SMOOTH",
"472 587 LINE SMOOTH",
"444 587 OFFCURVE",
"431 585 OFFCURVE",
"428 595 CURVE",
"419 592 LINE",
"419 576 OFFCURVE",
"423 522 OFFCURVE",
"472 522 CURVE SMOOTH",
"506 522 LINE SMOOTH",
"536 522 OFFCURVE",
"545 539 OFFCURVE",
"545 554 CURVE SMOOTH"
);
}
);
width = 506;
}
);
note = uni09A8;
unicode = 09A8;
},
{
color = 3;
glyphname = uni09AA;
lastChange = "2015-10-20 12:37:05 +0000";
layers = (
{
background = {
paths = (
{
closed = 1;
nodes = (
"396 559 LINE",
"396 527 OFFCURVE",
"410 500 OFFCURVE",
"429 500 CURVE SMOOTH",
"467 500 LINE",
"497 456 LINE",
"417 456 LINE",
"417 -3 LINE",
"372 41 LINE",
"372 260 LINE SMOOTH",
"372 293 OFFCURVE",
"351 334 OFFCURVE",
"315 370 CURVE",
"146 205 LINE",
"83 247 LINE",
"115 271 LINE",
"127 283 OFFCURVE",
"134 298 OFFCURVE",
"134 314 CURVE SMOOTH",
"134 335 OFFCURVE",
"120 352 OFFCURVE",
"101 352 CURVE SMOOTH",
"94 352 OFFCURVE",
"85 348 OFFCURVE",
"74 340 CURVE",
"63 331 OFFCURVE",
"54 327 OFFCURVE",
"47 327 CURVE SMOOTH",
"30 327 OFFCURVE",
"15 346 OFFCURVE",
"15 369 CURVE SMOOTH",
"15 417 OFFCURVE",
"125 505 OFFCURVE",
"186 505 CURVE SMOOTH",
"243 505 OFFCURVE",
"315 444 OFFCURVE",
"372 345 CURVE",
"372 582 LINE"
);
},
{
closed = 1;
nodes = (
"148 391 OFFCURVE",
"172 360 OFFCURVE",
"172 323 CURVE",
"272 414 LINE",
"259 437 OFFCURVE",
"239 451 OFFCURVE",
"220 451 CURVE SMOOTH",
"187 451 OFFCURVE",
"149 430 OFFCURVE",
"117 391 CURVE"
);
}
);
};
layerId = "4AE238AB-6A4C-459B-8E99-4D2856E6BBFA";
name = Light;
paths = (
{
closed = 1;
nodes = (
"477 -12 OFFCURVE",
"480 6 OFFCURVE",
"480 35 CURVE SMOOTH",
"480 244 OFFCURVE",
"480 478 OFFCURVE",
"489 574 CURVE",
"482 574 LINE",
"488 564 OFFCURVE",
"504 554 OFFCURVE",
"525 554 CURVE SMOOTH",
"580 554 LINE SMOOTH",
"589 554 OFFCURVE",
"600 559 OFFCURVE",
"600 570 CURVE SMOOTH",
"600 582 OFFCURVE",
"589 587 OFFCURVE",
"580 587 CURVE SMOOTH",
"506 587 LINE SMOOTH",
"485 587 OFFCURVE",
"491 609 OFFCURVE",
"476 609 CURVE SMOOTH",
"455 609 OFFCURVE",
"447 527 OFFCURVE",
"443 397 CURVE",
"449 407 LINE",
"415 510 OFFCURVE",
"334 564 OFFCURVE",
"230 564 CURVE SMOOTH",
"133 564 OFFCURVE",
"33 505 OFFCURVE",
"33 416 CURVE SMOOTH",
"33 347 OFFCURVE",
"94 295 OFFCURVE",
"161 295 CURVE SMOOTH",
"188 295 OFFCURVE",
"209 301 OFFCURVE",
"227 306 CURVE",
"229 316 LINE",
"192 278 OFFCURVE",
"164 236 OFFCURVE",
"164 221 CURVE SMOOTH",
"164 216 OFFCURVE",
"168 208 OFFCURVE",
"178 208 CURVE SMOOTH",
"197 208 OFFCURVE",
"219 272 OFFCURVE",
"290 327 CURVE SMOOTH",
"346 370 OFFCURVE",
"389 391 OFFCURVE",
"426 405 CURVE",
"412 412 LINE",
"428 378 OFFCURVE",
"442 343 OFFCURVE",
"442 294 CURVE SMOOTH",
"442 227 OFFCURVE",
"441 152 OFFCURVE",
"441 71 CURVE SMOOTH",
"441 23 OFFCURVE",
"441 -12 OFFCURVE",
"462 -12 CURVE SMOOTH"
);
},
{
closed = 1;
nodes = (
"115 326 OFFCURVE",
"75 364 OFFCURVE",
"75 408 CURVE SMOOTH",
"75 482 OFFCURVE",
"155 530 OFFCURVE",
"238 530 CURVE SMOOTH",
"306 530 OFFCURVE",
"372 489 OFFCURVE",
"410 418 CURVE",
"420 436 LINE",
"287 395 OFFCURVE",
"290 326 OFFCURVE",
"164 326 CURVE SMOOTH"
);
}
);
width = 580;
},
{
layerId = "73A23EC2-8D63-4625-BFCF-17D5F08E21CD";
name = Bold;
paths = (
{
closed = 1;
nodes = (
"258 387 LINE",
"238 371 OFFCURVE",
"210 361 OFFCURVE",
"179 361 CURVE SMOOTH",
"147 361 OFFCURVE",
"106 374 OFFCURVE",
"106 415 CURVE SMOOTH",
"106 459 OFFCURVE",
"153 499 OFFCURVE",
"233 499 CURVE SMOOTH",
"332 499 OFFCURVE",
"416 438 OFFCURVE",
"416 275 CURVE",
"462 361 LINE",
"462 500 OFFCURVE",
"345 575 OFFCURVE",
"232 575 CURVE SMOOTH",
"126 575 OFFCURVE",
"31 509 OFFCURVE",
"31 414 CURVE SMOOTH",
"31 353 OFFCURVE",
"81 295 OFFCURVE",
"164 295 CURVE SMOOTH",
"217 295 OFFCURVE",
"245 311 OFFCURVE",
"260 317 CURVE"
);
},
{
closed = 1;
nodes = (
"367 457 OFFCURVE",
"295 420 OFFCURVE",
"238 371 CURVE SMOOTH",
"179 320 OFFCURVE",
"140 269 OFFCURVE",
"140 234 CURVE SMOOTH",
"140 211 OFFCURVE",
"157 199 OFFCURVE",
"173 199 CURVE SMOOTH",
"205 199 OFFCURVE",
"219 247 OFFCURVE",
"288 312 CURVE SMOOTH",
"334 356 OFFCURVE",
"392 395 OFFCURVE",
"413 395 CURVE",
"391 457 LINE"
);
},
{
closed = 1;
nodes = (
"487 -12 OFFCURVE",
"493 17 OFFCURVE",
"493 64 CURVE SMOOTH",
"493 414 OFFCURVE",
"495 492 OFFCURVE",
"503 583 CURVE SMOOTH",
"504 597 OFFCURVE",
"499 609 OFFCURVE",
"483 609 CURVE SMOOTH",
"417 609 OFFCURVE",
"415 414 OFFCURVE",
"415 64 CURVE SMOOTH",
"415 12 OFFCURVE",
"434 -12 OFFCURVE",
"459 -12 CURVE SMOOTH"
);
},
{
closed = 1;
nodes = (
"619 577 OFFCURVE",
"610 587 OFFCURVE",
"580 587 CURVE SMOOTH",
"546 587 LINE SMOOTH",
"518 587 OFFCURVE",
"505 585 OFFCURVE",
"502 595 CURVE",
"493 592 LINE",
"493 576 OFFCURVE",
"497 522 OFFCURVE",
"546 522 CURVE SMOOTH",
"580 522 LINE SMOOTH",
"610 522 OFFCURVE",
"619 539 OFFCURVE",
"619 554 CURVE SMOOTH"
);
}
);
width = 580;
}
);
note = uni09AA;
unicode = 09AA;
},
{
color = 3;
glyphname = uni09AB;
lastChange = "2015-10-20 12:37:05 +0000";
layers = (
{
background = {
paths = (
{
closed = 1;
nodes = (
"371 421 LINE",
"440 421 OFFCURVE",
"497 362 OFFCURVE",
"497 290 CURVE SMOOTH",
"497 239 OFFCURVE",
"465 198 OFFCURVE",
"426 198 CURVE SMOOTH",
"394 198 OFFCURVE",
"369 221 OFFCURVE",
"369 250 CURVE SMOOTH",
"369 279 OFFCURVE",
"392 302 OFFCURVE",
"421 302 CURVE SMOOTH",
"437 302 OFFCURVE",
"451 295 OFFCURVE",
"456 283 CURVE",
"463 287 OFFCURVE",
"468 294 OFFCURVE",
"468 305 CURVE SMOOTH",
"468 340 OFFCURVE",
"434 367 OFFCURVE",
"391 367 CURVE SMOOTH",
"334 367 LINE",
"334 0 LINE",
"309 0 LINE",
"287 107 OFFCURVE",
"196 175 OFFCURVE",
"74 198 CURVE",
"27 260 LINE",
"183 375 LINE",
"186 347 LINE",
"150 390 OFFCURVE",
"126 405 OFFCURVE",
"86 418 CURVE SMOOTH",
"41 432 OFFCURVE",
"18 444 OFFCURVE",
"17 477 CURVE",
"68 456 LINE",
"-10 456 LINE",
"-10 491 LINE",
"531 491 LINE",
"531 456 LINE",
"78 456 LINE",
"77 482 LINE",
"132 441 OFFCURVE",
"183 394 OFFCURVE",
"229 341 CURVE",
"79 227 LINE",
"72 254 LINE",
"184 221 OFFCURVE",
"268 150 OFFCURVE",
"304 75 CURVE",
"294 72 LINE",
"294 421 LINE"
);
}
);
};
layerId = "4AE238AB-6A4C-459B-8E99-4D2856E6BBFA";
name = Light;
paths = (
{
closed = 1;
nodes = (
"698 554 LINE SMOOTH",
"706 554 OFFCURVE",
"714 561 OFFCURVE",
"714 570 CURVE SMOOTH",
"714 581 OFFCURVE",
"706 587 OFFCURVE",
"698 587 CURVE SMOOTH",
"0 587 LINE SMOOTH",
"-8 587 OFFCURVE",
"-17 581 OFFCURVE",
"-17 570 CURVE SMOOTH",
"-17 561 OFFCURVE",
"-8 554 OFFCURVE",
"0 554 CURVE SMOOTH"
);
},
{
closed = 1;
nodes = (
"548 218 OFFCURVE",
"534 233 OFFCURVE",
"534 254 CURVE SMOOTH",
"534 269 OFFCURVE",
"548 285 OFFCURVE",
"571 285 CURVE SMOOTH",
"591 285 OFFCURVE",
"606 272 OFFCURVE",
"606 254 CURVE SMOOTH",
"606 230 OFFCURVE",
"587 218 OFFCURVE",
"570 218 CURVE SMOOTH"
);
},
{
closed = 1;
nodes = (
"50 566 LINE",
"51 489 OFFCURVE",
"77 444 OFFCURVE",
"160 409 CURVE SMOOTH",
"201 392 OFFCURVE",
"246 381 OFFCURVE",
"246 370 CURVE SMOOTH",
"246 357 OFFCURVE",
"160 330 OFFCURVE",
"89 302 CURVE SMOOTH",
"78 298 OFFCURVE",
"73 290 OFFCURVE",
"73 281 CURVE SMOOTH",
"73 270 OFFCURVE",
"82 257 OFFCURVE",
"100 251 CURVE SMOOTH",
"213 211 OFFCURVE",
"386 149 OFFCURVE",
"386 36 CURVE SMOOTH",
"386 13 OFFCURVE",
"391 -11 OFFCURVE",
"407 -11 CURVE SMOOTH",
"423 -11 OFFCURVE",
"425 5 OFFCURVE",
"425 33 CURVE SMOOTH",
"425 88 OFFCURVE",
"421 359 OFFCURVE",
"417 432 CURVE",
"410 435 LINE",
"439 384 OFFCURVE",
"507 406 OFFCURVE",
"565 380 CURVE SMOOTH",
"607 360 OFFCURVE",
"640 322 OFFCURVE",
"621 267 CURVE",
"628 271 LINE",
"623 297 OFFCURVE",
"599 318 OFFCURVE",
"566 318 CURVE SMOOTH",
"530 318 OFFCURVE",
"498 293 OFFCURVE",
"498 255 CURVE SMOOTH",
"498 215 OFFCURVE",
"530 191 OFFCURVE",
"571 191 CURVE SMOOTH",
"618 191 OFFCURVE",
"655 240 OFFCURVE",
"655 299 CURVE SMOOTH",
"655 335 OFFCURVE",
"640 390 OFFCURVE",
"572 414 CURVE SMOOTH",
"532 428 OFFCURVE",
"475 432 OFFCURVE",
"455 438 CURVE SMOOTH",
"425 447 OFFCURVE",
"421 467 OFFCURVE",
"421 502 CURVE SMOOTH",
"421 511 OFFCURVE",
"418 523 OFFCURVE",
"409 523 CURVE SMOOTH",
"374 523 OFFCURVE",
"385 274 OFFCURVE",
"384 116 CURVE",
"391 122 LINE",
"337 198 OFFCURVE",
"226 254 OFFCURVE",
"122 286 CURVE",
"117 275 LINE",
"249 330 LINE SMOOTH",
"282 344 OFFCURVE",
"289 357 OFFCURVE",
"289 368 CURVE SMOOTH",
"289 400 OFFCURVE",
"216 418 OFFCURVE",
"170 438 CURVE SMOOTH",
"116 461 OFFCURVE",
"93 484 OFFCURVE",
"93 566 CURVE"
);
}
);
width = 698;
},
{
layerId = "73A23EC2-8D63-4625-BFCF-17D5F08E21CD";
name = Bold;
paths = (
{
closed = 1;
nodes = (
"547 210 OFFCURVE",
"534 225 OFFCURVE",
"534 244 CURVE SMOOTH",
"534 258 OFFCURVE",
"547 273 OFFCURVE",
"569 273 CURVE SMOOTH",
"588 273 OFFCURVE",
"602 261 OFFCURVE",
"602 244 CURVE SMOOTH",
"602 221 OFFCURVE",
"584 210 OFFCURVE",
"568 210 CURVE SMOOTH"
);
},
{
closed = 1;
nodes = (
"49 565 LINE",
"50 488 OFFCURVE",
"68 442 OFFCURVE",
"151 408 CURVE SMOOTH",
"192 391 OFFCURVE",
"227 380 OFFCURVE",
"227 369 CURVE SMOOTH",
"227 356 OFFCURVE",
"151 329 OFFCURVE",
"80 301 CURVE SMOOTH",
"69 297 OFFCURVE",
"64 284 OFFCURVE",
"64 275 CURVE SMOOTH",
"64 264 OFFCURVE",
"73 246 OFFCURVE",
"91 240 CURVE SMOOTH",
"204 200 OFFCURVE",
"367 149 OFFCURVE",
"367 36 CURVE SMOOTH",
"367 13 OFFCURVE",
"380 -11 OFFCURVE",
"411 -11 CURVE SMOOTH",
"431 -11 OFFCURVE",
"445 5 OFFCURVE",
"445 33 CURVE SMOOTH",
"445 88 OFFCURVE",
"441 359 OFFCURVE",
"437 432 CURVE",
"421 413 LINE",
"456 374 OFFCURVE",
"493 378 OFFCURVE",
"555 363 CURVE SMOOTH",
"600 352 OFFCURVE",
"617 323 OFFCURVE",
"617 282 CURVE SMOOTH",
"617 273 OFFCURVE",
"616 264 OFFCURVE",
"615 254 CURVE",
"639 275 LINE",
"625 301 OFFCURVE",
"603 327 OFFCURVE",
"556 327 CURVE SMOOTH",
"514 327 OFFCURVE",
"474 293 OFFCURVE",
"474 245 CURVE SMOOTH",
"474 195 OFFCURVE",
"517 155 OFFCURVE",
"565 155 CURVE SMOOTH",
"636 155 OFFCURVE",
"674 221 OFFCURVE",
"674 275 CURVE SMOOTH",
"674 314 OFFCURVE",
"667 399 OFFCURVE",
"566 430 CURVE SMOOTH",
"508 448 OFFCURVE",
"441 426 OFFCURVE",
"441 482 CURVE SMOOTH",
"441 491 OFFCURVE",
"438 503 OFFCURVE",
"423 503 CURVE SMOOTH",
"374 503 OFFCURVE",
"368 389 OFFCURVE",
"368 266 CURVE SMOOTH",
"368 207 OFFCURVE",
"369 146 OFFCURVE",
"369 95 CURVE",
"413 119 LINE",
"366 208 OFFCURVE",
"275 261 OFFCURVE",
"171 293 CURVE",
"160 260 LINE",
"275 314 LINE SMOOTH",
"311 331 OFFCURVE",
"319 348 OFFCURVE",
"319 368 CURVE SMOOTH",
"319 400 OFFCURVE",
"287 421 OFFCURVE",
"217 451 CURVE SMOOTH",
"169 472 OFFCURVE",
"131 473 OFFCURVE",
"131 570 CURVE"
);
},
{
closed = 1;
nodes = (
"697 522 LINE SMOOTH",
"708 522 OFFCURVE",
"728 529 OFFCURVE",
"728 554 CURVE SMOOTH",
"728 578 OFFCURVE",
"710 587 OFFCURVE",
"697 587 CURVE SMOOTH",
"0 587 LINE SMOOTH",
"-18 587 OFFCURVE",
"-35 578 OFFCURVE",
"-35 554 CURVE SMOOTH",
"-35 529 OFFCURVE",
"-18 522 OFFCURVE",
"0 522 CURVE SMOOTH"
);
}
);
width = 698;
}
);
note = uni09AB;
unicode = 09AB;
},
{
color = 3;
glyphname = uni09AC;
lastChange = "2015-10-20 12:37:05 +0000";
layers = (
{
background = {
paths = (
{
closed = 1;
nodes = (
"239 353 OFFCURVE",
"164 313 OFFCURVE",
"90 246 CURVE",
"86 269 LINE",
"192 243 OFFCURVE",
"275 175 OFFCURVE",
"313 79 CURVE",
"304 72 LINE",
"304 466 LINE",
"344 466 LINE",
"344 0 LINE",
"319 0 LINE",
"299 114 OFFCURVE",
"212 191 OFFCURVE",
"82 208 CURVE",
"20 270 LINE",
"118 356 OFFCURVE",
"229 417 OFFCURVE",
"323 436 CURVE",
"328 382 LINE"
);
},
{
closed = 1;
nodes = (
"0 456 LINE",
"0 491 LINE",
"424 491 LINE",
"424 456 LINE"
);
},
{
closed = 1;
nodes = (
"392 167 OFFCURVE",
"398 173 OFFCURVE",
"398 180 CURVE SMOOTH",
"398 186 OFFCURVE",
"392 192 OFFCURVE",
"386 192 CURVE SMOOTH",
"379 192 OFFCURVE",
"373 186 OFFCURVE",
"373 180 CURVE SMOOTH",
"373 173 OFFCURVE",
"379 167 OFFCURVE",
"386 167 CURVE SMOOTH"
);
}
);
};
layerId = "4AE238AB-6A4C-459B-8E99-4D2856E6BBFA";
name = Light;
paths = (
{
closed = 1;
nodes = (
"379 -12 OFFCURVE",
"385 -1 OFFCURVE",
"385 24 CURVE SMOOTH",
"385 325 OFFCURVE",
"387 498 OFFCURVE",
"393 572 CURVE",
"387 574 LINE",
"393 564 OFFCURVE",
"409 554 OFFCURVE",
"430 554 CURVE SMOOTH",
"485 554 LINE SMOOTH",
"494 554 OFFCURVE",
"505 559 OFFCURVE",
"505 570 CURVE SMOOTH",
"505 582 OFFCURVE",
"494 587 OFFCURVE",
"485 587 CURVE SMOOTH",
"412 587 LINE SMOOTH",
"388 587 OFFCURVE",
"397 609 OFFCURVE",
"381 609 CURVE SMOOTH",
"370 609 OFFCURVE",
"362 580 OFFCURVE",
"357 531 CURVE",
"365 546 LINE",
"351 573 OFFCURVE",
"314 587 OFFCURVE",
"264 587 CURVE SMOOTH",
"0 587 LINE SMOOTH",
"-7 587 OFFCURVE",
"-16 582 OFFCURVE",
"-16 571 CURVE SMOOTH",
"-16 562 OFFCURVE",
"-9 554 OFFCURVE",
"0 554 CURVE SMOOTH",
"270 554 LINE SMOOTH",
"316 554 OFFCURVE",
"341 539 OFFCURVE",
"341 520 CURVE SMOOTH",
"341 490 OFFCURVE",
"298 457 OFFCURVE",
"38 343 CURVE SMOOTH",
"19 334 OFFCURVE",
"10 320 OFFCURVE",
"10 307 CURVE SMOOTH",
"10 292 OFFCURVE",
"21 278 OFFCURVE",
"40 274 CURVE SMOOTH",
"103 260 OFFCURVE",
"346 174 OFFCURVE",
"346 37 CURVE SMOOTH",
"346 12 OFFCURVE",
"350 -12 OFFCURVE",
"368 -12 CURVE SMOOTH"
);
},
{
closed = 1;
nodes = (
"352 127 LINE",
"297 207 OFFCURVE",
"187 280 OFFCURVE",
"35 312 CURVE",
"30 300 LINE",
"226 389 OFFCURVE",
"322 427 OFFCURVE",
"356 473 CURVE",
"352 477 LINE",
"348 391 OFFCURVE",
"346 265 OFFCURVE",
"346 120 CURVE"
);
}
);
width = 485;
},
{
layerId = "73A23EC2-8D63-4625-BFCF-17D5F08E21CD";
name = Bold;
paths = (
{
closed = 1;
nodes = (
"392 -12 OFFCURVE",
"398 17 OFFCURVE",
"398 64 CURVE SMOOTH",
"398 414 OFFCURVE",
"400 492 OFFCURVE",
"408 583 CURVE SMOOTH",
"409 597 OFFCURVE",
"404 609 OFFCURVE",
"388 609 CURVE SMOOTH",
"322 609 OFFCURVE",
"320 414 OFFCURVE",
"320 64 CURVE SMOOTH",
"320 12 OFFCURVE",
"339 -12 OFFCURVE",
"364 -12 CURVE SMOOTH"
);
},
{
closed = 1;
nodes = (
"524 577 OFFCURVE",
"515 587 OFFCURVE",
"485 587 CURVE SMOOTH",
"459 587 LINE SMOOTH",
"423 587 OFFCURVE",
"410 585 OFFCURVE",
"407 595 CURVE",
"398 592 LINE",
"398 576 OFFCURVE",
"402 522 OFFCURVE",
"459 522 CURVE SMOOTH",
"485 522 LINE SMOOTH",
"515 522 OFFCURVE",
"524 539 OFFCURVE",
"524 554 CURVE SMOOTH"
);
},
{
closed = 1;
nodes = (
"388 -12 OFFCURVE",
"396 24 OFFCURVE",
"396 46 CURVE SMOOTH",
"396 183 OFFCURVE",
"189 307 OFFCURVE",
"58 307 CURVE",
"66 290 LINE",
"211 370 OFFCURVE",
"356 428 OFFCURVE",
"356 515 CURVE SMOOTH",
"356 560 OFFCURVE",
"327 587 OFFCURVE",
"250 587 CURVE SMOOTH",
"0 587 LINE SMOOTH",
"-17 587 OFFCURVE",
"-30 575 OFFCURVE",
"-30 554 CURVE SMOOTH",
"-30 537 OFFCURVE",
"-19 522 OFFCURVE",
"0 522 CURVE SMOOTH",
"246 522 LINE SMOOTH",
"368 522 OFFCURVE",
"201 451 OFFCURVE",
"37 358 CURVE SMOOTH",
"-26 323 OFFCURVE",
"-2 258 OFFCURVE",
"64 239 CURVE SMOOTH",
"110 226 OFFCURVE",
"320 164 OFFCURVE",
"320 64 CURVE SMOOTH",
"320 22 OFFCURVE",
"333 -12 OFFCURVE",
"364 -12 CURVE SMOOTH"
);
}
);
width = 485;
}
);
note = uni09AC;
unicode = 09AC;
},
